<svg id="Layer_1" enable-background="new 0 0 512 512" height="512" viewBox="0 0 512 512" width="512" xmlns="http://www.w3.org/2000/svg"><g><path d="m448.999 129s53.001 3 53.001 24.5v20l-14.235-6.971-43.265-5.029z" fill="#c5d3de"/><path d="m438.999 111c-10.605 0-22.427 7.475-27.253 12.813-7.582 8.387-12.747 20.187-18.747 41.187l-23.338-15.573-35.663 19.24s21.333 42.667 56.334 42c35-.667 48.667-39.667 48.667-39.667 16.569 0 30-13.431 30-30s-13.431-30-30-30z" fill="#c5d3de"/><path d="m347.328 185s-25.33 95.41-72.661 110.04l-50.171 2.48c-19.37 22.96-36.831 36.81-36.831 36.81s-29.48 30.8-63.131 46.04c-28.279 12.81-53.799 11.11-114.54 5.63l38-107.67s45.001-126 124.001-126c63.091 0 131.502-52.66 152.382-59.3 0 0 18.12-7.03 30.951-7.03 21.1 0 44.671 37.67-8 99z" fill="#d0a09d"/><path d="m274.667 295.04-48.67 66.63-38.331-27.34s17.46-13.85 36.831-36.81z" fill="#e5c9c9"/><g><path d="m495.103 129.823c-5.471-2.879-12.385-5.27-20.565-7.146-6.659-12.861-20.085-21.677-35.539-21.677-14.666 0-29.051 9.881-34.67 16.106-6.726 7.443-11.813 16.958-16.931 32.137l-4.028-2.688c3.902-9.993 5.892-19.627 5.919-28.696.01-5.97-.88-11.64-2.641-16.82-1.699-5.01-4.17-9.45-7.33-13.21-6.289-7.51-15.03-11.82-23.99-11.83-8.3.04-16.67 2.11-23.04 3.9-5.641 1.62-18.3 6.55-22.481 8.71-5.12 2.67-10.939 5.99-17.689 9.82-12.011 6.84-26.951 15.34-42.951 22.88-29.46 13.95-55.351 21.02-76.961 21.02h-.21c-1.38 0-2.78.04-4.181.1-5.5.28-9.76 4.98-9.489 10.49.279 5.49 4.96 9.76 10.489 9.49 1.091-.05 2.16-.08 3.181-.08 8.18-.02 16.8-.84 25.6-2.44 7.981-1.45 16.38-3.6 24.96-6.37 13.981-4.51 29.021-10.87 45.981-19.43 12.53-6.36 23.68-12.7 33.52-18.3 1.2-.68 13.3-7.52 16.981-9.43 3.54-1.86 14.11-5.95 19.84-7.54 4.84-1.36 11.783-2.82 16.404-2.82 1.41 0 5.156.46 8.717 4.69 2.399 2.87 5.27 8.18 5.29 17.17.04 9.76-3.75 30.62-29.55 60.62-.99 1.16-1.69 2.48-2.08 3.95 0 .01-8 28.18-20.21 52.44-6.58 13.1-13.561 23.97-20.75 32.32-7.73 9.01-15.971 15.21-23.841 17.93l-30.322 1.496c3.553-7.398 17.976-42.496 21.266-48.602 2.619-4.862.802-10.927-4.061-13.547-4.861-2.619-10.928-.801-13.547 4.061-3.785 7.026-23.983 56.19-29.342 62.547-.003.003-.005.007-.008.011-9.717 11.514-46.221 46.138-56.667 54.605-14.09 11.45-27.47 20.05-39.77 25.57-14.271 6.41-27 8.82-46.96 8.86h-.091c-13.199 0-29.39-1.17-49.65-2.94l33.701-95.48s.01 0 .01-.01c0 0 .03-.11.149-.41.15-.43 15.801-43.42 43.701-77.43 3.49-4.26 2.86-10.58-1.399-14.07-1.781-1.46-4.031-2.26-6.33-2.26-3.01 0-5.84 1.34-7.74 3.67-12.33 15.1-23.74 33.1-33.941 53.51-6.85 13.72-11.17 24.61-13.13 29.88-.08.22-.14.36-.149.39l-38.015 107.7c-1.02 2.89-.64 6.15 1.011 8.73 1.66 2.58 4.47 4.28 7.52 4.56 27.911 2.51 47.461 4.16 64.352 4.16h.529c21.98 0 38.33-3.18 54.691-10.64 14.74-6.7 30.371-16.84 46.44-30.15 5.573-4.622 10.191-8.807 13.572-11.996l26.598 18.971-3.385 24.939-28.92 10.897c-5.168 1.948-7.778 7.716-5.831 12.884s7.713 7.781 12.884 5.832l30.628-11.541c3.553 2.079 9.346 6.958 9.346 16.683 0 5.523 4.478 10 10 10 5.523 0 10-4.477 10-10 0-7.543-1.879-13.836-4.709-18.992 13.118.168 26.055 2.07 31.673 6.944 1.802 1.564 2.537 3.171 2.537 5.547 0 5.523 4.478 10 10 10s10-4.477 10-10c0-8.165-3.266-15.311-9.443-20.665-13.922-12.066-41.067-12.521-57.448-11.51l2.959-21.8 45.355-62.091c11.607-4.412 22.37-12.748 32.798-25.414 6.65-8.12 13.04-17.92 18.99-29.12 4.649-8.74 9.16-18.59 13.41-29.26 1.984-5.013 3.697-9.698 5.143-13.858 11.953 9.793 26.321 14.886 39.259 14.886 32.608 0 49.333-27.767 55.317-40.253 5.985-1.035 11.516-3.409 16.28-6.795l22.786 2.645 12.7 6.217c1.392.681 2.896 1.018 4.396 1.018 1.844 0 3.681-.509 5.294-1.516 2.928-1.827 4.707-5.034 4.707-8.484v-20c-.002-6.744-2.934-16.328-16.899-23.675zm-271.35 217.964-19.963-14.239c6.544-6.004 15.703-14.96 25.496-26.248l24.943-1.234zm215.246-186.787c-4.223 0-8.002 2.685-9.426 6.661-.476 1.326-11.946 32.484-39.434 33.011-12.384.224-23.014-6.877-30.793-14.485 5.874-7.283 10.924-14.482 15.102-21.541l13.001 8.673c2.655 1.772 6 2.17 8.998 1.068s5.29-3.569 6.167-6.64c5.687-19.901 10.328-30.34 16.558-37.236 3.585-3.971 12.862-9.511 19.827-9.511 11.029 0 20 8.972 20 20s-8.971 20-20 20zm53.001-3.527c-.975-.456-2.018-.752-3.087-.876l-12.499-1.451c1.262-3.327 2.093-6.863 2.423-10.542 9.448 3.21 13.162 6.78 13.162 8.897v3.972z"/><circle cx="126.372" cy="166.96" r="10"/></g></g></svg>