<svg id="Layer_1" enable-background="new 0 0 512 512" height="512" viewBox="0 0 512 512" width="512" xmlns="http://www.w3.org/2000/svg"><g><path d="m227 312s-39.166 17.053-79 8c-33-7.5-138 21-138 21v-36s93.63-18.04 171.57-51.75z" fill="#c5d3de"/><path d="m468.04 200.72s18.96 145.28-151.04 150.61l-20.67 12s-42.66-12.33-69.33-51.33l-84.985-43.29c9.44-4.07 58.205-23.84 66.985-28.38l58-31.33s35.02-33.87 82.37-59.92c16.49-9.08 32-19.77 46.76-31.45 7.7-6.09 18.83-11.63 33.87-11.63 30.38 0 55 24.62 55 55 0 15.61-6.52 29.7-16.97 39.71z" fill="#ffda8f"/><path d="m396.57 204.83c-.15 3.3-3.99 59.65-84.24 64.64-82.66 5.14-220.352 15.273-220.352 15.273 7.73-3.44 117.361-50.284 157.022-76.743 21.183-14.132 53.02-32.87 100.37-58.92 4.5-2.47 8.92-5.07 13.27-7.77-1.62 10.84-1.6 38.79 33.93 63.52z" fill="#b8ecbc"/><path d="m468.04 200.72s4.41 33.12-10.11 67.99c-3-21.46-12.81-39.71-34.26-49.04-62.55-27.2-62.99-65.27-61.03-78.36 11.62-7.21 22.75-15.18 33.49-23.68 7.7-6.09 18.83-11.63 33.87-11.63 30.38 0 55 24.62 55 55 0 15.61-6.52 29.7-16.97 39.71z" fill="#c5d3de"/><path d="m407.663 159.159c9.403 25.522 60.377 41.561 60.377 41.561l-.01-.01c10.45-10.01 16.97-24.1 16.97-39.71-15.75-15.5-77.337-1.841-77.337-1.841z" fill="#fff"/><g><path d="m494.986 160.414c-.075-8.572-1.782-16.883-5.096-24.714-3.27-7.74-7.96-14.69-13.93-20.66s-12.92-10.66-20.66-13.93c-8.01-3.39-16.52-5.11-25.3-5.11h-.14c-8.06 0-15.85 1.42-23.16 4.21-6.07 2.32-11.71 5.54-16.77 9.58-11.444 9.046-22.524 16.849-33.584 23.648-.36.222-91.072 51.683-112.896 66.243-22.943 15.307-154.875 75.631-155.539 75.926-.007.003-.013.007-.02.01-.431.064-79.441 19.497-79.784 19.563-4.706.908-8.107 5.027-8.107 9.82v36c0 3.114 1.451 6.051 3.925 7.943 1.764 1.349 3.903 2.057 6.076 2.057.875 0 1.755-.115 2.618-.349 28.542-7.744 108.108-26.594 133.165-20.899 32.279 7.334 63.63-.969 77.635-5.73 5.817 7.479 12.52 14.45 20.001 20.769 7.1 5.98 14.94 11.43 23.3 16.19 11.387 6.465 20.629 9.915 24.777 11.305l29.273 23.714h-5.77c-5.523 0-10 4.477-10 10s4.477 10 10 10h81.57c5.523 0 10-4.477 10-10s-4.477-10-10-10h-44.028l-38.645-31.307 5.962-3.463c13.21-.52 25.83-1.91 37.51-4.12 5.41-1.03 8.98-6.28 7.96-11.69-.9-4.72-5.02-8.14-9.81-8.14-.441 0-12.856 1.782-24.766 2.996l2.145-4.336c2.449-4.951.421-10.949-4.529-13.397-4.951-2.449-10.949-.419-13.397 4.529l-9.625 19.458-10.096 5.86c-4.38-1.63-11.26-4.54-19.26-9.15-11.67-6.7-28.21-18.54-40.74-36.89-.95-1.39-2.2-2.49-3.71-3.26l-39.031-15.537c40.315-2.834 85.47-5.927 120.442-8.101 63.304-3.937 83.822-38.03 90.456-58.626 5.07 2.82 10.485 5.498 16.274 8.015 15.748 6.85 24.934 19.842 28.083 39.645-5.189 12.055-12.128 22.757-20.755 31.925-3.78 4.01-3.59 10.35.43 14.13 1.86 1.75 4.3 2.72 6.85 2.72 2.79 0 5.38-1.12 7.29-3.15 14.32-15.22 24.69-33.84 30.83-55.33 5.16-18.09 6.26-34.62 6.26-45.29 0-3.16-.09-6.23-.28-9.12 5.435-6.048 9.622-12.993 12.436-20.458.726 1.171 1.174 2.336 1.174 3.422 0 5.523 4.477 10 10 10s10-4.477 10-10c0-12.999-10.311-22.268-17.014-26.921zm-294.721 149.19c-13.687 2.893-31.919 4.765-50.049.644-28.501-6.475-100.136 10.177-130.216 17.803v-14.889c12.857-2.721 72.931-18.322 73.321-18.49 4.367-.321 31.846-2.335 67.993-4.911zm111.444-50.115c-48.197 2.997-115.69 7.734-163.272 11.14 51.08-23.248 87.344-41.79 106.112-54.311 21.147-14.109 52.442-32.489 98.39-57.788 1.016 6.396 3.137 13.677 7.181 21.337 5.746 10.884 14.377 20.742 25.76 29.514-2.643 12.941-15.173 46.44-74.171 50.108zm145.303-23.961c-6.876-11.135-16.676-19.514-29.354-25.028-6.033-2.624-11.425-5.334-16.245-8.096-3.124-1.791-14.824-9.917-17.033-11.792-19.521-16.576-22.637-33.314-22.252-43.463 9.967-6.395 19.964-13.569 30.212-21.679 8.1-6.34 17.15-9.44 27.66-9.47 12.01 0 23.31 4.69 31.82 13.18 4.544 4.555 7.984 9.913 10.213 15.747-8.639-1.528-19.412-1.733-32.456-.624-17.826 1.517-33.425 4.948-34.08 5.093-2.818.625-5.229 2.437-6.612 4.97-1.383 2.534-1.604 5.541-.606 8.25 8.931 24.241 44.918 39.768 60.279 45.413.065 1.564.112 3.395.112 5.461 0 5.717-.355 13.354-1.658 22.038zm8.078-46.396c-13.32-4.923-30.443-13.392-40.503-22.967 20.356-3.136 41.121-3.689 50.116-.031-.956 8.458-4.267 16.364-9.613 22.998z"/><circle cx="398.141" cy="333.54" r="10"/></g></g></svg>