<svg id="Layer_1" enable-background="new 0 0 512 512" height="512" viewBox="0 0 512 512" width="512" xmlns="http://www.w3.org/2000/svg"><g><path d="m316.259 178.933c-15.891-36.658-4.146-75.838-4.146-83.157 0-24.847-20.179-44.989-45.07-44.989-24.892 0-43.593 20.186-45.07 44.989-.408 6.856-1.976 20.15-3.511 32.229-1.893 14.894-10.092 28.338-22.656 36.59-90.723 59.587-96.885 160.636-96.885 160.636l-47.916 176.77 76.961-.812 18.028-114.798c139.217-52.812 193.41-154.068 170.265-207.458z" fill="#89a7bc"/><path d="m272.262 176.266c16.458 13.046 30.425 23.369 48.806 21.784-.67-6.861-2.277-13.276-4.809-19.117-15.891-36.658-4.146-75.838-4.146-83.157 0-22.38-16.373-40.935-37.813-44.401l-7.257-.588c.001 0-33.54 94.755 5.219 125.479z" fill="#fff"/><path d="m241.158 90.288c-6.545-10.888-9.515-28.993 34.554-54.987s157.244-48.988 185.288 22.995c0 0-62.096-1-141.72 46.989 0 0-24.538 16.996-39.061-8.998 0 0-30.047 8.997-39.061-5.999z" fill="#ffda8f"/><g><path d="m292.832 282.146c-1.79-1.42-3.931-2.17-6.21-2.17-3.07 0-5.931 1.38-7.84 3.79-1.66 2.09-2.4 4.709-2.101 7.359.311 2.65 1.63 5.03 3.72 6.69 1.79 1.41 3.931 2.159 6.21 2.159 3.08 0 5.931-1.38 7.841-3.79 1.659-2.09 2.409-4.699 2.1-7.359-.31-2.649-1.63-5.029-3.72-6.679z"/><path d="m470.318 54.666c-8.997-23.092-26.141-39.155-50.958-47.743-50.089-17.333-117.124 1.123-148.728 19.765-5.236 3.088-9.976 6.157-14.241 9.215-.02.013-.039.028-.059.042-4.641 3.331-8.711 6.648-12.218 9.962-5.798 2.737-11.02 6.447-15.53 11.084-9.829 10.049-15.719 23.607-16.59 38.186-.44 7.499-2.56 24.577-3.45 31.566-1.55 12.159-8.19 22.908-18.23 29.497-21.66 14.219-40.47 31.916-55.929 52.604-12.35 16.538-22.56 34.956-30.339 54.754-5.09 12.909-9.07 26.157-11.83 39.366-2.19 10.439-2.96 17.858-3.19 20.558l-47.67 175.86c-.83 3.049-.19 6.239 1.74 8.739 1.91 2.46 4.79 3.88 7.91 3.88h.1l76.969-.81c4.9-.05 9.01-3.609 9.77-8.449l17.13-109.108c16.19-6.381 31.687-13.609 46.253-21.557l14.602 16.991c-5.652 2.383-10.778 4.693-11.782 5.147-5.032 2.277-7.265 8.201-4.988 13.231 1.672 3.694 5.309 5.88 9.117 5.88 1.378 0 2.779-.287 4.117-.892 6.749-3.053 18.988-8.33 23.097-9.492 8.745-2.472 24.935-3.854 31.332.117 1.281.795 1.496 1.446 1.618 2.099 1.013 5.429 6.234 9.004 11.664 7.996 5.429-1.013 9.009-6.235 7.996-11.663-1.209-6.483-4.92-11.816-10.731-15.423-12.344-7.659-31.129-5.603-40.904-3.79l-17.563-20.436c15.758-9.758 30.33-20.466 43.341-31.901 2-1.77 3.2-4.2 3.38-6.869.17-2.67-.71-5.239-2.47-7.239-1.9-2.16-4.64-3.4-7.52-3.4-2.43 0-4.77.88-6.59 2.48-11.56 10.159-24.243 19.595-37.971 28.28-3.94 2.493-20.099 11.802-23.895 13.804-13.996 7.38-28.886 14.078-44.632 20.049-3.35 1.27-5.77 4.26-6.33 7.799l-16.71 106.438-55.289.58 13.884-51.218s10.651-21.804 13.705-27.134c18.709-32.647 50.182-61.6 80.76-89.73 26.022-23.939 52.93-48.692 72.778-76.174 27.751-38.423 18.649-65.011 6.128-80.547-.409-.507-.826-1.007-1.249-1.497-7.465-8.652-17.553-13.902-28.227-15.513 3.319-6.402 5.552-13.418 6.488-20.784 1.3-10.279 3.09-24.867 3.57-32.896.035-.598.084-1.192.144-1.784.163.285.319.571.49.856 3.022 5.028 7.265 8.312 12.024 10.386-3.956 37.526 3.242 63.852 21.439 78.277 12.909 10.233 27.27 21.612 45.344 23.747-.387 12.299-3.882 26.023-10.181 39.872-1.11 2.429-1.2 5.14-.271 7.649.94 2.5 2.801 4.479 5.23 5.589 1.31.6 2.7.9 4.13.9 3.92 0 7.49-2.3 9.11-5.86 7.96-17.528 12.01-34.486 12.019-50.424 0-2.852-.137-5.646-.4-8.383v-.001c-.766-7.953-2.638-15.404-5.599-22.232-4.979-11.479-7.5-24.727-7.5-39.375 0-5.917.418-12.134 1.253-18.857 2.718-1.258 4.649-2.461 5.474-3.009 74.553-44.863 133.678-45.424 136.106-45.424h.073c3.277.052 6.469-1.554 8.371-4.288 1.901-2.738 2.317-6.239 1.108-9.343zm-199.055 33.424c-8.17 1.392-18.804 1.589-21.534-2.953-2.24-3.727-2.823-6.79-1.948-10.24.861-3.396 3.86-9.365 13.53-17.517 9.436 10.861 10.381 23.49 9.952 30.71zm-36.282 90.534c.277.321.549.647.817.98 11.859 14.715 9.582 33.655-6.768 56.293-18.664 25.843-44.815 49.9-70.105 73.165-21.752 20.01-43.931 40.423-62.235 62.635 0 0 12.216-45.887 12.226-46.017.07-1.05 1.99-26.217 14.92-57.713 16.188-39.432 41.689-70.981 75.752-93.851 11.449-7.564 26.624-5.653 35.393 4.508zm29.382-69.698c4.263-.166 8.224-.722 11.418-1.324 6.291 7.899 13.413 11.072 18.733 12.305 1.396.324 2.774.537 4.131.671-.425 4.624-.713 9.679-.713 15.006 0 7.939.65 15.638 1.91 22.857 1.51 8.619 3.94 16.848 7.24 24.467.564 1.305 1.058 2.657 1.514 4.035-9.505-2.671-18.673-9.436-30.122-18.511-14.259-11.305-16.473-35.516-14.111-59.506zm49.755-12.205c-.181.109-.297.182-.471.302-2.113 1.415-8.873 4.778-14.705 3.382-3.087-.741-5.79-2.794-8.215-6.196 1.218-9.081 1.952-30.17-13.003-48.445.994-.61 2.009-1.225 3.069-1.851 27.483-16.21 88.45-33.171 132.025-18.091 14.023 4.853 24.816 12.732 32.232 23.502-24.134 2.706-72.965 12.46-130.932 47.397z"/></g></g></svg>