<svg id="Layer_1" enable-background="new 0 0 512 512" height="512" viewBox="0 0 512 512" width="512" xmlns="http://www.w3.org/2000/svg"><g><path d="m143.797 474h224.406l29.921-260-142.124-133-142.124 133z" fill="#ffda8f"/><ellipse cx="256" cy="256" fill="#89a7bc" rx="49.868" ry="50"/><g fill="#ffda8f"><path d="m422.857 187.944-147.268-137.484h-39.178l-147.268 137.484c-12.569 11.734-10.238 32.302 4.638 40.913l4.636 2.684 157.583-145.101 157.583 145.1 4.636-2.684c14.875-8.61 17.207-29.178 4.638-40.912z"/><path d="m256.872 10h-.108c-10.987 0-19.893 8.906-19.893 19.893v20.107h39.894v-20.107c.001-10.987-8.906-19.893-19.893-19.893z"/><path d="m121.356 502v-17.055c0-12.672 10.273-22.945 22.945-22.945h223.398c12.672 0 22.945 10.273 22.945 22.945v17.055z"/></g><g><circle cx="387.706" cy="304.53" r="10"/><path d="m315.868 256c0-33.084-26.857-60-59.868-60s-59.868 26.916-59.868 60 26.857 60 59.868 60 59.868-26.916 59.868-60zm-59.868 40c-21.984 0-39.868-17.944-39.868-40s17.885-40 39.868-40 39.868 17.944 39.868 40-17.884 40-39.868 40z"/><path d="m429.681 180.634-142.916-133.422v-17.264c0-16.513-13.434-29.948-29.947-29.948s-29.947 13.435-29.947 29.948v15.737l-144.552 134.949c-8.332 7.778-12.372 18.74-11.084 30.074 1.287 11.328 7.679 21.098 17.536 26.804l4.636 2.684c3.788 2.192 8.563 1.667 11.783-1.298l1.342-1.236 24.963 216.929c-11.823 5.007-20.139 16.728-20.139 30.354v17.055c0 5.523 4.477 10 10 10h269.287c5.523 0 10-4.477 10-10v-17.055c0-13.629-8.319-25.352-20.145-30.357l11.994-104.208c.31-2.65-.44-5.27-2.1-7.36s-4.04-3.41-6.69-3.72c-.38-.04-.77-.06-1.16-.06-5.07 0-9.34 3.8-9.92 8.85l-11.949 103.91h-209.344l-26.589-231.104 131.26-120.862 131.263 120.865-4.35 37.781c-.3 2.66.44 5.27 2.1 7.36 1.66 2.1 4.04 3.42 6.69 3.72.39.05.78.07 1.16.07 5.08 0 9.34-3.81 9.92-8.86v-.01l2.68-23.304 1.348 1.241c1.893 1.744 4.324 2.644 6.776 2.644 1.718 0 3.446-.442 5.007-1.345l4.636-2.684c9.857-5.707 16.249-15.476 17.536-26.804 1.286-11.334-2.753-22.296-11.085-30.074zm-285.381 291.366h223.4c7.138 0 12.944 5.807 12.944 12.945v7.055h-249.288v-7.055c0-7.138 5.807-12.945 12.944-12.945zm102.571-442.052c0-5.485 4.462-9.948 9.947-9.948s9.947 4.462 9.947 9.948v10.052h-19.895v-10.052zm174.022 178.501c-.49 4.309-2.661 8.102-6.044 10.664l-152.076-140.029c-1.914-1.762-4.344-2.644-6.773-2.644-2.43 0-4.859.881-6.773 2.644l-152.076 140.029c-3.384-2.562-5.554-6.355-6.044-10.664-.565-4.975 1.206-9.785 4.86-13.196l144.386-134.794h31.294l144.387 134.794c3.653 3.412 5.425 8.221 4.859 13.196z"/><path d="m236.053 350c-5.523 0-10 4.477-10 10s4.477 10 10 10h39.894c5.523 0 10-4.477 10-10s-4.477-10-10-10z"/></g></g></svg>