<svg id="Layer_1" enable-background="new 0 0 512 512" height="512" viewBox="0 0 512 512" width="512" xmlns="http://www.w3.org/2000/svg"><g><path d="m478.664 151.11c0-20.771-18.555-37.61-38.985-37.61-33.577 0-59.729 8.99-68.8 13.641-98.88 50.693-137.884 96.792-161.373 116.56-15.644 13.166-45.156 36.812-45.156 36.812-18.194 45.665 164.075 55.784 238.336 23.737 47.786-20.621 56.247-56.859 54.95-83.602-.829-17.099 3.178-34.255 12.649-48.41 4.031-6.022 8.379-13.295 8.379-21.128z" fill="#89a7bc"/><path d="m478.664 151.113c0 7.832-2.356 15.098-6.385 21.128-8.366 12.488-14.456 27.32-14.73 42.395-19.768-9.04-34.5-19.082-45.475-29.102-27.612-25.21-10.303-71.872 26.837-72.033.256-.001.512-.002.768-.002 20.431.001 38.985 16.844 38.985 37.614z" fill="#c5d3de"/><path d="m416.577 322.783c-89.075 41.614-228.448 49.867-406.576-47.275 0 0 39.615 3.681 82.232 6.848 12.605.937 78.142 9.587 184.303-16.738 41.602-10.316 67.286-61.503 122.39-73.765 53.154-11.828 90.833 57.077 55.305 102.162-8.583 10.891-20.721 20.861-37.654 28.768z" fill="#c5d3de"/><g><path d="m511.704 162.603c-3.577-14.444-14.577-19.906-24.148-21.324-4.81-21.28-24.058-37.779-47.877-37.779-18.181 0-31.679 1.957-45.911 5.35-14.81 3.55-23.55 7.41-27.45 9.39-21.72 11.14-42.25 22.93-61.009 35.05-2.24 1.45-3.79 3.69-4.35 6.3s-.07 5.28 1.38 7.53c1.85 2.86 4.99 4.57 8.41 4.57 1.92 0 3.79-.55 5.42-1.6 18.2-11.76 38.14-23.22 59.27-34.05 2.756-1.428 9.842-4.369 19.897-6.974-1.236 2.212-2.334 4.543-3.276 6.989-6.019 15.62-4.215 32.573 4.3 46.13-31.973 7.231-54.617 26.45-74.602 43.417-15.828 13.438-30.778 26.131-47.628 30.31-28.29 7.015-55.678 12.037-82.025 15.055 8.295-6.736 48.605-42.346 53.975-47.196 4.1-3.7 4.43-10.03.73-14.13-1.89-2.09-4.6-3.3-7.43-3.3-2.47 0-4.85.92-6.69 2.58-5.63 5.08-75.4 64.51-75.76 64.907-20.895.986-41.043.615-60.359-1.134-1.469-.133-85.249-7.105-85.644-7.142-4.723-.443-9.106 2.502-10.491 7.041-1.384 4.538.612 9.424 4.778 11.696 107.165 58.443 196.783 77.45 267.516 77.924l26.534 26.289h-14.398c-5.523 0-10 4.477-10 10s4.477 10 10 10h92.845c5.523 0 10-4.477 10-10s-4.477-10-10-10h-50.03l-27.318-27.065c52.684-3.337 93.077-16.805 120.445-29.591 17.16-8.013 31.048-18.658 41.278-31.64 10.223-12.973 15.769-28.491 16.039-44.876.231-13.986-3.511-28.228-10.574-40.409.001-.084.003-.168.004-.252.314-14.845 7.253-28.232 13.038-36.869 3.283-4.914 5.603-10.34 6.889-16.039 2.125.88 4.042 2.552 4.81 5.652 1.127 4.554 5.209 7.599 9.699 7.599.796 0 1.604-.096 2.412-.296 5.359-1.33 8.629-6.752 7.301-12.113zm-100.983-19.358c3.59-9.314 12.632-19.721 27.339-19.721 11.271 0 16.358 2.996 21.898 8.256 5.62 5.33 8.71 12.2 8.71 19.33 0 2.07-.6 4.48-1.81 7.16-1.02 2.3-2.58 4.97-4.88 8.41-5.565 8.321-9.573 17.695-11.939 27.733-8.072-6.438-17.305-10.755-27.122-12.7-1.404-1.174-2.78-2.358-4.1-3.563-11.752-10.729-11.887-25.066-8.096-34.905zm35.655 144.58c-8.278 10.505-19.728 19.218-34.031 25.897 0 0-.001.001-.002.001-57.699 26.957-176.76 56.917-351.5-23.787 9.679.788 32.585 2.554 33.923 2.675 55.631 5.04 117.597-.777 184.177-17.288 21.404-5.308 38.091-19.476 55.758-34.475 19.194-16.296 39.042-33.147 66.397-39.234 18.964-4.22 36.956 3.866 48.124 21.632 9.834 15.645 14.99 41.946-2.846 64.579z"/><path d="m273.949 197.55c2.2 0 4.3-.71 6.06-2.06 2.12-1.62 3.49-3.98 3.84-6.62.35-2.65-.35-5.28-1.97-7.4-1.91-2.49-4.81-3.92-7.95-3.92-2.21 0-4.31.71-6.07 2.06-2.12 1.62-3.48 3.97-3.84 6.62-.35 2.65.35 5.27 1.98 7.39 1.9 2.5 4.8 3.93 7.95 3.93z"/><circle cx="439.682" cy="155.588" r="10"/></g></g></svg>