<svg id="Layer_1" enable-background="new 0 0 512 512" height="512" viewBox="0 0 512 512" width="512" xmlns="http://www.w3.org/2000/svg"><g><path d="m426.629 52.32c1.48 8.7 4.42 21.82 10.23 40.33 12.29 39.14 14.39 59.67 10.53 79.29-27.78 141.32-186.761 136.61-186.761 136.61l-114.19-13.47c-65.71-5.48-117.37 5.49-117.37 5.49-20.57-85.76 69.05-138.61 69.05-138.61 126.4-73.13 242.771-1 266.181 2.66 23.4 3.66 33.12-6.32 34.45-30.58 1.34-24.27-17.62-56.92-7.02-94.07 9.77-34.24 43.1-31 52.15-28.59 10.77 2.88 20.07 8.93 20.07 19.95 0 11.01-8.99 19.94-20.07 19.94-3.09 0-6.39-1.67-9.34-3.8-3.66-2.64-8.67.41-7.91 4.85z" fill="#d0a09d"/><path d="m291.648 462.86c-9.03 9.47-29.34-4.99-29.34-4.99-14.55 8.23-13.8-6.23-14-10.22s-7.57-28.92-34.16-46.37c-26.58-17.45-33.1-32.24-33.1-32.24-19.4 21.28-10.37 16.29-19.73 57.17-9.36 40.89 17.72 44.54 17.72 44.54 37.74 4.98 42.14 20.28 35.78 21.61-6.35 1.33-24.75.01-24.75.01l-6.35 9.63s-58.48-11.3-55.13-27.92c3.34-16.62-4.26-58.59-5.69-78.11-1.96-26.86 26.38-60.83 26.38-60.83-10.37-24.6-2.84-40.06-2.84-40.06l114.19 13.47-40.71 36.59s3.76 25.93 27.08 36.15c23.33 10.22 33.08 56.89 33.08 56.89 13.05 13.46 11.57 24.68 11.57 24.68z" fill="#e5c9c9"/><g><path d="m494.546 54.763c-5.636-9.28-14.642-16.657-20.709-20.945.068-.824.112-1.653.113-2.489.01-4.1-.891-8.15-2.61-11.7-2.29-4.75-5.98-8.79-10.97-11.99-3.94-2.53-8.49-4.46-13.91-5.92-2.95-.78-7.851-1.71-14.47-1.72-10.37.02-19.671 2.38-27.641 7.03-10.609 6.11-18.51 16.84-22.24 30.2-2.399 8.41-3.619 17.35-3.619 26.58.01 13.9 2.954 26.249 5.409 38.9 1.484 7.648 4.934 27.29 4.86 30.78-.248 11.762-3.49 16.39-4.71 17.85-1.1 1.35-2.16 2.14-3.79 2.83-3.25 1.35-8.21 1.54-14.42.57-1.22-.13-16.29-5.71-18.57-6.61-19.739-7.79-49.58-19.57-86.42-25.38-2.87-.45-5.82.38-8.03 2.25-1.82 1.55-3.04 3.71-3.41 6.07-.86 5.45 2.87 10.58 8.32 11.44 27.511 4.34 50.74 12.29 65.82 17.9 6.14 2.28 34.44 13.28 39.2 14.09 3.68.57 7.02.85 10.22.85 5.65 0 10.54-.88 14.93-2.69 6.71-2.69 12.431-8.2 15.7-15.09 2.96-6.12 5.031-13.405 5.13-22.98.062-6.048-5.004-34.921-5.319-36.32-2.458-10.92-4.931-22.56-4.92-34.46 0-7.47.939-14.37 2.85-21.09 3.33-11.32 8.77-15.8 13.13-18.44 6.3-3.73 13.62-4.28 17.43-4.28 0 0 8.091.68 9.4 1.04 4.22 1.11 7.97 2.88 10.03 4.75.93.83 1.56 1.63 1.989 2.51.44.95.62 1.82.631 3.03-.011 5.46-4.52 9.92-10.04 9.94-.36-.08-1.92-.7-3.521-1.91-2.5-1.82-5.689-2.87-8.74-2.87h-.08c-3.869.01-7.55 1.48-10.359 4.13-2.94 2.73-4.68 6.77-4.66 10.8 0 .88 5.76 28.29 10.77 44.23 8.19 26.05 11.841 44.05 11.82 58.34 0 5.49-.5 10.58-1.56 16.02-5.721 28.97-17.181 52.68-35.03 72.47-20.11 22.28-48.93 38.93-83.34 48.13-27.52 7.38-50.33 7.96-56.66 7.96 0 0-111.883-15.57-153.529-15.02-32.897.434-59.22 3.41-72.01 5.45-.67-4.62-1.01-9.27-1.01-13.85 0-14.59 3.46-29.1 10.26-43.13 9.75-20.11 24.77-35.78 35.66-45.38 6.21-5.5 21.24-16.04 21.24-16.04 21.92-12.68 45.02-21.61 68.68-26.54 2.62-.55 4.86-2.08 6.32-4.31 1.47-2.24 1.97-4.91 1.43-7.52-.96-4.62-5.08-7.96-9.78-7.96-.69 0-1.38.07-2.05.21-25.76 5.37-50.87 15.06-74.65 28.82l-.07.05c-.02.01-.05.03-.11.06-3.3 2-20.65 12.91-38.21 31.85-11.14 12.03-20.03 24.82-26.45 38.03-8.151 16.761-12.281 34.211-12.271 51.861 0 9.16 1.12 18.5 3.34 27.75 1.09 4.52 5.08 7.67 9.71 7.67.7 0 5.297-.861 8.661-1.428 11.608-1.956 37.702-5.592 71.249-5.592h.06c8.406 0 16.779.251 25.03.714-.724 7.279-.261 17.193 3.862 29.15-8.351 11.078-26.791 38.578-24.988 63.288.451 6.15 1.476 14.342 2.562 23.015 2.24 17.889 5.308 42.388 3.298 52.388-.931 4.619.068 9.286 2.891 13.497 10.429 15.559 48.672 24 60.145 26.217.633.123 1.269.182 1.898.182 3.318 0 6.475-1.656 8.347-4.496l3.171-4.808c6.705.326 16.424.542 21.627-.548 6.338-1.325 10.595-6.79 10.352-13.289-.397-10.595-12.883-23.506-46.694-28-.578-.118-4.968-1.145-7.949-5.664-3.707-5.618-4.228-14.87-1.507-26.753 3.242-14.158 4.342-22.913 5.145-29.305.862-6.857 1.213-9.654 4.048-13.738 5.583 6.561 14.512 15.123 28.403 24.242 23.957 15.722 29.679 39.103 29.685 39.303.122 4.394.407 14.683 8.85 19.452 4.14 2.338 8.915 2.606 14.252.81 12.19 7.102 27.73 10.736 37.436.555 1.462-1.533 2.399-3.492 2.677-5.592.207-1.568 1.529-15.226-12.321-30.814-2.76-11.574-13.709-50.482-38.229-61.223-12.521-5.487-17.861-16.971-19.965-23.547l33.417-30.035c6.506-.103 17.912-.645 32.116-2.809 21.029-3.2 40.91-8.8 59.109-16.62 24.601-10.61 45.36-25.16 61.7-43.23 20.11-22.21 33.5-49.81 39.81-82.02 1.31-6.65 1.939-13.15 1.939-19.88-.02-16.67-3.83-35.91-12.74-64.34-3.35-10.67-6.029-20.47-7.96-29.14 1.83.5 3.61.75 5.44.76 8.02 0 15.56-3.11 21.24-8.75.045-.045.087-.092.131-.137 4.364 3.41 9.284 7.958 12.202 12.762 1.882 3.099 5.178 4.811 8.557 4.811 1.768 0 3.56-.469 5.182-1.454 4.721-2.87 6.224-9.021 3.357-13.741zm-251.561 335.687c13.498 5.913 23.913 33.674 27.304 49.775.388 1.853 1.292 3.557 2.609 4.916 3.903 4.026 6.08 7.631 7.291 10.458-3.407-.943-8.102-3.071-12.082-5.876-2.867-2.042-6.571-2.411-9.761-1.036-.003-.111-.034-1.187-.052-1.539-.399-7.968-10.305-35.621-38.659-54.228-12.505-8.21-20.083-15.686-24.422-20.853l18.975-11.671c4.282 10.024 12.687 22.993 28.797 30.054zm-29.055-53.374s-31.544 17.425-40.427 25.397c-7.112 6.383-15.269 19.317-17.136 34.169-.75 5.973-1.779 14.153-4.797 27.336-4.113 17.969-2.516 32.396 4.748 42.879 8.111 11.707 20.05 13.623 21.412 13.806 3.971.524 7.47 1.164 10.541 1.869-2.648.484-5.031 2.026-6.551 4.333l-2.575 3.904c-4.362-1.019-10.454-2.565-16.764-4.557-17.454-5.509-22.518-9.936-23.771-11.347 2.258-13.427-.678-36.875-3.278-57.634-1.053-8.411-2.048-16.355-2.46-21.989-1.361-18.646 16.929-45.088 24.085-53.696 2.396-2.873 2.989-6.843 1.536-10.291-4.684-11.111-5.085-19.736-4.516-25.214l83.525 9.85z"/><circle cx="214.459" cy="129.36" r="10"/></g></g></svg>