<svg id="Layer_1" enable-background="new 0 0 512 512" height="512" viewBox="0 0 512 512" width="512" xmlns="http://www.w3.org/2000/svg"><g><path d="m438.861 76.704c.765-.626 1.507-1.293 2.221-2.005 11.741-11.712 11.741-30.702 0-42.414s-32.78-11.712-44.521 0-11.573 28.877-2.004 42.414c5.63 7.964 25.935 46.107-2.459 38.442-28.394-7.664-84.996-59.945-221.804 22.66-24.787 14.966-48.1 35.992-86.851 76.645-20.182 21.173-85.515 71.979-71.485 92.64s30.064 11.33 30.064 11.33 123.2-59.335 193.745-46.986c10.569 1.85 39.417 16.995 39.417 16.995s77.194-77.427 112.906-96.639c15.258-8.208 84.179-26.22 50.775-113.081z" fill="#fff"/><path d="m271.359 206.54c-12.21 7.27-25.96 13.3-41.42 17.46-107.629 29-186.458 42.17-217.978 81.09-14.03-20.67 51.3-71.47 71.48-92.64 38.75-40.66 62.07-61.68 86.85-76.65-.001 0-32.561 89.28 101.068 70.74z" fill="#a0c8ff"/><path d="m296.675 90.064c30.953-1.801 50.87 32.541 33.878 58.476-13.725 20.947-32.874 42.349-59.183 58h-.01c-133.63 18.54-101.07-70.74-101.07-70.74 53.26-32.158 94.366-43.873 126.385-45.736z" fill="#fff"/><g><path d="m511.088 125.968c-15.118-32.974-39.945-51.426-53.38-59.486 1.429-4.153 2.184-8.541 2.18-12.992 0-5.18-.99-10.24-2.939-15.05-2.03-4.98-4.99-9.43-8.801-13.24-3.89-3.85-8.51-6.83-13.729-8.84-4.93-1.89-10.17-2.86-15.6-2.86-5.42 0-10.67.97-15.6 2.86-5.22 2.01-9.84 4.99-13.72 8.85-3.91 3.86-6.931 8.37-8.99 13.4-1.99 4.86-2.979 9.96-2.96 15.16.01 9.3 3.06 18.53 8.84 26.7 1.09 1.52 4.11 6.55 6.48 11.86 1.25 2.77 3.67 10.44 3.84 11.61-.63-.11-15.67-5.91-16.23-6.16-15.979-7.17-40.12-17.99-74.239-17.99h-.29c-9.221 0-18.841.79-28.57 2.35-10.56 1.69-21.58 4.33-32.77 7.86-24.8 7.83-51.54 20.36-79.479 37.24-24.849 15.01-48.12 35.51-88.929 78.31-4.17 4.38-44.04 41.09-55.27 53.79-6.33 7.17-10.88 13.19-14.309 18.95-3.221 5.52-6.53 12.21-6.62 20.1-.04 4.44 1.27 8.81 3.689 12.32 4.23 6.24 9.141 10.93 14.591 13.92 5.8 3.21 11.22 3.89 14.75 3.89h.079c6.46-.05 11.12-1.98 13.32-3.13.14-.07 31.91-14.82 64.83-26.14 28.43-9.81 69.389-21.51 103.049-21.51h.25c7.09 0 13.677.329 19.48 1.54 4.647.97 29.2 12.288 30.12 12.749l-13.316 83.322c-.151.948-.165 1.912-.042 2.864l13 100.285h-18.887c-5.522 0-10 4.477-10 10s4.478 10 10 10h80.356c5.522 0 10-4.477 10-10s-4.478-10-10-10h-41.302l-13.148-101.421 13.723-85.866c.101-.1.197-.196.304-.302 5.7-5.64 17.4-17.1 31.73-30.44 4.029-3.76 4.25-10.1.489-14.14-1.88-2.02-4.55-3.18-7.31-3.18-2.54 0-4.96.95-6.82 2.68-13.17 12.27-24.22 23.05-29.659 28.4-3.29-1.65-29.155-13.48-35.79-14.65-6.978-1.231-14.69-1.84-22.931-1.84-17.22.03-37.21 2.67-59.389 7.86-17.37 4.06-36.55 9.8-57.03 17.06-32.87 11.69-60.92 24.99-60.92 24.99-.01 0-2.08.87-4.03.87h-.08c-1.229-.02-2.939-.19-5.189-1.41-.873-.486-1.728-1.09-2.572-1.795 26.184-25.204 79.313-38.765 150.894-57.017 17.947-4.577 36.505-9.309 56.295-14.641 15.485-4.167 30.224-10.377 43.816-18.455.042-.024.087-.043.128-.068 24.351-14.486 45.357-35.048 62.435-61.114 9.89-15.094 10.439-34.182 1.466-49.879 6.193 1.606 33.706 12.689 33.706 12.689 5.29 2.35 10.28 4.57 15.4 5.96 3.43.93 6.34 1.36 9.159 1.36 2.74 0 5.181-.43 7.44-1.3 3.64-1.34 6.95-4.29 8.64-7.71 1.44-2.8 2.11-5.81 2.13-9.48-.02-3.43-.59-6.89-1.85-11.24-1.38-4.65-3.39-9.54-6.14-14.97-2.11-4.16-4.301-7.89-6.15-10.52-3.34-4.73-5.17-10.11-5.17-15.16.05-5.61 2.04-10.32 6.07-14.41 3.649-3.67 9.319-5.86 15.18-5.86h.05c5.851 0 11.52 2.19 15.17 5.86 3.77 3.77 5.86 8.79 5.87 14.13-.01 5.34-2.1 10.36-5.87 14.13-.479.47-.979.93-1.479 1.34-3.271 2.67-4.51 7.13-3.101 11.1.061.16 8.45 27.87 8.45 39.3-.01 10.11-2.1 18.83-6.37 26.66-4.979 9.09-12.87 16.72-24.139 23.31-4.87 2.86-30.349 15.28-34.03 17.72-4.6 3.05-5.85 9.27-2.8 13.86 1.85 2.8 4.97 4.47 8.34 4.47 1.96 0 3.87-.58 5.52-1.67 3.13-2.08 37.729-18.2 49.929-29.44 7.15-6.59 12.75-14.14 16.65-22.44 4.59-9.74 6.909-20.66 6.899-32.47 0-9.942-1.649-20.702-4.915-32.087 11.71 8.073 28.978 23.131 39.936 47.03 1.683 3.67 5.307 5.835 9.096 5.835 1.395 0 2.812-.293 4.162-.912 5.021-2.303 7.224-8.239 4.923-13.259zm-339.786 102.949c-58.062 14.805-104.553 26.661-136.458 44.892 8.68-10.001 19.859-20.648 28.766-28.929 2.87-2.67 22.32-20.56 27.07-25.54 28.937-30.36 48.585-49 66.129-62.292-.093 11.548 2.449 25.335 12.052 37.222 10.009 12.391 25.596 20.151 46.583 23.245-15.286 4.041-29.913 7.774-44.142 11.402zm150.886-85.858c-14.99 22.879-33.22 40.985-54.211 53.848-42.064 5.553-70.91.339-83.487-15.114-10.858-13.341-7.602-32.043-5.723-39.405 44.147-26.168 84.115-40.392 119.007-42.354 10.49-.418 19.876 4.734 25.178 13.902 5.379 9.297 5.093 20.184-.764 29.123z"/><circle cx="343.317" cy="223.06" r="10"/></g></g></svg>