<svg id="Layer_1" enable-background="new 0 0 512 512" height="512" viewBox="0 0 512 512" width="512" xmlns="http://www.w3.org/2000/svg"><g><path d="m319.91 72.836s-24.369 53.645-45.221 67.182c-29.734 19.302-109.786 83.225-117.849 163.943 0 0-36.856 85.691-70.052 140.574-26.584 43.952-14.064 57.462-2.431 57.462 9.488 0 14.834.828 27.886-21.907 19.949-34.747 87.955-138.53 87.955-138.53s11.797 1.94 27.958-28.407c0 0 54.204 11.342 110.033-49.801 49.898-54.648 49.389-104.031 49.389-104.031l-9.575-44.871z" fill="#e5c9c9"/><path d="m369.282 108.845-48.209-52.035c-8.365 13.345-32.759 50.142-53.486 60.483-36.319 18.12-126.99 93.35-139.317 173.707 0 0 89.107-64.496 177.272-94.207s63.74-87.948 63.74-87.948z" fill="#d0a09d"/><path d="m400.176 93.893c0 14.864-12.599 65.427-12.599 65.427s-18.395-26.823-28.474-31.084c-20.493-8.664-41.829-13.787-39.561-39.356 3.172-35.774-11.088-78.88-11.088-78.88s91.722 31.418 91.722 83.893z" fill="#c5d3de"/><path d="m387.577 159.32s12.599-50.563 12.599-65.427c0-6.01-1.215-11.74-3.345-17.182-.397.045-.789.085-1.19.136-50.9 6.518-51.043 45.452-51.043 45.453 4.662 1.994 9.606 3.865 14.505 5.936 10.079 4.262 28.474 31.084 28.474 31.084z" fill="#fff"/><g><path d="m443.089 60.757c-18.483-3.951-32.804-1.107-41.959 2.258-23.727-39.519-86.182-61.361-89.435-62.475-3.591-1.231-7.57-.318-10.271 2.351-2.7 2.67-3.655 6.64-2.466 10.246.096.29 6.778 20.794 9.701 44.5-13.848 21.115-32.01 43.96-45.537 50.708-19.26 9.609-51.942 33.644-81.536 65.677-24.883 26.934-56.047 68.828-63.2 115.462-.611 3.985 1.231 7.948 4.672 10.05 1.605.98 3.41 1.466 5.212 1.466 2.062 0 4.12-.637 5.863-1.897.214-.155 5.616-4.039 14.887-10.232-.828 4.171-2.568 13.9-2.988 14.87-6.2 14.18-38.57 87.33-67.801 135.62-11.651 19.39-17.131 34.27-17.231 46.83-.06 7.85 2.49 14.71 7.17 19.319 4.39 4.36 9.474 5.857 13.204 6.313 1.096.134 4.915.178 4.915.178 2.27-.01 4.83-.02 7.9-.66 4.81-.939 9.84-3.85 13.8-7.989 4.06-4.131 7.92-9.601 12.92-18.28 10.19-17.75 33.46-54.311 51.201-81.861 7.92-12.32 31.36-48.38 34.06-52.51 3.34-1.03 6.66-2.83 9.86-5.36 6.08-4.76 11.84-11.8 17.6-21.52 1.73.109 3.55.16 5.39.16h.23c5.421 0 12.76-.486 21.467-2.238l-2.372 9.874c-.7 2.914-.056 5.989 1.755 8.378l11.381 15.01c-4.69 1.482-8.625 2.751-8.951 2.856-5.256 1.696-8.142 7.332-6.445 12.588 1.367 4.235 5.292 6.932 9.515 6.932 1.017 0 2.053-.157 3.073-.486.16-.052 25.446-7.891 27.215-8.455 3.847-1.227 12.785-4.078 15.326-3.014.126.216.37.777.558 1.786 1.013 5.429 6.237 9.011 11.665 7.996 5.429-1.013 9.009-6.234 7.997-11.664-1.622-8.694-6.26-13.089-9.865-15.244-9.164-5.477-20.731-2.385-29.735.443l-12.935-17.059 3.977-16.552c11.402-4.52 23.935-11.248 36.916-21.212 2.12-1.63 3.48-3.98 3.83-6.63s-.35-5.27-1.98-7.39c-1.91-2.49-4.8-3.92-7.94-3.92-2.22 0-4.32.72-6.08 2.069-25.355 19.394-48.157 24.911-64.033 25.794l5.728-12.165c2.353-4.997.209-10.955-4.788-13.308-5-2.351-10.954-.208-13.307 4.788l-11.95 25.381c-7.087 13.313-12.778 18.895-15.541 21.03-1.53 1.189-2.6 1.72-3.23 1.939-.05.021-.1.04-.14.051-3.43-.04-6.64 1.64-8.53 4.52l-.01.021c-.71 1.079-17.56 26.81-36.531 56.279-25.96 40.351-43.37 68.181-51.72 82.731-5.42 9.54-9.54 14.399-11.59 15.76-.93.64-4.067 1.051-5.523 1.088-1.004.025-2.88.174-3.846-.373-.128-.072-.637-.601-.814-.935-.361-.68-.764-1.951-.797-4.46-.05-2.95.84-14.32 14.34-36.481 13.94-23.05 30.07-53.93 47.96-91.77 12.7-26.87 21.71-47.691 22.7-49.971l.02-.06c.41-.94.67-1.94.77-2.96 1.101-11.206 3.76-22.025 7.433-32.306 33.823-21.005 84.575-49.546 134.511-66.374 32.635-10.998 54.75-27.112 65.824-47.938.966 1.291 1.925 2.602 2.866 3.924-.553 6.798-3.173 26.014-15.672 50.364-2.52 4.91-.57 10.95 4.33 13.47 1.43.73 2.96 1.101 4.56 1.101 3.77 0 7.18-2.08 8.9-5.44 15.976-31.14 17.808-55.05 18.007-61.104 2.172-8.793 12.625-51.89 12.625-66.753 0-4.277-.511-8.413-1.435-12.415 6.249-2.167 16.49-4.087 30.166-1.163 5.403 1.151 10.715-2.287 11.87-7.688 1.157-5.399-2.285-10.714-7.686-11.869zm-61.643 8.672c-28.083 7.44-39.338 25.164-43.841 38.046-6.535-4.347-8.857-9.203-8.102-17.711 1.957-22.068-2.205-46.312-6.072-62.861 19.666 9.106 44.93 24.073 58.015 42.526zm-23.142 76.666c-7.909 17.506-26.735 31.375-55.955 41.222-63.066 21.253-125.663 59.334-157.828 80.476 11.387-31.859 33.405-60.336 51.755-80.198 27.728-30.013 58.716-52.842 75.774-61.353 12.765-6.368 26.074-20.548 37.349-35.085-.825 27.526 21.141 36.347 38.924 43.48 2.27.91 9.719 4.669 11.806 6.706-.503 1.561-1.099 3.146-1.825 4.752zm24.416-9.704c-6.281-7.433-13.592-14.773-19.722-17.365-2.439-1.03-4.873-2.007-7.227-2.951-.003-.001-.006-.004-.009-.005-.008-.004-.016-.007-.024-.01.783-2.765 2.099-6.156 4.313-9.608 5.94-9.262 15.885-15.449 29.608-18.445.336 1.938.517 3.9.517 5.886 0 6.994-3.6 25.322-7.456 42.498z"/><path d="m352.175 246.889c-1.79-1.479-4.05-2.3-6.36-2.3-3 0-5.81 1.32-7.72 3.63-1.7 2.061-2.5 4.66-2.25 7.311.25 2.66 1.53 5.06 3.59 6.77 1.78 1.48 4.05 2.29 6.36 2.29 3 0 5.81-1.319 7.72-3.62 0-.01 0-.01 0-.01 1.7-2.06 2.5-4.66 2.24-7.31-.251-2.66-1.52-5.061-3.58-6.761z"/></g></g></svg>