<svg id="Layer_1" enable-background="new 0 0 512 512" height="512" viewBox="0 0 512 512" width="512" xmlns="http://www.w3.org/2000/svg"><g><path d="m350.158 331.596c11.539 46.646 1.192 92.082-36.102 104.609-37.137 12.537-88.734-12.31-116.959-54.249-5.431-11.036-20.265-37.825-29.757-74.061-9.984-36.084-13.993-81.624-9.527-126.383 7.361-89.919 46.142-171.509 46.142-171.509s4.926 18.301 17.472 44.773c12.156 26.54 31.922 61.475 50.558 96.418 3.868 8.107-9.588 46.018-9.588 46.018s28.794-7.795 31.914-1.064c29.853 65.147 49.736 116.197 55.847 135.448z" fill="#fff"/><path d="m350.158 331.596c11.539 46.643 1.189 92.083-36.102 104.609-37.135 12.537-88.735-12.312-116.959-54.249-4.932-7.707-12.932-24.437-20.966-46.915 37.116 10.641 71.039 22.376 103.05 34.793 13.287-27.504 30.481-55.993 53.117-85.698 8.792 21.816 15.285 38.102 17.86 47.46z" fill="#b8ecbc"/><path d="m332.298 284.137c-22.635 29.705-39.83 58.193-53.117 85.698-32.011-12.417-65.934-24.152-103.05-34.793-6.886-19.38-13.609-43.084-17.377-69.147 32.259 10.494 62.699 21.64 90.935 33.575 14.536-25.867 33.061-52.634 55.323-79.997 10.912 24.485 19.906 46.488 27.286 64.664z" fill="#ffda8f"/><g><path d="m364.118 496.162c-10.885-15.141-23.174-33.947-35.816-55.363 3.665-2.055 7.118-4.467 10.327-7.231 5.96-5.14 10.97-11.39 14.88-18.55 3.74-6.83 6.58-14.51 8.44-22.83 1.77-7.93 2.67-16.52 2.68-25.53 0-12.07-1.6-24.67-4.77-37.47l-.17-.62c-3.479-10.94-10.51-29.619-19.29-51.25-10.71-26.389-23.519-55.92-37.01-85.359-1.28-2.8-3.359-4.53-4.47-5.3-2.51-1.71-4.79-2.33-6.89-2.75-1.841-.34-3.7-.5-6.051-.5-2.71.01-5.609.22-8.88.66 1.83-6.3 4.37-15.57 5.29-23.619.601-5.48-3.36-10.43-8.84-11.04-.37-.04-.74-.06-1.11-.06-5.1 0-9.37 3.82-9.93 8.9-.77 7.23-4.21 18.95-5.24 22.37-.92 3.05-4.29 13.24-4.3 13.25-1.24 3.51-.44 7.4 2.09 10.14 2.49 2.69 6.41 3.82 9.95 2.85 0 0 5.02-1.28 9.27-2.08 4.184-.8 8.221-1.296 10.987-1.362.209-.005 1.163-.007 1.373-.007 2.236 4.898 4.451 9.797 6.641 14.682-15.671 19.605-29.487 38.991-41.277 57.891-2.213-6.64-6.343-20.096-6.364-20.162-22.317-69.771-31.305-140.736-32.635-195.432 3.132 6.759 6.886 14.396 11.484 23.321 1.72 3.34 5.13 5.42 8.89 5.42 1.6 0 3.14-.37 4.57-1.11 4.9-2.53 6.84-8.57 4.32-13.47-4.77-9.26-11.8-24.06-11.8-24.06-6.3-13.28-10.58-24.39-13.06-31.369-1.4-3.96-3.8-11.72-3.8-11.72-.53-1.99-1.65-3.74-3.22-5.05-1.57-1.33-3.48-2.12-5.53-2.31-4.14-.38-8.16 1.93-9.94 5.67-.01.02-12.49 27.98-21.92 56.64-6.01 18.25-11.09 36.55-15.12 54.389-4.97 22.06-8.34 43.55-10.03 63.89-1.23 12.35-1.85 25.04-1.85 37.72.01 32.59 4.04 64.42 11.66 92.069.01.01.01.01.01.01 4.13 15.8 9.83 31.94 16.93 47.989 4.34 9.82 8.32 17.67 11.23 23.4.9 1.77 2.97 5.72 2.97 5.72 12.18 18.079 28.54 33.539 47.32 44.72 18.92 11.229 38.69 17.18 57.18 17.199 5.47 0 10.769-.539 15.842-1.593 13.424 22.874 26.682 43.201 38.738 59.971 1.953 2.718 5.018 4.164 8.128 4.164 2.021 0 4.062-.611 5.828-1.882 4.488-3.223 5.51-9.472 2.285-13.956zm-61.681-257.369c6.566 15.047 12.772 29.726 18.412 43.554 0 .112.013.213.047.298-15.867 21.24-29.452 42.407-41.173 64.158-6.75-15.116-13.173-30.642-19.069-46.385 11.49-19.947 25.5-40.608 41.783-61.625zm-136.437-20.444c0-12.06.59-24.12 1.76-35.84l.02-.18c3.709-45.459 15.824-88.759 25.343-117.089 1.376 47.033 8.396 118.247 33.436 196.574 1.988 6.685 4.099 13.35 6.301 19.991-20.128-7.952-41.753-15.765-64.64-23.33-1.462-13.129-2.225-26.666-2.22-40.126zm17.876 108.522c-.068-.198-.224-.378-.452-.543-2.445-7.037-4.597-14.042-6.415-20.969l-.03-.13c-2.151-7.763-4.004-16.016-5.547-24.59 25.228 8.546 48.774 17.378 70.28 26.34 5.682 15.262 11.831 30.288 18.29 44.945-25.534-9.355-50.655-17.628-76.126-25.053zm109.423 102.587h-.11c-14.64 0-31.28-5.109-46.849-14.39-15.83-9.399-30.24-22.95-40.58-38.159-.63-1.26-8.725-17.225-12.798-26.42 26.219 8.021 52.238 17.003 78.912 27.256 8.62 18.008 17.596 35.265 26.622 51.488-1.701.144-3.432.225-5.197.225zm25.017-6.005c-9.417-16.768-18.875-34.811-27.955-53.707 11.043-22.235 24.01-43.729 39.335-65.216 4.802 12.374 8.64 22.904 10.835 29.788 2.72 11.1 4.1 21.98 4.1 32.34.01 15.07-2.98 28.45-8.65 38.72-4.491 8.067-10.312 14.028-17.665 18.075z"/><circle cx="254.53" cy="118.84" r="10"/></g></g></svg>