<svg id="Layer_1" enable-background="new 0 0 512 512" height="512" viewBox="0 0 512 512" width="512" xmlns="http://www.w3.org/2000/svg"><g><path d="m310.146 455.525-33.693 2.598 10.216-57.04-42.395-1.799 1.321 81.781 57.543 20.935 28.408-20.325z" fill="#ffda8f"/><path d="m431.942 37c0-14.912-17.952-27-40.096-27-22.145 0-36.714 13.094-42.096 27-8.462 21.863-17.046 46.667-15.709 142 0 0-1.113 32-47.531 32-68.08 0-191.725 113.667-191.725 113.667s-42.755 15-53.782 39.667c0 0 61.147 2 98.57 23.333s148.2 54.432 202.487-4c14-15.068 53.295-62.667 53.295-62.667s33.08-26 19.046-81-43.605-108.5-22.554-176c22.143 0 40.095-12.088 40.095-27z" fill="#fff"/><g><path d="m476.149 35.095c-12.805-7.694-26.744-9.696-36.765-9.935-.607-1.364-1.311-2.699-2.125-3.99-4.16-6.57-10.5-11.84-18.849-15.66-7.931-3.6-17.11-5.5-26.56-5.51h-.1c-12.28 0-23.69 3.5-33.009 10.12-8.381 5.94-14.71 13.99-18.32 23.27-4.11 10.6-8.39 22.51-11.42 41.21-3.431 21.03-5.101 48.97-5.101 85.43 0 6.05.04 12.33.131 18.65-.021.26-.65 6.42-5.58 11.8-2.721 2.98-6.17 5.28-10.52 7.03-5.79 2.32-13 3.49-21.42 3.49-9.43.04-19.5 1.79-30.79 5.34-9.8 3.08-20.4 7.49-32.389 13.49-26.91 13.56-57.87 34.09-92.029 61.02-21.45 16.93-37.42 31.15-41.82 35.12-4.25 1.63-12.819 5.17-22.38 10.58-7.71 4.37-14.13 8.84-19.639 13.66-7.32 6.45-12.42 13-15.59 20.04-1.36 3.05-1.12 6.56.649 9.39 1.77 2.82 4.82 4.58 8.15 4.69 0 0 3.531.155 6.504.368 6.704.479 18.071 1.538 31.185 3.783 13.29 2.25 38.28 7.56 56.26 17.87 13.09 7.45 30.989 14.561 50.389 20.021 11.12 3.12 22.3 5.56 33.23 7.26 5.552.859 11.044 1.518 16.456 1.993l.898 55.604c.067 4.146 2.685 7.819 6.58 9.236l57.543 20.935c1.111.404 2.268.603 3.418.603 2.06 0 4.099-.636 5.819-1.867l28.409-20.325c2.249-1.608 3.731-4.076 4.095-6.817.363-2.74-.424-5.51-2.175-7.649l-21.401-26.149c-2.07-2.53-5.258-3.882-8.507-3.637l-20.802 1.604 4.477-24.992c4.138-.989 8.152-2.144 12.028-3.467 17.59-6.011 32.489-15.5 44.299-28.23 3.66-3.93 9.059-10.08 16.519-18.79 3.58-4.19 3.091-10.52-1.1-14.1-1.81-1.55-4.12-2.4-6.5-2.4-2.93 0-5.7 1.27-7.6 3.5-7.07 8.26-12.591 14.55-15.971 18.18-9.67 10.4-21.489 17.89-36.12 22.91-13.04 4.471-28.05 6.74-44.609 6.74h-.11c-24.88 0-48.25-5.11-63.469-9.39-17.41-4.88-34.57-11.66-45.9-18.14-9.34-5.3-20.569-9.86-33.359-13.57-10.051-2.91-20.96-5.3-33.341-7.29-5.819-.92-11.8-1.71-17.769-2.34.2-.18 5.025-4.173 7.352-5.811 6.619-4.656 13.505-8.254 17.648-10.259 3.921-1.91 7.285-3.345 9.436-4.216 10.765 4.627 41.764 16.585 80.982 19.653 6.1.477 12.115.714 18.048.714 56.491 0 105.185-21.546 141.651-62.915 9.294-10.544 14.962-32.997 7.157-53.838-2.719-7.262-8.534-17.736-20.708-26.011 11.093-6.199 16.417-14.822 18.671-19.717 3.069-6.59 3.64-11.99 3.74-14.01l.01-.52c-.09-6.35-.141-12.69-.141-18.82 0-35.36 1.58-62.26 4.841-82.21 2.989-18.17 6.89-28.28 10.34-37.21 2.13-5.54 6.109-10.57 11.21-14.16 6.06-4.26 13.309-6.43 21.559-6.45h.11c8.47 0 16.939 2.32 22.649 6.2 2.49 1.68 4.471 3.62 5.71 5.61 1.101 1.77 1.61 3.42 1.62 5.19-.01 1.8-.51 3.4-1.62 5.19-1.89 3.08-5.609 6.03-10.199 8.1-5.24 2.39-11.721 3.71-18.23 3.71h-.04c-4.399 0-8.24 2.82-9.55 7.02-2.68 8.57-4.69 17.32-5.97 26.02-1.21 8.16-1.82 16.52-1.82 24.86.01 11.43 1.1 23.04 3.35 35.49 1.82 10.09 4.381 20.64 8.04 33.2 2.54 8.67 5.28 17.24 7.94 25.52 4.03 12.56 7.83 24.42 10.87 36.36 2.09 8.21 3.16 16.21 3.16 23.76 0 8.69-1.41 16.93-4.17 24.5-.91 2.51-.801 5.22.33 7.65 1.119 2.42 3.119 4.26 5.63 5.17 1.109.41 2.27.61 3.43.61 4.18 0 7.95-2.63 9.39-6.56h.011c3.569-9.78 5.38-20.33 5.38-31.37 0-9.21-1.271-18.87-3.78-28.7-3.28-12.83-7.36-25.55-11.309-37.85-2.601-8.09-5.28-16.47-7.681-24.7-4.93-16.87-10.59-39.29-10.59-63.08.01-13.15 1.64-25.69 4.98-38.32 9.84-1.08 18.93-4.26 26.29-9.19 4.84-3.27 8.71-7.16 11.479-11.56 1.519-2.41 2.68-4.967 3.468-7.6 7.05.367 16.672 1.931 25.122 7.009 1.612.969 3.388 1.43 5.141 1.43 3.395 0 6.706-1.729 8.581-4.851 2.848-4.739 1.316-10.882-3.418-13.727zm-207.113 429.736c2.077 2.296 5.105 3.498 8.185 3.263l28.491-2.197 11.338 13.854-15.445 11.05-46.123-16.779-.768-47.528c5.967-.023 11.771-.313 17.399-.866l-5.505 30.733c-.544 3.046.351 6.174 2.428 8.47zm51.129-185.11c-36.349 41.235-84.293 59.918-142.497 55.536-26.98-2.032-50.1-8.801-64.136-13.819 13.556-11.702 37.589-31.665 64.809-50.738 21.18-14.85 40.63-26.59 57.809-34.89 19.397-9.458 36.994-14.66 49.698-14.795 19.567 2.746 32.62 11.411 37.748 25.107 5.028 13.424 1.163 28.388-3.431 33.599z"/><circle cx="387.328" cy="330.68" r="10"/></g></g></svg>