<svg id="Layer_1" enable-background="new 0 0 512 512" height="512" viewBox="0 0 512 512" width="512" xmlns="http://www.w3.org/2000/svg"><g><path d="m331.08 142.602c-61.92-49.41-93.88 7.7-93.88 7.7s-38.22-.08-49.62-12.28-5.36-22.39-5.36-22.39-12.57-12.3-14.75-24.4c-1.82-10.05.85-26.47 9.71-39.66 12.71-18.91 36.51-28.33 36.51-28.33l24.22 13.69 18-26.93 21.46 24.08 28.57-18.92 2.095 6.299c6.91 20.772 16.774 40.447 29.275 58.418.064.092.127.183.19.273 9.18 13.221 19.73 34.83-6.42 62.45z" fill="#ffda8f"/><path d=""/><path d="m319.089 184.493-11.139 19.109s99.066 201.76-100.764 254.41c0 0-41.216 11.852-64.676-2.278l-84.01 45.046 40.57-51.26s12.74-45.59 61.69-91.82c0 0-26.82-6.42 21.46-46.23s54.31-54.58 52.3-86.04c-2.01-31.47 2.68-75.13 2.68-75.13s31.96-57.11 93.88-7.7c-.44 14.748-4.562 29.149-11.991 41.893z" fill="#e5c9c9"/><path d="m285.864 324.694c-29.999 65.227-65.481 91.751-227.364 176.08l40.566-51.252s12.748-45.586 61.699-91.821c0 0-26.827-6.414 21.454-46.224 8.535-7.042 15.76-13.297 21.844-19.022 18.772-8.409 36.481-11.441 59.318-11.441 17.261 0 25.756 13.017 27.017 19.95 1.67 9.186-2.012 18.243-4.534 23.73z" fill="#a0c8ff"/><g><path d="m460.314 178.353c-41.841-38.95-85.907-44.082-111.015-43.078 5.942-9.772 8.722-19.742 8.228-29.789-.665-13.53-7.155-24.329-11.913-31.181-11.97-17.209-21.484-36.14-28.09-56l-2.095-6.299c-.982-2.953-3.284-5.281-6.226-6.297-2.943-1.015-6.189-.604-8.784 1.115l-21.347 14.137-15.696-17.612c-2.059-2.311-5.073-3.552-8.158-3.322-3.087.214-5.901 1.846-7.621 4.419l-12.843 19.216-16.142-9.124c-2.63-1.486-5.791-1.706-8.601-.593-1.09.431-26.851 10.807-41.131 32.052-10.753 16.01-13.398 35.15-11.25 47.01 1.828 10.147 8.695 19.665 13.329 25.132-1.203 7.16.232 16.991 9.315 26.712 10.022 10.726 32.112 14.019 45.986 15.021-.967 11.426-2.236 29.891-2.236 48.073 0 6.62.82 24.17.82 26.69 0 5.93-.56 10.729-1.77 15.1-2.03 7.29-5.85 13.86-12.76 21.96-3.43 4.013-7.692 8.409-12.949 13.345-.051.046-20.517 17.906-21.507 18.723-24.866 20.504-35.04 36.137-32.018 49.196.457 1.971 1.184 3.73 2.1 5.288-39.014 39.818-52.909 77.39-55.876 86.539l-39.404 49.784c-2.928 3.699-2.872 8.941.134 12.577 1.953 2.362 4.806 3.63 7.712 3.63 1.567 0 3.15-.369 4.616-1.132 30.307-15.788 56.664-29.778 79.626-42.566 8.343 3.711 18.289 5.535 30.406 5.585 17.09-.029 32.3-3.81 36.55-4.97l10.939-3.011c-2.621 4.661-1.11 10.56 3.429 13.388l22.359 13.929h-.729c-5.523 0-10 4.478-10 10s4.477 10 10 10h79.05c5.523 0 10-4.478 10-10s-4.477-10-10-10h-40.501l-41.492-25.851 7.046-12.533c2.164-.982 4.303-1.981 6.386-3.014 13.15-6.52 24.99-14.19 35.18-22.82 18.61-15.72 32.33-35.029 40.8-57.38 1.95-5.16-.65-10.939-5.8-12.899-1.15-.431-2.34-.65-3.55-.65-4.13 0-7.89 2.59-9.35 6.45 0 .01-.01.01-.01.02-7.38 19.391-18.83 35.48-35.01 49.19-18.66 15.779-43.663 27.88-73.993 35.88-.14.04-15.267 4.27-31.137 4.27 0 0-3.457-.044-5.05-.139 23.982-14.05 43.531-26.745 59.471-39.033 36.493-28.129 52.771-53.232 67.206-84.618 0-.001.001-.002.001-.003 3.287-7.151 7.411-18.011 5.285-29.696-2.127-11.693-14.968-28.16-36.856-28.16-10.686 0-20.246.672-29.193 2.096 3.78-5.94 6.467-11.865 8.166-18.056 1.71-6.16 2.5-12.65 2.49-20.42 0-2.95-.82-20.49-.82-26.69-.01-14.2 2.82-53.58 2.89-54.3 1.47-2.16 4.61-6.38 9.2-10.38 8.23-7.15 17.35-10.78 27.12-10.79 11.52.02 24.15 5.01 37.54 14.83-1.06 11.269-4.63 22.38-10.32 32.149l-11.14 19.11c-1.69 2.9-1.82 6.43-.34 9.45 0 0 .03.06.13.27.62 1.28 15.28 31.96 21.05 71.28.35 2.39 1.56 4.57 3.39 6.14 2.19 1.87 5.11 2.721 7.96 2.29 2.65-.38 4.98-1.779 6.57-3.92 1.6-2.149 2.26-4.78 1.87-7.43-5.07-34.18-16.19-62.049-20.75-72.48l8.53-14.63c6.001-10.293 10.062-21.631 12.024-33.343 6.318-.846 17.056-1.633 30.251-.016 28.379 3.478 54.181 15.865 76.688 36.818 1.927 1.794 4.372 2.681 6.812 2.681 2.679 0 5.352-1.07 7.322-3.187 3.765-4.042 3.538-10.37-.504-14.133zm-364.604 291.521 11.197-14.146c.823-1.041 1.432-2.234 1.789-3.513.071-.253 4.418-15.297 17.474-36.579 7.718 5.307 10.955 8.231 13.287 12.063 2.69 4.42 6.26 8.988 9.532 12.837-15.561 8.93-33.188 18.61-53.279 29.338zm70.838-39.626c-3.257-3.646-7.312-8.52-10.005-12.946-4.219-6.934-9.438-11.54-19.189-18.244 6.949-9.418 15.431-19.485 25.717-29.674 8.418 4.024 13.043 9.644 17.524 15.115 1.347 1.644 2.619 3.197 3.993 4.714 5.5 6.074 13.726 11.623 20.91 15.805-11.057 7.908-23.884 16.198-38.95 25.23zm56.328-38.536c-7.312-3.747-18.091-9.993-23.464-15.924-1.041-1.149-2.161-2.516-3.346-3.963-5.889-7.188-13.879-16.905-29.915-22.816-.844-.46-1.768-.805-2.782-.987.275-1.874 2.585-9.38 21.14-25.395 17.026 5.611 22.802 12.346 28.395 18.879 10.725 12.525 26.806 18.207 39.15 20.787-7.892 10.041-17.281 19.585-29.178 29.419zm40.504-100.699c12.428 0 16.828 9.809 17.179 11.739 1.243 6.834-2.407 14.775-3.781 17.766l.001-.003c-3.881 8.438-7.856 16.198-12.231 23.528-8.968-.964-26.796-4.268-36.452-15.546-6.319-7.381-13.273-14.515-26.268-20.538 2.827-2.476 5.435-4.821 7.823-7.04 16.217-7.024 31.929-9.906 53.729-9.906zm66.147-162.033c-.011-.008-.03-.012-.042-.019-6.94-4.791-13.864-8.587-20.672-11.297-8.67-3.439-17.25-5.189-25.5-5.189h-.09c-18.98 0-32.84 8.97-41.13 16.49-4.483 4.062-7.842 8.091-10.133 11.199-13.66-.651-32.024-3.565-37.073-8.968-5.269-5.639-4.376-9.519-3.947-10.63 2.762-3.978 1.767-8.663-1.726-12.081-3.356-3.284-10.683-12.257-11.904-19.034-1.427-7.882.921-21.509 8.17-32.3.537-.799 1.104-1.575 1.688-2.337.693 1.413 4.158 7.872 5.205 10.08 1.71 3.606 5.299 5.716 9.042 5.716 1.436 0 2.896-.311 4.279-.967 4.99-2.367 7.116-8.331 4.749-13.321-1.26-2.657-6.75-12.886-7.308-15.983 3.881-2.597 7.481-4.569 10.087-5.874l16.317 9.224c2.158 9.12 4.83 17.99 7.988 26.436 1.502 4.02 5.315 6.501 9.368 6.501 1.163 0 2.347-.205 3.5-.636 5.173-1.935 7.799-7.695 5.865-12.869-2.929-7.836-5.403-16.088-7.391-24.589l8.174-12.228 11.524 12.931c3.123 17.34 8.062 33.277 14.732 47.369 1.708 3.61 5.3 5.724 9.045 5.724 1.433 0 2.89-.31 4.271-.963 4.992-2.363 7.124-8.325 4.761-13.317-5.557-11.74-9.779-25.024-12.601-39.523l11.873-7.863c7.055 19.452 16.61 37.902 28.458 54.934l.181.261c8.182 11.783 13.591 25.138.24 43.123z"/><circle cx="284.92" cy="162.227" r="10"/><circle cx="332.08" cy="322.992" r="10"/></g></g></svg>