<svg id="Layer_1" enable-background="new 0 0 512 512" height="512" viewBox="0 0 512 512" width="512" xmlns="http://www.w3.org/2000/svg"><g><path d="m341.213 124.506s-8.322-29.506 59.921-29.506 72.322 23.232 70.24 32.674c-2.83 12.836-21.971 16.337-21.971 16.337s41.362 19.004 52.597 57.263c0 0-64.167-32.137-130.963-19.28z" fill="#ffda8f"/><path d="m377.664 161.014c0-20.163-16.32-36.508-36.452-36.508-11.088 0-19.689 1.34-27.351 4.394-8.195 3.266-15.231 8.984-21.877 17.125-15.177 18.592-16.14 49.731 4.62 75.669 0 0-114.182-46.677-199.07 59.347l-87.534 34.675v41.343l94.192-41.345 57.745 31.343s7.378 40.242 36.472 18.999c9.206-6.722 8.793-25.063 11.227-27.5 0 0 101.974 4.001 131.256-54.512 20.168-40.303 23.128-76.095 23.018-94.471 8.379-6.691 13.754-16.993 13.754-28.559z" fill="#fff"/><path d="m296.6 267.04c-31.29 24-153.62-4-199.06 14 83.57-104.38 195.55-60.76 198.99-59.39.01.01.02.02.02.02.02.01.03.02.04.02.01.01.01.01.01.01s31.3 21.33 0 45.34z" fill="#89a7bc"/><g><circle cx="334" cy="162.372" r="10"/><circle cx="323.555" cy="306.24" r="10"/><path d="m511.594 198.456c-7.484-25.485-26.455-43.069-40.692-53.177 4.667-3.594 8.724-8.586 10.237-15.453 1.798-8.158-.346-16.789-5.882-23.679-11.276-14.032-36.215-21.147-74.124-21.147-32.796 0-54.493 6.695-64.488 19.899-2.6 3.435-4.077 6.858-4.881 9.96-8.182.644-15.198 2.193-21.605 4.75-9.521 3.78-18 10.36-25.92 20.091-4.36 5.34-7.73 11.47-10.021 18.21-2.28 6.699-3.439 13.81-3.439 21.149 0 8.87 1.68 17.75 5.01 26.41-12.98-2.65-26.28-4-39.55-4.01h-.03c-25.11 0-49.13 4.87-71.41 14.46-27.57 11.86-52.26 30.97-73.38 56.79l-85.1 33.71c-3.84 1.52-6.32 5.17-6.32 9.3v41.34c0 3.391 1.69 6.521 4.53 8.37 2.8 1.83 6.43 2.13 9.49.79l89.71-39.38 49.57 26.9c1.06 3.659 2.43 7.17 4.07 10.439 2.54 4.95 5.34 8.66 8.81 11.69 3.023 2.667 6.675 4.565 10.508 5.563l5.525 37.042c.731 4.898 4.937 8.524 9.891 8.524h38.333c5.523 0 10-4.478 10-10s-4.477-10-10-10h-29.714l-4.199-28.152c2.568-1.239 5.162-2.808 7.777-4.718 3.49-2.561 6.24-6.01 8.43-10.55 2.59-5.48 3.7-10.98 4.51-15 14.41-.25 42.67-2.05 70.3-11.36 5.229-1.77 8.04-7.45 6.27-12.67-1.37-4.07-5.18-6.8-9.47-6.8-1.09 0-2.16.17-3.2.52-21.815 7.417-44.772 9.543-58.044 10.128l1.88-6.155c1.613-5.282-1.361-10.871-6.643-12.484-5.278-1.613-10.871 1.36-12.485 6.643 0 0-9.771 35.188-10.608 37.27-1.03 2.67-3.49 8.513-11.418 8.513-4.759 0-8.802-6.803-10.202-10.692-.71-1.87-1.84-6.181-1.85-6.24-.54-2.99-2.39-5.53-5.06-6.98l-57.75-31.35c-2.7-1.46-5.98-1.601-8.79-.36l-80.17 35.19v-19.24l81.22-32.17c.006-.002.011-.006.018-.008 19.388-7.671 57.079-5.991 93.53-4.369 45.488 2.027 88.453 3.941 107.918-10.988 12.141-9.313 18.134-19.806 17.813-31.188-.43-15.311-12.369-25.875-16.799-29.277-10.621-13.731-12.911-26.815-12.92-35.45 0-10.17 3.18-19.649 8.949-26.71 5.83-7.13 11.5-11.62 17.83-14.16 6.33-2.512 13.535-3.653 23.327-3.687.112.004.224-.002.336-.002 14.554.037 26.417 11.924 26.437 26.509 0 8.1-3.641 15.66-9.99 20.75-2.39 1.9-3.76 4.75-3.76 7.81 0 .19-1.99 43.011-15.38 75.54-1.021 2.471-1.011 5.19.02 7.66 1.03 2.46 2.95 4.38 5.42 5.4 1.22.5 2.5.75 3.8.75 4.07 0 7.7-2.43 9.25-6.2 13.28-32.28 16.5-60.58 16.86-78.65.941-.932 1.829-1.904 2.681-2.903 61.251-10.22 120.368 18.753 120.96 19.049 1.42.711 2.952 1.059 4.477 1.059 2.299 0 4.577-.792 6.414-2.326 3.055-2.553 4.305-6.675 3.183-10.493zm-219.866 32.081c2.993 2.347 8.65 7.977 8.78 13.868.126 5.716-5.366 11.149-9.995 14.7-13.682 10.495-56.806 8.571-94.856 6.878-25.231-1.123-49.587-2.208-70.009-.599 14.405-13.37 30.154-23.795 47.071-31.094 19.76-8.51 41.13-12.83 63.52-12.83h.02c17.27 0 31.87 2.63 41.08 4.84 5.18 1.24 9.2 2.47 11.66 3.29 1.246.412 2.134.726 2.729.947zm95.113-60.83c.538-2.848.819-5.75.819-8.697 0-6.27-1.23-12.36-3.65-18.09-2.34-5.54-5.68-10.521-9.95-14.79-4.26-4.271-9.229-7.62-14.76-9.96-1.955-.829-3.954-1.507-5.984-2.056 3.619-3.917 14.772-11.114 47.818-11.114 42.911 0 55.229 9.563 58.534 13.676 2.237 2.784 2.29 5.26 1.94 6.845-.832 3.771-7.313 6.813-11.903 8.136-5.395-1.594-17.79-5.084-26.921-6.317-5.47-.742-10.509 3.099-11.248 8.572s3.099 10.509 8.572 11.248c8.876 1.198 22.445 5.221 25.631 6.187 3.337 1.661 21.935 11.423 35.235 28.775-22.31-7.477-56.865-15.756-94.133-12.415z"/></g></g></svg>