<svg id="Layer_1" enable-background="new 0 0 512 512" height="512" viewBox="0 0 512 512" width="512" xmlns="http://www.w3.org/2000/svg"><g><path d="m385.997 10.043s100.749-2.497 94.749 41.953l-4.5 22.475-19.921-6.368-51.579 4.121z" fill="#e5c9c9"/><path d="m135.049 427.556c-4.613-3.894-7.55-9.708-7.55-16.213 0-5.938 2.447-11.3 6.382-15.153.893-52.977 14.868-93.621 14.868-93.621l.001-.001c-22.732-6.423-28.605-4.906-38.251-5.339-44.013-1.972-79.499 22.467-79.499 22.467 0-32.63 22.834-54.687 39-76.414 33.209-44.634 87.138-77.78 128.999-84.408 33.451-5.296 101.512-1.856 115.499-57.933 15.959-63.982 38.366-78.034 45.925-82.942 5.075-3.295 17.024-7.957 25.574-7.957 19.882 0 40 12.307 40 38.96 0 25.468-19.149 40.96-40 40.96-3.238 0-13.359-.235-13.359-.235s-7.641 38.183-9.215 96.618c-1.575 58.434-50.925 110.376-113.273 123.861-15.007 3.246-30.879 3.709-46.332 2.548l.001.004c-33.846 37.679-33.82 98.585-33.82 98.585s-.75 17.98 18.25 37.458 54 15.982 54 15.982c10 10.239-4.843 18.979-4.843 18.979 5.907 19.228-12.907 18.23-12.907 18.23l-69.499-9.989z" fill="#d0a09d"/><path d="m276.119 227.46c-.06.05-57.162 41.769-145.116 23.299l-58.502-10.77c33.371-42.968 85.673-74.647 126.495-81.117 12.18-1.92 28.941-2.69 46.022-5.6 14.981.72 46.562 6.36 49.852 33.139 1.89 15.35-7.29 32.479-18.751 41.049z" fill="#89a7bc"/><g><path d="m482.11 25.417c-23.349-26.054-87.305-25.567-96.041-25.378-.025 0-10.716 1.069-17.346 3.269-5.53 1.88-10.16 4.01-13.75 6.3 0 0-5.46 3.54-9.28 6.919-7.46 6.56-14.32 15.48-20.4 26.52-8.07 14.629-14.97 33.299-20.5 55.478-2.84 11.23-7.94 19.749-16.07 26.809-9.81 8.53-24.18 14.36-43.92 17.82-9.58 1.72-19.08 2.67-28.28 3.601-6.83.689-13.29 1.34-19.091 2.239-11.23 1.801-23.14 5.28-35.4 10.339-12.02 4.971-24.2 11.39-36.18 19.08-25.131 16.159-47.211 36.529-63.871 58.908-2.59 3.49-20.48 25.98-26.01 34.759-4.68 7.43-8.15 14.54-10.61 21.74-2.9 8.49-4.37 17.199-4.36 25.879 0 3.73 2.05 7.12 5.35 8.85 1.42.75 3.03 1.14 4.64 1.14 2.05 0 4.01-.61 5.68-1.76.01 0 .01 0 .01-.01.62-.48 8.58-5.64 20.611-10.62 11.21-4.65 28.6-10.18 47.72-10.18 1.66 0 16.07.25 18.841.5 3.7.32 7.62.971 12.34 2.04-4.12 15-11.17 45.639-12.23 82.678-4.17 5.42-6.46 12.169-6.46 19.009-.01 8.13 3.11 15.83 8.78 21.69l19.17 61.927c1.13 3.67 4.32 6.39 8.12 6.939 0 0 71.03 10.1 71.391 10.1 0 0 6.8-.181 12.09-2.67 2.28-1.11 5.51-3.18 7.97-6.78 2.31-3.32 3.56-7.59 3.53-12.03 0-.899-.05-1.83-.14-2.76.07-.07.13-.14.2-.2 1.93-1.93 3.37-3.81 4.55-5.93 1.69-3.06 2.55-6.25 2.55-9.509.06-4.98-2.29-10.33-6.31-14.33-2.1-2.15-5.19-3.26-8.13-2.96-.01 0-.02 0-.02 0-.09.01-2.11.189-5.39.189h-.11c-4.01 0-11.95-.31-20.08-2.42-8.54-2.189-15.55-5.92-20.26-10.79-6.37-6.529-10.9-13.529-13.45-20.789-1.94-5.529-1.965-9.517-1.965-9.677.03-1.72.395-17.851 4.825-36.771 3.33-14.409 10.1-35.049 23.36-51.528 3.59.189 7.15.279 10.59.279 11.94 0 23.21-1.119 33.49-3.35 15.7-3.4 30.801-9.099 44.891-16.929 13.79-7.67 26.26-17.19 37.08-28.299 1.86-1.91 2.87-4.44 2.83-7.11-.03-2.67-1.11-5.16-3.02-7.03-1.88-1.83-4.36-2.83-6.98-2.83-2.711 0-5.26 1.07-7.15 3.021-.01 0-.01 0-.01 0-19.14 19.689-44.661 33.759-71.871 39.638-8.89 1.92-18.73 2.89-29.26 2.89-4.53 0-9.31-.18-14.21-.55-3.19-.239-6.31 1.08-8.37 3.51-15.06 16.919-25.74 39.709-31.741 67.727-4.07 19.23-4.425 34.524-4.455 37.333 0 2.16.295 8.325 3.085 16.285 2.4 6.889 7.48 17.37 18.01 28.149 7.42 7.579 17.37 13.019 29.59 16.189 6.86 1.76 14.22 2.77 21.901 3l-.03.03c-.15.09-.24.149-.28.18-.01 0-.02.01-.02.01-3.94 2.37-5.76 7.1-4.41 11.51.62 2 .68 4.409.65 4.54-.21.13-3.05.739-3.27.75l-62.541-8.99-18.08-58.398c-.56-1.809-1.66-3.469-3.1-4.689-2.58-2.19-4-5.24-4-8.57 0-3.059 1.17-5.83 3.38-8.009 1.89-1.851 2.95-4.33 3-6.971.44-26.568 4.35-49.867 7.55-64.748 1.79-8.369 6.57-25.169 6.66-25.439l.04-.13c.79-2.13.83-4.51.09-6.68-1.05-3.13-3.58-5.529-6.75-6.42-10.49-2.969-18.72-4.639-25.89-5.26-3.94-.33-18.31-.57-20.171-.57-25.51.091-47.49 7.73-61.461 14.15 1.92-5.92 4.85-11.99 8.96-18.549 4.67-7.469 21.304-28.441 23.834-31.779l52.329 9.633c16.519 3.46 32.003 4.88 46.33 4.879 62.242-.004 102.272-26.853 106.695-29.997l.011.015c13.141-9.826 25.153-30.252 22.687-50.276-1.878-15.289-10.681-25.756-22.445-32.423.921-.424 18.527-9.632 26.732-19.586 6.985-8.475 12.27-18.35 15.12-29.819 6.5-26.089 14.78-46.378 24.58-60.288 3.27-4.639 6.58-8.41 10.13-11.54 2.77-2.429 6.96-5.149 6.96-5.149 1.51-1.021 5.461-2.88 9.22-4.12 3.86-1.33 8.295-2.23 10.865-2.23 8.04 0 15.765 2.59 21.005 7.1 6.07 5.319 8.94 12.269 9.03 21.869-.04 9.339-3.1 17.009-9.08 22.789-5.43 5.189-13.05 8.17-20.92 8.17-1.13 0-12.57-.221-13.04-.23-.05 0-.08 0-.08 0-4.84-.13-9.09 3.3-10.04 8.03l-.01.03c-.21 1.079-9.42 99.066-9.43 99.466-.11 2.67.83 5.22 2.64 7.179 1.82 1.96 4.29 3.101 6.96 3.2 2.73.1 5.34-.89 7.31-2.78 1.88-1.8 2.97-4.219 3.07-6.819.02-.431 6.78-82.747 7.64-88.137 2.35.04 3.98.061 4.98.061 6.46 0 12.75-1.181 18.7-3.511 6.01-2.359 11.41-5.779 16.03-10.189 1.856-1.759 3.552-3.662 5.093-5.693l29.341-2.344 18.044 5.768c.995.317 2.021.475 3.044.475 1.766 0 3.519-.468 5.072-1.382 2.453-1.443 4.175-3.864 4.733-6.655 0 0 4.577-22.891 4.605-23.1 1.411-10.451-1.544-20.105-8.546-27.917zm-197.165 162.216c1.461 11.86-6.347 25.45-14.756 31.775-.721.513-14.414 10.104-37.772 17.458-31.571 9.939-64.999 11.32-99.357 4.106-.082-.018-.163-.033-.245-.049l-41.51-7.641c13.061-14.185 28.67-27.333 45.356-38.043 21.8-14.04 44.491-23.448 63.901-26.488 4.86-.78 39.873-4.597 44.986-5.436 9.831.605 36.916 4.119 39.397 24.318zm185.928-137.259-2.236 11.167-9.266-2.963c-1.24-.396-2.546-.547-3.841-.442l-20.534 1.641c.677-3.488 1.014-7.085.999-10.769.05-7.68-1.41-14.89-4.34-21.42-.64-1.429-1.358-2.815-2.135-4.16 15.57 2.728 30.618 7.439 37.698 15.338 3.076 3.432 4.21 7.023 3.655 11.608z"/><circle cx="385" cy="49" r="10"/><circle cx="352.663" cy="231.029" r="10"/></g></g></svg>