<svg id="Layer_1" enable-background="new 0 0 512 512" height="512" viewBox="0 0 512 512" width="512" xmlns="http://www.w3.org/2000/svg"><g><path d="m231 282h-130v-40h130c11.046 0 20 8.954 20 20 0 11.046-8.954 20-20 20z" fill="#ffda8f"/><path d="m221 322h60v300h-60z" fill="#a0c8ff" transform="matrix(0 1 -1 0 723 221)"/><path d="m201 362h50v40h-50z" fill="#ffda8f"/><circle cx="251" cy="30" fill="#ffda8f" r="20"/><path d="m461 382h-60v-120l60 40z" fill="#a0c8ff"/><path d="m101 281v95h-50v-95c0-13.807 11.193-25 25-25 13.807 0 25 11.193 25 25z" fill="#a0c8ff"/><g><path d="m466.547 293.68-55.547-37.032v-124.648c0-22.056-17.944-40-40-40-11.028 0-20-8.972-20-20v-2c0-22.056-17.944-40-40-40h-30c0-16.542-13.458-30-30-30s-30 13.458-30 30h-30c-22.056 0-40 17.944-40 40v2c0 11.028-8.972 20-20 20-22.056 0-40 17.944-40 40v117.384c-4.549-2.167-9.635-3.384-15-3.384-19.299 0-35 15.701-35 35v95c0 29.676 21.661 54.374 50 59.151v66.849c0 2.63 1.07 5.21 2.93 7.069 1.86 1.861 4.44 2.931 7.07 2.931h180c5.51 0 10-4.49 10-10s-4.49-10-10-10h-170v-40h280v40h-20c-5.51 0-10 4.49-10 10s4.49 10 10 10h30c2.63 0 5.21-1.07 7.07-2.931 1.86-1.859 2.93-4.439 2.93-7.069v-110h50c5.523 0 10-4.478 10-10v-80c0-3.344-1.671-6.466-4.453-8.32zm-375.547 121.054c-14.036-3.625-25.109-14.698-28.734-28.734h28.734zm0-48.734h-30v-85c0-8.271 6.729-15 15-15s15 6.729 15 15zm50 66h-30v-40h30zm0-60h-30v-40h30zm0-60h-30v-20h30zm0-40h-30v-20h30zm0-40h-30v-20h30zm0-40h-30v-40h30zm0-60h-30c0-11.028 8.972-20 20-20 3.452 0 6.803-.44 10-1.266zm50 300h-30v-40h30zm0-60h-30v-40h30zm0-60h-30v-20h30zm0-40h-30v-20h30zm0-40h-30v-20h30zm0-40h-30v-40h30zm0-60h-30v-33.585c1.742-1.976 3.289-4.123 4.619-6.415h25.381zm0-60h-20v-2c0-11.028 8.972-20 20-20zm120-22c11.028 0 20 8.972 20 20v2h-20zm-70 382h-30v-20h30zm0-40h-30v-20h30zm0-40h-24.614c5.306-9.152 14.131-16.017 24.614-18.728zm0-39.163c-11.411 1.925-21.735 7.083-30 14.499v-35.336h20c3.506 0 6.87-.61 10-1.72zm-10-40.837h-20v-20h20c5.514 0 10 4.486 10 10s-4.486 10-10 10zm10-38.28c-3.13-1.11-6.494-1.72-10-1.72h-20v-20h30zm0-41.72h-30v-40h30zm0-60h-30v-40h30zm0-60h-30v-22h17.663c3.323 3.707 7.552 6.583 12.337 8.28zm10-32c-5.514 0-10-4.486-10-10s4.486-10 10-10 10 4.486 10 10-4.486 10-10 10zm40 392h-30v-40h30zm-30-60v-38.734c17.233 4.452 30 20.13 30 38.734zm30-44.662c-8.265-7.415-18.587-12.579-30-14.503v-40.835h30zm0-75.338h-30v-40h30zm0-60h-30v-40h30zm0-60h-30v-40h30zm0-60h-30v-13.72c4.784-1.697 9.014-4.573 12.337-8.28h17.663zm50 360h-30v-40h30zm0-60h-30v-40h30zm0-60h-30v-40h30zm0-60h-30v-40h30zm0-60h-30v-40h30zm0-60h-30v-40h25.381c1.329 2.292 2.877 4.439 4.619 6.415zm20-21.266c3.197.826 6.548 1.266 10 1.266 11.028 0 20 8.972 20 20h-30zm0 41.266h30v40h-30zm0 60h30v40h-30zm0 60h30v40h-30zm0 60h30v40h-30zm30 100h-30v-40h30zm60-60h-40v-91.314l40 26.666z"/><circle cx="326" cy="502" r="10"/></g></g></svg>