<svg id="Layer_1" enable-background="new 0 0 512 512" height="512" viewBox="0 0 512 512" width="512" xmlns="http://www.w3.org/2000/svg"><g><path d="m378.769 163.747c37.95 13.414 49.691 62.345 52.922 81.982.814 4.945-1.308 9.912-5.423 12.768-4.343 3.014-10.067 3.094-14.5.214-14.877-9.663-50.443-28.063-77.688-4.746-35.351 30.254-91.713 18.717-91.713 18.717-52.167 9.994-60.182 41.911-60.504 59.336-.155 8.426-6.985 15.238-15.403 15.521-35.124 1.18-65.412-41.032-65.412-41.032-53.505-17.674-91.048-59.053-91.048-107.28 0-64.303 66.743-116.432 149.075-116.432 64.476 0 119.391 31.969 140.179 76.719 0 0 36.16-11.091 79.515 4.233z" fill="#d0a09d"/><g><path d="m511.465 369.32c-15.45-45.45-54.829-91.407-72.447-110.459 1.831-3.341 2.84-7.123 2.84-11.031 0-1.24-.1-2.502-.3-3.722-1.94-11.717-6.01-29.227-14.34-46.137-4.92-9.945-10.78-18.511-17.4-25.435-8.07-8.444-17.39-14.578-27.72-18.221-16.309-5.763-33.429-8.694-50.889-8.694-11.53.01-20.83 1.31-26.61 2.401-5.49-9.846-12.53-19.091-20.91-27.486-8.29-8.295-17.87-15.749-28.48-22.133-10.63-6.403-22.25-11.726-34.55-15.819-12.51-4.153-26.24-7.065-39.73-8.585-5.09 0-9.92 3.792-10.49 8.865-.61 5.484 3.35 10.437 8.83 11.057 50.42 5.583 93.99 33.043 110.95 69.873.11.228 10.883 23.112.511 40.027-2.888 4.711-1.414 10.872 3.294 13.761 1.631 1.002 3.437 1.478 5.22 1.478 3.362 0 6.646-1.696 8.533-4.774 10.247-16.712 7.952-35.46 4.73-47.3 4.866-.722 11.238-1.354 18.661-1.354h.04c15.2 0 30.08 2.541 44.23 7.544 7.42 2.632 13.94 6.943 19.93 13.197 9.42 9.806 15.42 22.713 18.79 31.818 4.48 11.987 6.72 23.414 7.67 29.157.02.16-.047 1.277-.207 1.644-.224.513-.591.966-1.063 1.287-.5.351-1.07.521-1.69.531-.6-.01-1.16-.17-1.66-.491-7.48-4.783-14.53-8.475-21.56-11.287-10.47-4.182-20.76-6.334-30.6-6.393-9.73-.071-24.18 2.261-37.47 13.727-7.88 6.734-17.78 11.717-29.44 14.799-9.2 2.432-19.4 3.672-30.31 3.672h-.08c-7.19 0-23.38-1.961-23.38-1.961-1.3-.27-2.58-.27-3.88-.02-13.22 2.501-24.84 6.603-34.54 12.207-8.71 5.032-15.87 11.246-21.27 18.49-10.27 13.688-12.64 28.377-12.81 38.282-.02 3.002-2.65 5.614-5.74 5.704-.37.01-14.15-1.781-21.16-5.322-11.14-5.604-35.8-31.549-35.8-31.549-1.24-1.731-2.97-3.002-4.99-3.662-24.95-8.235-46.1-21.803-61.159-39.233-15.05-17.43-23.01-37.682-23.02-58.554.01-19.63 7.12-38.852 20.54-55.572 13.39-16.659 32.44-30.187 55.099-39.112 5.13-2.021 7.66-7.844 5.64-12.977-1.52-3.852-5.17-6.344-9.31-6.344-1.25 0-2.49.24-3.66.7-25.87 10.205-47.77 25.834-63.35 45.186-16.338 20.284-24.968 43.838-24.958 68.122-.01 13.058 2.49 25.956 7.41 38.323 4.74 11.896 11.63 23.103 20.49 33.329 16.256 18.784 38.523 33.668 64.489 43.187l11.332 55.237-10.266 7.175c-4.528 3.165-5.634 9.403-2.471 13.933 1.944 2.786 5.05 4.277 8.207 4.277 1.977 0 3.974-.585 5.718-1.804l6.022-4.209 14.019 29.125c1.723 3.579 5.295 5.666 9.016 5.666 1.455 0 2.933-.318 4.332-.993 4.976-2.398 7.066-8.378 4.67-13.356l-8.028-16.679 28.415 11.229c5.136 2.03 10.946-.49 12.974-5.63 2.029-5.14-.491-10.953-5.627-12.982l-47.156-18.635-5.806-28.302c6.044 4.872 12.152 8.896 18.208 11.966 9.83 4.963 23.175 7.464 30.84 7.464 2.515 0 4.968-.533 7.304-1.306l31.961 37.118-6.89 7.603c-3.709 4.093-3.4 10.421.691 14.133 1.915 1.737 4.318 2.593 6.714 2.593 2.724 0 5.438-1.107 7.411-3.285l4.932-5.443 20.156 25.277c1.975 2.477 4.885 3.766 7.823 3.766 2.187 0 4.388-.714 6.23-2.185 4.317-3.447 5.024-9.742 1.58-14.061l-11.538-14.469 30.195 4.623c5.468.845 10.563-2.915 11.397-8.377.835-5.462-2.913-10.568-8.372-11.404l-51.821-7.934-35.37-41.077c1.661-3.36 2.583-7.071 2.664-10.917.14-6.983 1.77-17.27 8.81-26.626 8.48-11.186 22.15-18.61 41.81-22.703 4.4.73 13.54 1.971 25.27 1.981 12.67-.01 24.61-1.471 35.49-4.332 14.59-3.862 27.15-10.235 37.34-18.951 7.1-6.013 14.88-8.845 24.47-8.915 14.18-.12 30.63 7.405 41.28 14.449 3.74 2.431 8.07 3.722 12.53 3.722v-.05l.02.05c1.226 0 2.439-.102 3.632-.293 15.482 16.614 55.389 62.193 70.021 105.234 1.416 4.163 5.303 6.786 9.466 6.786 1.068 0 2.154-.173 3.221-.535 5.231-1.78 8.028-7.463 6.25-12.695z"/><circle cx="135.482" cy="84.251" r="10"/><circle cx="369.75" cy="203.853" r="10"/></g></g></svg>