<svg id="Layer_1" enable-background="new 0 0 512 512" height="512" viewBox="0 0 512 512" width="512" xmlns="http://www.w3.org/2000/svg"><g><path d="m445.833 127.186c8.762-7.025 14.166-16.611 14.166-27.186 0-21.539-22.386-39-50-39s-54.4 18.202-60 39c-4.667 17.333 10 52.667 10 52.667s-120.333 28-196.332 108c0 0-58.666 23.333-78.166 70.333l-75.5 35.289s16.691 24.587 77.5 18.711c54.943-5.31 132.166 21.901 220.795-.731 0 0 14.009-28.47 54.204-39.269 55.833-15 102-71.5 104.5-123.5 1.724-35.882-7.834-75.628-21.167-94.314z" fill="#fff"/><path d="m319.999 286c31.158-11.281 60-26.863 60-60s-26.863-60-60-60c-1 0-1.993.026-2.981.075-41.956 15.33-106.187 44.944-153.352 94.592 0 0-58.666 23.333-78.166 70.333 130.5 41.667 178.37-24.678 234.499-45z" fill="#89a7bc"/><g><path d="m510.645 120.976c-11.7-20.135-30.639-27.198-41.606-29.662-2.232-10.201-8.339-19.653-17.531-26.774-11.21-8.721-25.95-13.521-41.51-13.54-7.78.01-15.59 1.229-23.23 3.62-7.27 2.279-14.17 5.55-20.529 9.729-6.41 4.25-11.851 9.13-16.181 14.51-4.649 5.771-7.92 12.011-9.72 18.54-.85 3.2-1.25 6.57-1.26 10.62.05 11.57 3.39 23.891 5.899 32.141.57 1.85 1.19 3.76 1.83 5.67-13.569 3.859-35.059 10.76-60.42 21.649-23.22 9.98-44.92 21.28-64.5 33.58-24.61 15.471-46.15 32.69-64.02 51.2-4.77 2.08-17.38 7.95-31.62 17.7-10.06 6.91-18.94 14.34-26.37 22.07-9.45 9.829-16.86 20.43-22.01 31.489l-72.096 33.712c-2.66 1.24-4.63 3.58-5.41 6.4-.78 2.83-.28 5.85 1.37 8.27.47.71 4.91 7.061 15.96 13 6.01 3.25 12.97 5.83 20.68 7.66 9.34 2.221 19.78 3.351 31.03 3.351h.1c6.03 0 28.4-1.61 33.8-1.61h.46c15.4 0 33.12 1.89 51.88 3.9 22.67 2.43 48.38 5.18 75.59 5.199 24.207 0 46.544-2.218 67.914-6.739l3.88 55.043c.369 5.237 4.726 9.297 9.976 9.297h66.333c5.522 0 10-4.478 10-10s-4.478-10-10-10h-57.014s-3.638-54.676-3.53-54.84c2.88-4.4 11.29-15.551 27.16-24.011 2.35-1.25 4.08-3.35 4.859-5.909.771-2.551.51-5.261-.75-7.61-1.74-3.271-5.12-5.3-8.83-5.3-1.63 0-3.25.399-4.689 1.18-19.521 10.43-30.12 23.93-34.721 31.06-22.069 5.271-45.354 7.83-70.784 7.83-25.29 0-49.135-2.52-72.005-4.97-19.73-2.11-38.35-4.1-55.73-4.13-6.06 0-28.44 1.61-33.8 1.61-16.32-.011-29.86-2.561-40.27-7.57l57.005-26.642c29.584 9.092 55.138 12.773 77.573 12.773 53.603 0 89.438-20.939 120.051-38.831 13.69-8.001 26.622-15.559 39.544-20.237 31.006-11.226 66.595-29.26 66.595-69.402 0-26.389-14.684-49.408-36.305-61.334 1.374-.386 8.555-2.256 8.575-2.256 2.87-.67 5.28-2.561 6.63-5.181 1.341-2.62 1.46-5.68.33-8.399 0 0-.02-.05-.09-.221-.3-.739-3.01-7.47-5.53-15.93-2.869-9.53-4.56-18.75-4.529-24.66 0-2.1.21-4.08.58-5.42 1.92-7.46 8.659-15.72 17.59-21.55 9.649-6.391 21.635-10.051 32.735-10.051 10.96 0 21.664 3.39 29.215 9.31 6.9 5.435 10.609 12.394 10.783 19.525-.167 6.978-3.747 14.149-10.403 19.545-4.141 3.32-4.971 9.3-1.891 13.61 5.17 7.159 10.301 19.659 13.73 33.439 3.729 14.78 5.78 31.311 5.78 46.561 0 2.739-.061 5.439-.19 8.029-1.26 28.34-17.9 60.46-43.44 83.84-1.97 1.811-3.109 4.28-3.22 6.95-.12 2.67.82 5.221 2.63 7.181 1.88 2.06 4.57 3.239 7.36 3.239 2.51 0 4.91-.939 6.77-2.64 14.28-13.19 26.37-28.86 34.94-45.32 4.39-8.43 7.89-17.08 10.39-25.72 2.57-8.91 4.101-17.85 4.551-26.57.14-2.93.21-5.949.21-8.989-.011-17.07-2.21-34.86-6.381-51.45-3.289-12.94-7.399-23.95-12.22-32.721 3.58-4.029 6.38-8.479 8.32-13.229.519-1.27.971-2.555 1.359-3.852 7.54 2.279 18.213 7.477 25.075 19.287 1.856 3.194 5.209 4.978 8.656 4.978 1.705 0 3.434-.438 5.015-1.355 4.774-2.776 6.396-8.897 3.622-13.672zm-140.646 105.024c0 22.204-15.473 36.863-53.404 50.598-14.634 5.298-28.328 13.302-42.827 21.774-40.933 23.924-87.116 50.898-174.043 26.454 10.019-17.06 25.586-30.027 37.825-38.366 8.36-5.73 16.11-9.95 21.14-12.48 2.24-1.13 11.22-5.37 12.23-6.43 38.07-40.12 88.099-66.57 123.36-81.7 8.891-3.82 25.422-9.85 25.72-9.85 27.57 0 49.999 22.43 49.999 50z"/><circle cx="414.833" cy="101.289" r="10"/><circle cx="383.223" cy="337.38" r="10"/></g></g></svg>