<svg id="Layer_1" enable-background="new 0 0 512 512" height="512" viewBox="0 0 512 512" width="512" xmlns="http://www.w3.org/2000/svg"><g><path d="m426.516 101.956c-14.645-14.608-43.388-14.608-58.033 0 0 0-154.096 136.64-210.483 177.894-24.76 18.115-77.52 50.033-105.333 63.013-16.813 7.845-42.667 15.46-42.667 40.23 0 33.914 85-19.284 85-19.284 31 8.977 118.667-18.952 118.667-18.952l67.333 36.574 12-25.269c90.562-57.355 119.916-136.257 129.264-176.103 2.904-12.378 6.609-24.593 11.882-36.166 6.282-13.788 3.739-30.597-7.63-41.937z" fill="#a8bccd"/><g><path d="m507.613 134.093c-20.038-13.591-47.54-16.611-61.536-17.23-.539-2.142-1.225-4.253-2.068-6.324-2.4-5.88-5.91-11.15-10.43-15.66-9.021-8.92-21.84-13.85-36.08-13.88-14.11.03-26.84 4.88-35.84 13.64-.7.62-60.091 52.94-101.14 88.129-35.189 30.17-82.559 70.1-108.429 89.01-22.67 16.639-76.03 49.179-103.65 62.019-2.02.96-21.659 9.46-29.13 14.63-5.88 4.11-10.29 8.61-13.5 13.75-3.83 6.101-5.84 13.33-5.81 20.92 0 3.28.55 6.3 1.62 8.96 1.609 4.181 5.13 7.971 9.18 9.891 3.38 1.649 7.1 2.43 11.7 2.449 8.68-.06 17.359-2.75 24.7-5.38 19.72-7.189 41.18-19.559 49.51-24.55 4.07.75 8.53 1.11 14.04 1.12 16.7-.04 38.96-3.521 68.05-10.66 14.99-3.7 27.599-7.399 33.79-9.28l62.497 33.949 16.079 15.117-13.814 4.854c-5.21 1.831-7.95 7.539-6.119 12.75 1.831 5.21 7.538 7.948 12.75 6.119l26.445-9.293s45.74 11.856 46.579 11.856c4.438-.001 8.491-2.977 9.667-7.471 1.398-5.343-1.799-10.808-7.142-12.206l-44.536-11.657-21.839-20.532 7.643-16.096c11.66-7.521 22.82-15.73 33.17-24.4 2.05-1.72 3.311-4.13 3.54-6.79.24-2.66-.58-5.25-2.29-7.3-1.91-2.27-4.7-3.58-7.67-3.58-2.34 0-4.62.83-6.42 2.34-10.4 8.71-21.66 16.92-33.48 24.41-1.6 1.01-2.869 2.45-3.68 4.15l-7.47 15.739-58.061-31.54c-2.359-1.279-5.26-1.55-7.81-.739-.01 0-25.62 7.7-44.56 12.08-6.721 1.571-16.467 3.684-26.724 5.369l79.4-39.779c1.101 1.151 2.243 1.985 3.214 2.57 9.425 5.679 24.638 1.687 50.868-13.344 5.373-3.078 10.538-6.247 15.075-9.131 1.044 5.188 3.542 9.764 8.741 12.074 1.895.842 3.806 1.244 5.752 1.244 11.903-.002 25.024-15.082 42.601-36.976 2.038-2.538 3.799-4.73 5.153-6.337 16.489-19.558 24.85-35.845 24.85-48.413 0-9.795-2.983-17.231-8.868-22.104-10.166-8.419-25.333-6.408-39.996-3.627-5.426 1.029-8.99 6.263-7.961 11.689 1.03 5.425 6.261 8.986 11.689 7.961 13.094-2.485 21.006-2.693 23.512-.62 1.032.855 1.624 3.298 1.624 6.701 0 3.498-1.963 13.961-20.141 35.521-1.509 1.79-19.872 24.662-27.303 31.677.16-1.723.418-3.797.817-6.284.64-3.977-1.17-7.949-4.59-10.077s-7.783-1.997-11.068.333c-.127.09-12.854 9.094-27.389 17.6-17.665 10.339-26.721 13.399-30.897 14.274-.333-2.757-1.807-5.295-4.13-6.949-3.017-2.146-6.97-2.452-10.278-.793 0 0-145.38 74.538-159.701 81.568-7.949 3.91-34.1 12.91-37.819 12.84 0 0-2.563.541-2.5-1.3.14-4.088.859-7.189 2.79-10.359 2.45-4 7.08-7.851 13.75-11.44 4.069-2.21 18-8.28 20.359-9.38 13.471-6.3 33.42-17.26 54.73-30.06 20.689-12.43 39.75-24.8 52.27-33.939 23.57-17.25 66.301-52.549 127.02-104.909 44.95-38.79 84.63-73.979 84.63-73.979 4.87-4.95 13.371-8.03 21.95-8.03 8.57 0 17.07 3.08 21.95 8.03 5.18 5.18 8.04 12.05 8.05 19.349 0 3.91-.851 7.84-2.45 11.36-4.99 10.949-9.08 23.389-12.519 38.029-4.521 19.261-14.12 48.86-34.221 80.54-1.43 2.26-1.899 4.94-1.319 7.55.579 2.601 2.149 4.83 4.409 6.261 1.601 1.01 3.45 1.55 5.341 1.55 3.449 0 6.609-1.73 8.449-4.639 21.601-34.04 31.94-65.93 36.81-86.69 3.13-13.349 6.81-24.57 11.25-34.299 1.626-3.57 2.774-7.286 3.468-11.103 12.215.67 34.402 3.354 49.668 13.71 1.72 1.166 3.672 1.725 5.604 1.725 3.203 0 6.351-1.536 8.284-4.388 3.102-4.57 1.91-10.789-2.66-13.89z"/><circle cx="396" cy="130.289" r="10"/><circle cx="359.748" cy="299.608" r="10"/></g></g></svg>