<svg id="Layer_1" enable-background="new 0 0 512 512" height="512" viewBox="0 0 512 512" width="512" xmlns="http://www.w3.org/2000/svg"><g><path d="m316.271 455.525-34 2.598 10.31-57.04-42.781-1.799 1.333 81.781 58.066 20.935 28.667-20.325z" fill="#ffda8f"/><path d="m350.981 17.175s11.456 57.298 2.931 81.312c0 0 17.711 13.014 59.587-11.986.001-.001-6.627-62.152-62.518-69.326z" fill="#ffda8f"/><path d="m281.815 38.098s-23.209 38.902-8.409 104.902c0 0-9.418 48-41.708 73.333s-70.635 56.667-92.162 144l26.236-3.737s-18.836 69.737-67.272 101.07c0 0 112.344 19.333 207.197-49.333s101.057-141.333 101.057-178.666-20.499-59.167-31.599-89.167-21.242-42.014-21.242-42.014z" fill="#fff"/><path d="m269.625 274.333c0-29.333 15.066-43.979 28.254-49.667 74.004-31.918 77.276-84.167 77.276-84.167-11.1-30-21.242-42.014-21.242-42.014l-72.097-60.388s-23.209 38.902-8.409 104.902c0 0-9.418 48-41.709 73.333s-70.635 56.667-92.162 144l26.236-3.737s-9.859 36.484-33.642 68.532c.002 0 .004-.001.006-.001 67.271-12.539 137.489-70.126 137.489-150.793z" fill="#89a7bc"/><circle cx="325.583" cy="58.5" fill="#fff" r="48.5"/><g><path d="m423.443 85.439c-.076-.712-1.968-17.646-11.393-35.566-12.561-23.883-32.514-38.481-57.786-42.33-8.481-4.793-18.263-7.543-28.681-7.543-24.394 0-45.339 15.014-54.105 36.282-3.921 8.01-13 30.194-13.008 63.768 0 13.93 1.58 28.37 4.7 42.94-.87 3.659-3.42 13.38-8.3 24.64-5.3 12.32-14.69 29.4-29.35 40.84-8.6 6.75-17.03 13.47-25.62 21.44-10.04 9.319-18.66 18.88-26.34 29.199-19.5 26.181-33.81 58.511-43.73 98.83-.8 3.23.06 6.641 2.29 9.101 2.2 2.439 5.57 3.66 8.83 3.189l10.16-1.439c-3.15 8.27-6.76 16.35-10.72 24.02-9.12 17.73-24.73 41.92-47.32 56.46-3.43 2.221-5.19 6.4-4.37 10.4s4.08 7.16 8.11 7.85l.03.01c1.62.271 16.53 2.641 39.33 2.641 27.33-.01 54.19-3.29 79.83-9.74 8.412-2.119 16.637-4.582 24.676-7.364l.459 28.163c.068 4.155 2.698 7.835 6.607 9.244l58.066 20.935c1.103.397 2.25.593 3.391.593 2.045 0 4.071-.628 5.785-1.843l28.667-20.325c2.268-1.607 3.764-4.087 4.129-6.843.366-2.755-.433-5.539-2.203-7.682l-21.595-26.15c-2.07-2.507-5.231-3.854-8.472-3.603l-21.095 1.611 3.941-21.806c4.492-2.852 8.902-5.818 13.205-8.93 22.04-15.95 40.89-33.24 56.03-51.4 1.71-2.05 2.52-4.64 2.28-7.3s-1.5-5.069-3.56-6.779c-1.79-1.5-4.06-2.32-6.4-2.32-2.97 0-5.78 1.31-7.68 3.59-14.07 16.87-31.7 33.03-52.4 48.01-59.94 43.46-128.16 49.94-163.49 49.94 0 0-8.42-.08-12.45-.24 4.816-4.74 9.455-9.996 13.904-15.733 69.47-14.603 141.831-74.731 141.831-159.862 0-27.894 15.535-37.604 22.214-40.484 44.676-19.27 65.417-45.755 75.033-65.501.74 1.442 7.047 13.631 9.187 18.232 5.54 11.84 10.66 25.25 10.69 43.09 0 12.03-.61 28.31-5.35 47.439-.65 2.591-.25 5.28 1.13 7.57s3.57 3.9 6.16 4.55c.79.2 1.61.29 2.42.29 4.6 0 8.58-3.12 9.69-7.59 5.34-21.45 5.95-40.1 5.95-52.26.03-21.98-6.71-39.12-12.58-51.59-2.46-5.21-16.37-32.17-19.64-41.05-3.856-10.429-7.629-18.818-10.969-25.409 11.143-.946 26.055-5.185 45.065-16.535 3.35-2.003 5.231-5.77 4.817-9.65zm-148.596 379.383c2.075 2.299 5.1 3.501 8.186 3.271l28.829-2.202 11.439 13.852-15.625 11.078-46.656-16.821-.467-28.64c5.145-2.225 10.19-4.609 15.151-7.121l-3.272 18.105c-.552 3.049.341 6.179 2.415 8.478zm50.736-444.822c21.229 0 38.5 17.271 38.5 38.5s-17.271 38.5-38.5 38.5-38.5-17.271-38.5-38.5 17.271-38.5 38.5-38.5zm-31.664 195.484c-21.474 9.261-34.294 31.261-34.294 58.85 0 66.161-50.624 115.201-105.139 134.438 1.616-2.89 3.201-5.848 4.744-8.893 10.37-20.59 16.2-40.68 16.2-40.68.87-3.25.06-6.7-2.17-9.23-2.21-2.5-5.59-3.75-8.9-3.27l-11.26 1.6c8.98-31.03 20.92-56.29 36.5-77.25 14.9-20 30.68-33.05 48.27-46.85 8.25-6.5 15.74-14.721 22.27-24.431 5.09-7.56 9.71-16.22 13.73-25.72 6.29-14.93 8.88-26.83 9.34-29.07l.01-.05c.27-1.37.25-2.75-.05-4.12-3.12-13.88-4.7-27.6-4.7-40.76 0-2.308.051-4.547.142-6.723 10.67 14.356 27.752 23.675 46.971 23.675 8.948 0 17.429-2.026 25.02-5.633 3.514 5.792 8.715 15.588 14.33 30.35-1.447 8.88-11.123 47.936-71.014 73.767zm79.945-123.998c6.441-9.398 10.219-20.758 10.219-32.986 0-5.715-.838-11.235-2.373-16.459 13.333 12.707 18.722 30.031 20.743 39.237-12.331 6.635-21.751 9.335-28.589 10.208z"/><circle cx="325.583" cy="50.5" r="10"/><circle cx="385.036" cy="321.43" r="10"/></g></g></svg>