<svg id="Layer_1" enable-background="new 0 0 512 512" height="512" viewBox="0 0 512 512" width="512" xmlns="http://www.w3.org/2000/svg"><g><path d="m131.889 54.1c-5.154-3.375-11.304-5.343-17.916-5.343-18.144 0-32.853 14.77-32.853 32.991 0 .867.044 1.723.109 2.573-17.491.741-31.446 15.208-31.446 32.955 0 11.985 6.365 22.476 15.885 28.254-2.954-.876-6.078-1.354-9.315-1.354-18.144 0-32.853 14.77-32.853 32.991 0 18.22 14.709 32.991 32.853 32.991-18.144 0-32.853 14.77-32.853 32.991 0 15.565 9.296 25.71 17.033 28.916 42.862 17.761 108.8 64.934 120.445 83.759 24.261 71.056 98.56 77.147 98.56 77.147l59.473-20.322c2.022 34.832 35.044 30.811 35.044 30.811l62-103.878c106.478-51.77 22.913-239.055 22.913-239.055 15.353 0 27.799-12.498 27.799-27.915s-12.482-26.868-27.799-27.915c-96.703-6.613-116.755 126.379-116.755 126.379l-99.894 43.853c10.614-146.174-22.927-178.663-32.57-185.364-14.932-10.375-37.959-9.842-48.461 5-3.133 4.424-9.399 19.535-9.399 19.535z" fill="#fff"/><path d="m473.54 51.99c1.057-3.032 2.358-6.07 2.358-9.507 0-11.213-9.052-20.302-20.217-20.302-.225 0-3.405-12.181-19.207-12.181-11.166 0-20.217 9.089-20.217 20.302 0 5.762 2.401 10.951 6.24 14.647 21.251 21.339 12.15 32.34 12.966 44.986 0 11.212 9.052 20.302 20.217 20.302 11.166 0 20.217-9.09 20.217-20.302 0-3.626-1.479-6.784-2.617-9.97-2.301-6.445-3.585-16.949.26-27.975z" fill="#ff7b79"/><g><path d="m489.26 57.823-6.9-.526c.187-.67.909-2.821 1.054-3.225 1.107-3.073 2.484-6.898 2.484-11.588 0-14.524-10.242-26.694-23.865-29.628-5.421-8.239-14.463-12.856-25.558-12.856-16.662 0-30.217 13.594-30.217 30.302 0 2.493.302 4.934.88 7.288-3.204.833-6.358 1.817-9.448 2.979-9.82 3.7-19.03 9.061-27.4 15.921-10.9 8.939-20.71 20.46-29.13 34.239-6.58 10.761-12.47 23.16-17.51 36.85-5.83 15.939-8.97 29.689-10.32 36.479l-80 35.11c.69-12.92 1.04-25.4 1.04-37.1-.01-44.649-5.01-80.229-14.85-105.769-8.37-21.8-18.67-31.25-24.07-34.95-4.17-2.88-8.78-5.109-13.71-6.62-4.83-1.47-9.84-2.229-14.9-2.239-6.62.01-12.83 1.3-18.46 3.829-6.19 2.78-11.47 7.091-15.26 12.47-1.36 1.96-5.32 9.79-6.3 11.939-4.15-1.31-8.47-1.97-12.82-1.97h-.03c-10.41 0-20.45 3.8-28.26 10.68-7.73 6.801-12.76 16.15-14.18 26.31-4.51 1.21-8.77 3.149-12.66 5.75-3.84 2.569-7.23 5.729-10.07 9.39-2.86 3.69-5.09 7.8-6.63 12.2-1.58 4.55-2.38 9.32-2.39 14.19 0 6.55 1.44 12.84 4.26 18.699-4.35 1.311-8.45 3.301-12.19 5.92-3.71 2.591-6.97 5.74-9.69 9.351-5.66 7.51-8.66 16.479-8.66 25.92 0 12.77 5.61 24.79 15.38 32.99-9.77 8.199-15.38 20.219-15.38 32.989-.01 11.431 3.98 19.73 7.32 24.681 4.24 6.22 9.73 10.88 15.88 13.47 19.03 7.86 45.2 22.979 70.01 40.429 11.45 8.04 21.83 16.04 30.02 23.13 4.08 3.521 14.099 13.82 15.2 15.41 6.03 17.141 15.3 32.14 27.55 44.6 7.76 7.88 16.73 14.779 26.67 20.51 7.89 4.54 16.44 8.38 25.41 11.399 5.761 1.933 10.906 3.267 15.156 4.194l-11.454 38.395-21.944 7.021c-5.26 1.683-8.16 7.312-6.477 12.571 1.359 4.248 5.29 6.956 9.522 6.956 1.009 0 2.037-.154 3.05-.479l25.12-8.037 45.896 3.409c5.502.406 10.304-3.725 10.713-9.232s-3.724-10.304-9.232-10.713l-35.439-2.632 11.175-37.459 43.563-14.884c.94 3.061 2.17 5.93 3.66 8.521 5.71 10 14.53 14.449 19.28 16.21 4.351 1.64 9.034 2.598 13.943 2.882l18.253 34.008-15.521 4.965c-5.26 1.683-8.161 7.312-6.478 12.571 1.359 4.247 5.29 6.956 9.522 6.956 1.009 0 2.037-.154 3.049-.479l25.12-8.036 45.896 3.409c5.493.394 10.304-3.724 10.713-9.232.409-5.507-3.724-10.304-9.232-10.713l-42.36-3.146-21.513-40.082 57.606-96.514c9.2-4.78 17.46-10.78 24.56-17.851 6.7-6.67 12.41-14.34 16.98-22.8 2.63-4.85.83-10.93-4.02-13.56-1.46-.79-3.1-1.21-4.76-1.21-3.67 0-7.04 2-8.79 5.229-8.15 14.92-19.74 25.9-35.44 33.57-1.76.85-3.21 2.189-4.21 3.87l-59.11 99.03c-2.4-.221-6.94-.931-10.55-3.25-2.4-1.5-4.17-3.341-5.6-5.801-1.86-3.25-2.91-7.3-3.22-12.37-.027-.481-4.674-33.125-4.674-33.125-.772-5.469-5.831-9.278-11.301-8.502-5.469.772-9.275 5.832-8.502 11.301l3.411 24.13-49.474 16.905c-5.44-.75-19.77-3.34-35.69-11.199-11.32-5.57-21.23-12.7-29.45-21.181-10.19-10.529-17.89-23.25-22.87-37.809-.23-.68-5.32-8.11-9.01-11.97-11.09-11.511-29.66-26.25-52.29-41.49-23.64-15.879-46.65-28.77-64.78-36.299-1.93-.761-4.83-2.971-6.95-6.181-2.58-3.859-3.9-8.399-3.91-13.5.02-12.472 9.986-22.672 22.322-22.975 4.274.611 32.321 5.37 52.904 27.188 1.967 2.085 4.619 3.138 7.276 3.138 2.461 0 4.928-.903 6.86-2.726 4.017-3.79 4.202-10.119.412-14.137-27.208-28.84-64.255-33.245-65.819-33.419-.033-.003-23.955-3.469-23.955-23.049 0-12.66 10.27-22.97 22.85-22.99 1.986 0 3.953.269 5.875.786 5.047 2.442 35.745 17.928 53.828 41.604 1.968 2.576 4.944 3.931 7.955 3.931 2.117 0 4.25-.67 6.062-2.054 4.389-3.353 5.229-9.628 1.877-14.017-21.242-27.811-55.894-45.033-61.406-47.658-6.744-4.25-10.762-11.51-10.762-19.491-.009-11.498 8.297-21.015 19.321-22.711 9.884 5.669 47.12 28.964 60.774 65.114 1.512 4.004 5.316 6.47 9.356 6.47 1.174 0 2.369-.209 3.532-.648 5.167-1.951 7.772-7.722 5.821-12.888-15.162-40.141-52.906-65.587-67.233-74.077 1.575-11.147 11.12-19.76 22.617-19.78 4.5 0 8.68 1.25 12.44 3.71.037.024.077.042.114.066.021.013.039.029.06.042.31.194 31.167 19.983 43.381 68.847 1.136 4.544 5.213 7.577 9.694 7.577.803 0 1.619-.097 2.433-.301 5.358-1.339 8.616-6.769 7.277-12.126-10.56-42.247-33.554-65.979-45.185-75.705.564-1.257 5.127-10.35 5.266-10.53 1.79-2.521 4.13-4.41 7.15-5.79 2.98-1.35 6.51-2.06 10.22-2.06h.11c5.99 0 12.39 1.979 17.11 5.29 6.17 4.42 11.99 13.319 16.82 25.729 6.17 15.94 13.52 45.969 13.51 98.559 0 14.32-.541 29.783-1.61 46.035l-54.641 23.008c-2.961 1.246-5.143 3.84-5.864 6.971-.371 1.609-8.792 39.79 16.617 71.718 21.397 26.888 59.458 40.521 113.127 40.521 44.978 0 91.458-23.511 115.659-58.504 16.504-23.864 20.658-50.09 11.697-73.849-1.949-5.167-7.72-7.775-12.885-5.827-5.168 1.949-7.777 7.718-5.828 12.886 6.575 17.431 3.225 37.112-9.433 55.414-20.634 29.835-60.503 49.88-99.21 49.88-47.128 0-79.874-11.03-97.326-32.785-14.848-18.507-14.6-40.612-13.622-50.17l155.177-67.138c3.16-1.38 5.35-4.25 5.87-7.66 0 0 .01-.05.04-.26.05-.319 5.07-32.34 21.33-62.809 8.73-16.41 19.05-29.37 30.69-38.5 10.584-8.266 21.986-13.372 34.572-15.455 9.153 10.449 8.368 16.531 7.396 24.036-.412 3.18-.877 6.773-.662 10.68.068 6.414 2.14 12.351 5.606 17.225 2.102 5.019 7.198 17.697 12.587 34.863 8.14 25.95 13.33 50.391 15.42 72.63.24 2.5 1.39 4.8 3.24 6.471 2.08 1.88 4.86 2.81 7.66 2.55 5.48-.53 9.52-5.41 9.01-10.891v-.01c-3.472-36.206-13.686-70.518-21.637-92.91 15.888-.873 28.547-14.107 28.547-30.253 0-4.813-1.463-8.698-2.64-11.821-.089-.238-.175-.474-.264-.711 0 0 5.259.391 5.515.391 5.177 0 9.56-3.991 9.96-9.239.429-5.502-3.695-10.306-9.202-10.726zm-25.395 25.507c.218.611 2.034 5.435 2.034 6.605 0 5.681-4.583 10.302-10.218 10.302-5.634 0-10.217-4.621-10.217-10.302 0-2.123.147-5.078.498-7.785 1.345-10.387 3.188-24.611-16.377-44.259-.05-.05-3.327-3.246-3.327-7.59 0-5.681 4.583-10.302 10.217-10.302 6.673 0 8.783 3.216 9.789 5.635 2.526 6.075 7.847 6.547 9.418 6.547 5.634 0 10.218 4.621 10.218 10.302 0 1.198-1.638 5.748-1.801 6.215v-.001c-5.622 16.116-2.037 29.589-.234 34.633z"/><circle cx="468.835" cy="258.968" r="10"/></g></g></svg>