<svg id="Layer_1" enable-background="new 0 0 512 512" height="512" viewBox="0 0 512 512" width="512" xmlns="http://www.w3.org/2000/svg"><g><path d="m481.14 137.609c7.811-7.803 7.811-20.454 0-28.257s-21.474-7.803-29.284 0c-2.705 2.702-11.858 11.631-16.805 27.233-5.105 16.101-5.053 32.51-5.053 32.51-60 25.633-116.282 80.8-153 111.226-103.691 85.923-267 127.888-267 127.888 143.5 5.994 293.666-82.589 293.666-82.589 44 4.662 64.333-10.823 64.333-10.823 17 27.973 43.5 28.972 43.5 28.972 131-84.918 69.643-206.16 69.643-206.16z" fill="#d0a09d"/><path d="m491.257 167.811c-36.68 13.63-58.51 2.84-61.02 1.49-.16-.14-.24-.21-.24-.21s-.05-16.4 5.05-32.51c4.95-15.6 14.1-24.53 16.81-27.23 7.81-7.8 21.47-7.8 29.28 0 7.81 7.81 7.81 20.46 0 28.26.001-.001 5.89 11.629 10.12 30.2z" fill="#ff7b79"/><path d="m477.737 275.562c3.93-59.851-43.7-102.921-47.5-106.261 2.51 1.35 24.34 12.14 61.02-1.49 6.01 26.38 8.69 66.76-13.52 107.751z" fill="#ff7b79"/><g><circle cx="333.2" cy="232.279" r="10"/><path d="m501.993 133.503c.953 0 1.923-.138 2.882-.426 5.289-1.59 8.288-7.166 6.699-12.455-4.362-14.513-17.253-19.823-26.436-20.995-5.26-3.97-11.742-6.127-18.641-6.127-8.096 0-15.609 2.962-21.241 8.336-2.466 2.094-7.928 5.125-10.179 3.801-4.758-2.81-10.89-1.225-13.693 3.533-2.806 4.758-1.224 10.889 3.533 13.693 1.327.783 2.673 1.391 4.028 1.858-1.319 2.864-2.469 5.813-3.428 8.838-3.47 11.04-4.77 21.811-5.25 28.91-18.06 8.28-36.8 19.44-57.3 34.12-2.18 1.56-3.61 3.86-4.05 6.5-.44 2.63.18 5.28 1.74 7.45 1.87 2.62 4.909 4.18 8.13 4.18 2.1 0 4.109-.65 5.819-1.87 19.169-13.731 36.685-24.21 53.351-31.901 11.556 11.689 41.831 46.773 39.916 91.76-12.8 22.723-32.546 43.119-58.776 60.672-.24-.05-9.54-2.49-15.29-6.04-4.308-2.667-8.107-5.902-11.475-9.776 12.692-8.713 34.866-26.596 46.715-51.808 2.35-4.998.202-10.955-4.796-13.304-5-2.351-10.956-.202-13.304 4.796-14.043 29.877-48.96 49.552-49 49.582-2.42 1.609-15.83 9.64-42.221 9.66-4.83 0-9.88-.271-15.01-.82-2.12-.22-4.3.25-6.13 1.34 0 0-39.79 22.83-91.13 42.66-40.53 15.68-79.95 26.79-117.18 33.02 6.05-2.25 12.11-4.569 18.01-6.899 31.71-12.53 61.3-26.13 87.97-40.42 33.57-17.99 62.88-37.28 87.12-57.351 7.1-5.88 15.09-12.83 22.14-18.95 4.16-3.619 4.61-9.949.99-14.109-1.9-2.19-4.65-3.44-7.55-3.44-2.41 0-4.74.87-6.561 2.45-8.46 7.35-15.439 13.4-21.779 18.65-52.55 43.59-121.28 75.479-169.67 94.56-27.52 10.86-51.51 18.82-66.79 23.58-8.72 2.72-26.61 7.75-26.65 7.77v-.01c-2.32.601-4.35 2.01-5.72 3.99-1.37 1.97-1.99 4.37-1.73 6.75.25 2.38 1.35 4.59 3.1 6.24 1.75 1.64 4.03 2.6 6.42 2.7 4.74.199 9.62.3 14.52.3 32.58-.021 67.79-4.46 104.66-13.221 29.31-6.96 59.9-16.689 90.94-28.92 44.74-17.649 77.25-35.439 86.18-40.479 4.68.41 13.979.61 13.979.61 21.421 0 36.32-4.681 45.061-8.61 9.32 11.81 19.97 17.99 27.27 21.09 3.431 1.464 6.582 2.478 9.311 3.187v26.347h-5.5c-5.522 0-10 4.478-10 10s4.478 10 10 10h50c5.522 0 10-4.478 10-10s-4.478-10-10-10h-24.5v-29.382c28.869-19.536 50.588-42.444 64.677-68.203.242-.379 19.313-35.542 19.313-76.047 0-13.026-4.407-38.974-4.771-40.551-2.59-11.231-5.82-19.97-8.03-25.34 1.429-2.364 2.514-4.903 3.24-7.539 1.723 1.312 3.85 2.06 6.067 2.06zm-61.663 29.015c.473-5.809 1.6-14.621 4.257-22.908 1.78-5.619 4.41-10.89 7.83-15.649 2.66-3.7 6.5-7.53 6.5-7.53 1.81-1.84 4.65-2.93 7.58-2.93s5.77 1.09 7.569 2.93c1.91 1.9 2.921 4.34 2.931 7.05-.01 2.71-1.021 5.15-2.931 7.051-3.06 3.069-3.81 7.729-1.85 11.6.03.06 3.43 6.84 6.83 18.46.06.205.121.426.181.636-18.773 5.281-32.038 3.273-38.897 1.29zm42.334 70.597c-5.934-19.765-15.918-36.291-25.109-48.48 7.501-.11 16.205-1.179 26.008-3.851 1.149 7.245 1.944 15.386 1.935 24.086-.009 9.648-.964 19.077-2.834 28.245z"/></g></g></svg>