<svg id="Layer_1" enable-background="new 0 0 512 512" height="512" viewBox="0 0 512 512" width="512" xmlns="http://www.w3.org/2000/svg"><g><path d="m196.412 310.87s-114.079-38.87-186.408-70.87c0 0 154.249-10.03 209.608 4.09 5.6 46.59-23.2 66.78-23.2 66.78z" fill="#ffda8f"/><path d="m261.992 335.15c33-40.85 21.03-84.93 21.03-84.93.01 0 137.309 11.95 161.979 19.78-.001 0-100.68 57.3-183.009 65.15z" fill="#ffda8f"/><path d="m289.981 224.88c-2.64 5.78-5.52 16.07-6.96 25.34 0 0 11.97 44.08-21.03 84.93-5.24 5.86-57.659 49.18-57.659 49.18-45.33 60-45 66.67-66.66 66.67-20.28 0 32.66-74 32.66-74 13.34-41.33 26.08-66.13 26.08-66.13s28.8-20.19 23.2-66.78c10.52 2.69 20.88-5.6 19.91-16.42-.1-1.03-.29-1.98-.6-2.79-5.92-15.47-3.28-32.96 10.7-41.31 13.99-8.35 65.379.55 65.379.55s-16.75 22.61-25.02 40.76z" fill="#b8ecbc"/><g><path d="m509.774 54.71c-3.475-4.294-9.772-4.958-14.064-1.484-84.365 68.262-166.23 112.112-182.33 120.485-15.817-2.558-54.119-7.54-68.886 1.274-17.182 10.263-23.187 31.675-14.968 53.321.01.054.025.143.036.257.212 2.367-1.108 3.871-1.914 4.557-.734.625-2.746 2-5.559 1.282-.003-.001-.005-.001-.008-.002-10.17-2.58-23.409-4.49-40.469-5.82-2.77-.21-5.5.74-7.55 2.62-1.86 1.72-2.99 4.06-3.19 6.58-.42 5.5 3.7 10.32 9.2 10.75 11.87.91 22.02 2.16 30.18 3.73.06 1.2.08 2.41.08 3.6-.02 13.81-3.48 26.02-10.28 36.3-1.8 2.7-3.79 5.17-5.91 7.36-4.18-1.45-92.269-32.67-139.618-51.68 12.51-.48 24.79-.82 36.509-1.04 5.52-.1 9.92-4.66 9.82-10.18-.05-2.64-1.11-5.11-3-6.95-1.92-1.89-4.48-2.93-7.18-2.86-43.89.8-80.959 3.19-81.32 3.21-4.61.3-8.39 3.68-9.2 8.23-.8 4.55 1.58 9.03 5.8 10.89 59.051 26.118 145.883 56.846 176.648 67.541-4.929 10.933-12.956 30.105-21.311 55.783-2.831 4.018-11.711 16.793-20.176 30.824-18.894 31.316-20.202 42.717-16.354 50.202 2.454 4.773 7.161 7.51 12.912 7.51 22.511 0 28.356-7.958 52.957-41.454 5.596-7.62 12.523-17.051 20.977-28.255 9.451-7.816 43.724-36.24 54.855-46.552 82.749-9.161 179.357-63.699 183.484-66.048 3.453-1.965 5.415-5.788 4.999-9.739-.417-3.951-3.133-7.281-6.92-8.483-21.268-6.75-118.614-16.105-152.959-19.204 1.306-5.134 2.802-9.582 4.015-12.238 6.414-14.078 18.572-31.469 22.609-37.096 14.596-7.551 99.34-52.551 186.599-123.155 4.295-3.476 4.959-9.772 1.486-14.066zm-227.296 267.414c12.546-24.008 13.457-46.877 12.332-60.817 31.318 2.851 85.942 8.261 120.023 13.161-30.221 14.937-82.972 38.422-132.355 47.656zm-1.592-101.399c-3.084 6.75-7.742 28.023-7.745 28.057-.195 1.339-.134 2.719.23 4.059.106.391 10.242 39.397-18.965 75.781-3.618 3.838-57.583 49.059-58.053 49.681-8.855 11.722-16.056 21.526-21.843 29.404-18.971 25.83-23.504 31.62-30.149 32.918 1.769-4.966 5.903-14.053 15.56-29.768 9.11-14.823 18.451-27.909 18.544-28.039.6-.838 22.813-59.106 25.924-65.52 2.782-2.352 7.549-6.93 12.302-14.048 6.24-9.31 13.67-25.09 13.64-47.39 0-.71-.018-1.427-.033-2.144 3.746-.985 7.282-2.788 10.309-5.364 6.382-5.43 9.617-13.294 8.867-21.65-.195-2.008-.592-3.773-1.214-5.397-3.918-10.24-3.432-23.225 6.486-29.149 5.037-3.006 23.831-2.641 42.803-.441-5.486 8.3-12.182 19.175-16.663 29.01z"/><circle cx="135.881" cy="236.671" r="10"/></g></g></svg>