<svg id="Layer_1" enable-background="new 0 0 512 512" height="512" viewBox="0 0 512 512" width="512" xmlns="http://www.w3.org/2000/svg"><g><path d="m468.04 200.72s18.96 145.28-151.04 150.61l-20.67 12-164.315-89.62c9.44-4.07 68.205-28.84 76.985-33.38l58-31.33s35.02-33.87 82.37-59.92c16.49-9.08 32-19.77 46.76-31.45 7.7-6.09 18.83-11.63 33.87-11.63 30.38 0 55 24.62 55 55 0 15.61-6.52 29.7-16.97 39.71z" fill="#ff7b79"/><path d="m485 161c0 7.84-1.65 15.3-4.62 22.06-41.39-56.73-84.38-24.63-84.38-24.63l-46.63-9.35c16.49-9.08 32-19.77 46.76-31.45 7.7-6.09 18.83-11.63 33.87-11.63 30.38 0 55 24.62 55 55z" fill="#89a7bc"/><path d="m291.118 270.819s-64.118 41.181-132.118 43.181c-33.827.995-149 33-149 33v-27s93.63-33.04 171.57-66.75z" fill="#89a7bc"/><path d="m408.57 204.83c-.507 3.264-15.99 59.65-96.24 64.64-82.66 5.14-220.352-22.727-220.352-22.727l257.392-97.663s69.302-9.251 59.2 55.75z" fill="#a0c8ff"/><g><path d="m494.985 160.413c-.318-35.571-29.341-64.413-64.985-64.413-14.813 0-28.669 4.767-40.075 13.788-15.303 12.11-29.966 21.991-44.801 30.206l-74.804 28.386c-2.489.94-4.47 2.81-5.569 5.24-1.09 2.44-1.181 5.16-.23 7.65 1.471 3.87 5.23 6.46 9.36 6.46 1.21 0 2.4-.22 3.54-.65l.01-.01 74.28-28.18c1.33-.12 6.56-.27 6.71-.27 3.82 0 17.02.44 26.689 5.97 4.44 2.51 7.761 5.67 10.141 9.65 2.89 4.92 4.31 10.91 4.319 18.35 0 3.26-.279 6.8-.85 10.53-.01.04-1 4.05-3.86 9.63-3.8 7.51-11.09 18.43-24.149 27.81-15.46 11.07-35.311 17.43-59 18.93-6.53.41-21.5.61-21.5.61-42.22 0-93.28-6.29-128.68-11.57-10.69-1.59-21.601-3.33-32.44-5.17l64.179-24.36c5.16-1.95 7.761-7.74 5.811-12.89-1.471-3.86-5.23-6.46-9.36-6.46-1.21 0-2.4.22-3.54.65l-97.75 37.09c-4.14 1.57-6.78 5.75-6.42 10.17.36 4.41 3.64 8.11 7.98 8.98.192.044 16.091 3.253 40.171 7.277-63.055 25.383-122.793 46.507-123.49 46.753-3.998 1.411-6.672 5.19-6.672 9.43v27c0 3.125 1.461 6.071 3.949 7.961 1.76 1.337 3.89 2.039 6.052 2.039.895 0 1.795-.12 2.677-.365 1.14-.317 114.376-31.69 146.616-32.639 12.329-.363 24.488-1.937 36.172-4.288l95.275 51.965 30.029 24.327h-5.77c-5.522 0-10 4.477-10 10s4.478 10 10 10h33.982.012.009 47.567c5.522 0 10-4.477 10-10s-4.478-10-10-10h-44.028l-38.644-31.306 5.958-3.459c56.206-2.233 98.561-19.654 125.903-51.8 33.833-39.775 33.679-89.352 32.646-105.07 5.45-6.056 9.636-12.962 12.444-20.413.711 1.158 1.151 2.308 1.151 3.381 0 5.523 4.478 10 10 10s10-4.477 10-10c0-12.998-10.311-22.266-17.015-26.92zm-336.279 143.591c-28.175.829-107.508 21.502-138.706 29.903v-6.859c20.893-7.5 87.275-31.648 148.382-57.311 32.031 4.561 60.85 7.625 86.166 9.175-24.191 11.149-59.61 24.026-95.842 25.092zm302.407-110.516c-1.942 1.86-3.049 4.43-3.077 7.119-.006.525 5.575 57.126-27.645 96.026-20.12 23.561-50.34 37.939-90.02 42.894 2.332-4.834 3.25-8.507 3.332-8.851 1.29-5.37-2.018-10.769-7.388-12.059-5.368-1.291-10.769 2.018-12.06 7.387-.026.113-3.114 11.499-12.193 16.625-.027.015-15.887 9.227-15.887 9.227l-72.401-39.489c36.881-11.631 64.941-28.29 71.414-32.296 6.253-.071 12.212-.278 17.761-.621 19.51-1.17 37.17-5.45 52.479-12.7 12.63-5.99 23.49-13.88 32.271-23.46 6.56-7.11 11.92-14.98 15.93-23.38 1.36-2.85 5.939-13.66 5.939-27.32 0-10.98-2.38-20.59-7.119-28.55-.427-.719-.871-1.412-1.325-2.089 5.271-1.867 12.466-3.345 20.657-2.111 12.965 1.954 25.326 10.138 36.81 24.31-2.04 3.38-4.537 6.521-7.478 9.338zm13.875-31.997c-12.341-12.051-25.81-19.255-40.226-21.427-17.901-2.7-32.394 3.255-39.672 7.212-3.616-2.057-13.032-5.427-14.435-5.804 7.155-4.902 14.352-10.201 21.679-15.999 7.947-6.286 17.256-9.473 27.666-9.473 24.813 0 45 20.187 45 45 0 .164-.01.327-.012.491z"/><path d="m231.8 203.69c1.21 0 2.4-.22 3.55-.65 5.15-1.96 7.75-7.74 5.8-12.9-1.47-3.86-5.22-6.45-9.35-6.45-1.21 0-2.41.22-3.55.65-5.15 1.96-7.76 7.74-5.8 12.9 1.46 3.86 5.22 6.45 9.35 6.45z"/></g></g></svg>