<svg id="Layer_1" enable-background="new 0 0 512 512" height="512" viewBox="0 0 512 512" width="512" xmlns="http://www.w3.org/2000/svg"><g><path d="m271.738 476.649s47.004-37.358 65.005-96.065c18.001-58.706 44.94-252.768 4.469-323.184 3.782-4.963 6.032-11.157 6.032-17.88 0-16.303-13.209-29.52-29.502-29.52-9.917 0-56.005-1.668-84.007 31.688-18.697 22.272-98.341 88.727-79.673 284.859 0 0 9.883 130.088-54.063 158.774 0 0 56.064 20.014 120.069-11.341l22.668 28.02h73.006c-.001 0-8.668-28.686-44.004-25.351z" fill="#fff"/><path d="m349.526 48.6c7.73-7.692 17.72-17.085 17.72-17.085s-19.247-21.515-49.504-21.515c-4.822 0-18.2-.383-33.885 3.045 0 .001-5.968 13.982 6.883 36.481 8.259 14.461 55.486 18.315 55.486 18.315-3.105-6.463-1.784-14.183 3.3-19.241z" fill="#ffda8f"/><path d="m219.4 205.133c-5.877-37.382 13.354-82.115 28.407-110.124 9.539-17.75 4.827-39.938-11.378-51.915-1.494-1.104-2.48-1.66-2.694-1.404-18.697 22.272-98.341 88.727-79.673 284.859 0 0 2.559 20.995 1.482 47.972 55.485-30.083 73.19-110.015 63.856-169.388z" fill="#89a7bc"/><g><path d="m362.329 165.001h-.05c-2.68.01-5.18 1.06-7.06 2.96s-2.91 4.42-2.89 7.091c.03 5.49 4.51 9.95 10 9.95h.05c5.51-.03 9.97-4.54 9.95-10.05 0 0 0 0 0-.01-.03-5.481-4.52-9.941-10-9.941z"/><path d="m417.851 32.162c-14.31-10.329-36.82-11.065-46.721-10.832-7.562-6.873-26.645-21.33-53.388-21.33 0 0-20.514-.113-36.02 3.276h-.001l-.002-.01c-10.31 2.25-19.87 5.68-28.42 10.19-10.61 5.6-19.77 12.93-27.22 21.801-1.36 1.63-14.5 15.94-20.04 22.68-7.99 9.741-14.98 19.661-21.39 30.351-8.16 13.61-15.25 28.401-21.08 43.951-6.92 18.42-12.3 38.521-15.99 59.721-4.2 24.101-6.33 50.231-6.33 77.682 0 18.431.96 37.841 2.85 57.721.01.13.51 9.43.51 17.891.02 15.46-1.08 45.521-8.63 73.082-3.86 14.161-8.97 26.131-15.19 35.571-7.01 10.62-15.15 17.911-24.88 22.291-1.83.82-3.35 2.15-4.41 3.86-1.05 1.7-1.57 3.66-1.49 5.66.08 1.99.75 3.9 1.93 5.52 1.19 1.62 2.81 2.83 4.7 3.5l.04.02c1.3.45 6.16 2.04 13.84 3.58 10.82 2.17 22.23 3.27 33.9 3.28 11.34 0 22.77-1.08 33.93-3.22 13.28-2.53 26.35-6.6 38.85-12.07l17.76 21.961c1.88 2.32 4.79 3.71 7.78 3.71h73c3.2 0 6.13-1.47 8.03-4.04 1.91-2.56 2.47-5.79 1.54-8.85l-.03-.11c-.85-2.62-3.51-9.46-9.81-16.5-4.23-4.7-9.24-8.45-14.9-11.14-1.93-.93-3.97-1.74-6.07-2.41 3.64-3.81 7.22-7.81 10.65-11.89 8.51-10.14 16.06-20.781 22.46-31.611 8.05-13.65 14.34-27.76 18.7-41.931 4.94-16.151 10.1-40.361 14.52-68.172 4.96-31.221 8.51-63.992 10.26-94.783.31-5.5-3.92-10.23-9.42-10.55-.19-.01-.38-.01-.57-.01-5.3 0-9.68 4.14-9.98 9.43-2.16 38.051-6.65 71.452-10.04 92.772-4.211 26.55-9.28 50.411-13.9 65.451-8.79 28.731-25.16 52.052-37.35 66.542-6.93 8.26-13.25 14.571-17.32 18.42-2.3 2.16-6.99 6.2-6.99 6.2-4.32 3.43-5.04 9.741-1.61 14.05 1.91 2.4 4.77 3.78 7.84 3.78.93 0 5.22-.27 5.57-.27 5.57.01 10.36 1 14.65 3.03 1.52.73 2.99 1.6 4.35 2.59h-48.81l-17.974-22.215-3.868-24.311c-.868-5.455-5.989-9.17-11.447-8.305-5.454.868-9.172 5.993-8.305 11.447l3.094 19.45c-20.551 8.979-42.249 13.544-64.61 13.553-6.61 0-13.22-.41-19.66-1.22 4.64-4.46 8.93-9.68 12.76-15.5 5.7-8.7 10.57-18.951 14.47-30.461 3.35-9.86 6-20.541 8.1-32.651 1.092-6.341 1.991-12.997 2.695-19.854 56.927-32.832 76.618-114.09 66.515-178.354-5.605-35.658 14.721-80.362 27.337-103.837 10.507-19.551 6.918-43.564-7.892-59.079 6.746-5.9 14.755-10.585 23.978-13.996.664 7.405 3.091 16.854 9.354 27.819 5.032 8.809 16.92 14.973 37.414 19.396 7.671 1.656 14.931 2.691 19.814 3.281 5.126 14.076 8.884 32.531 10.955 53.866.24 2.49 1.39 4.78 3.25 6.45 2.08 1.88 4.88 2.8 7.67 2.53 2.66-.26 5.06-1.54 6.75-3.6 1.7-2.06 2.49-4.66 2.23-7.31v-.01c-2.288-23.343-6.184-42.478-11.851-58.194-.871-2.416-3.26-8.191-3.522-8.781-.538-2.283.106-4.728 1.813-6.427 5.138-5.113 11.363-11.057 14.838-14.354 8.809-.188 26.039.772 34.73 7.046 1.77 1.277 3.816 1.892 5.844 1.892 3.103 0 6.162-1.44 8.117-4.149 3.232-4.474 2.222-10.725-2.257-13.957zm-178.853 58.113c-16.863 31.378-35.665 77.045-29.476 116.411 8.068 51.319-5.474 117.505-45.103 149.861.114-3.75-.4-30.951-.4-30.951-1.84-19.281-2.77-38.111-2.77-55.952.02-62.611 11.4-116.123 33.82-159.054 7.5-14.341 16.15-27.411 26.44-39.971 4.99-6.09 9.43-10.93 13.34-15.19.051-.056.098-.107.149-.162 8.342 9.377 10.205 23.461 4 35.008zm103.475-48.764c-4.139 4.118-6.714 9.355-7.58 14.867-3.402-.52-7.255-1.193-11.204-2.045-21.073-4.548-24.237-9.714-24.266-9.765-5.975-10.461-7.067-18.311-6.964-22.971 10.524-1.677 25.283-1.596 25.283-1.596 15.244 0 27.391 6.607 34.635 11.856-3.106 2.981-6.681 6.446-9.904 9.654z"/></g></g></svg>