<svg id="Layer_1" enable-background="new 0 0 512 512" height="512" viewBox="0 0 512 512" width="512" xmlns="http://www.w3.org/2000/svg"><g><g fill="#b8ecbc"><circle cx="104.35" cy="253.318" r="20"/><circle cx="29.996" cy="256.021" r="20"/><circle cx="178.108" cy="254.909" r="20"/><circle cx="407.65" cy="258.682" r="20"/><circle cx="482.004" cy="256.041" r="20"/><circle cx="333.892" cy="257.091" r="20"/><circle cx="179.998" cy="119" r="20"/><circle cx="132.996" cy="43" r="20"/><circle cx="379.004" cy="43" r="20"/><circle cx="332.002" cy="119" r="20"/><circle cx="294.001" cy="189" r="20"/><circle cx="217.999" cy="188" r="20"/><circle cx="332.002" cy="393" r="20"/><circle cx="379.004" cy="469" r="20"/><circle cx="132.996" cy="469" r="20"/><circle cx="179.998" cy="393" r="20"/><circle cx="217.999" cy="323" r="20"/><circle cx="294.001" cy="324" r="20"/><circle cx="256" cy="256" r="20"/></g><g><path d="m497.005 230.061c-6.2-3.58-13.312-4.804-20.277-3.548-47.668-38.608-78.735-94.725-86.046-155.88 10.759-4.563 18.324-15.231 18.324-27.633 0-16.542-13.459-30-30.002-30s-30.002 13.458-30.002 30c0 1.24.082 2.461.23 3.661-59.354 25.457-127.048 25.474-186.465.022.149-1.208.232-2.435.232-3.683 0-16.542-13.459-30-30.002-30s-30.002 13.458-30.002 30c0 12.412 7.577 23.088 18.35 27.645-7.281 61.086-38.347 117.187-86.018 155.839-4.298-.778-8.751-.604-13.095.56-7.741 2.074-14.21 7.038-18.218 13.978-8.271 14.326-3.344 32.709 10.982 40.98 4.623 2.668 9.754 4.032 14.953 4.032 1.789 0 3.586-.174 5.373-.499 47.638 38.607 78.684 94.701 85.99 155.835-10.755 4.565-18.317 15.231-18.317 27.63 0 16.542 13.459 30 30.002 30s30.002-13.458 30.002-30c0-1.246-.083-2.473-.232-3.68 59.353-25.454 127.054-25.476 186.469-.024-.151 1.214-.234 2.449-.234 3.704 0 16.542 13.459 30 30.002 30s30.002-13.458 30.002-30c0-12.425-7.593-23.108-18.383-27.657 2.043-17.515 6.017-34.694 11.922-51.313 1.85-5.2-.87-10.93-6.071-12.77-1.08-.39-2.21-.58-3.351-.58-4.22 0-8.011 2.67-9.422 6.65-5.981 16.84-10.201 34.38-12.532 52.16l-14.603-25.296c3.422-4.873 5.439-10.801 5.439-17.194 0-8.791-3.801-16.71-9.846-22.202 4.141-13.261 9.427-26.046 15.787-38.259l4.797 2.966c1.639 1.014 3.456 1.497 5.251 1.497 3.35 0 6.624-1.683 8.516-4.742 2.905-4.697 1.452-10.86-3.246-13.765l-5.316-3.287c6.2-9.755 13.129-19.077 20.773-27.89 2.881.904 5.867 1.377 8.88 1.377 2.606 0 5.23-.343 7.814-1.035 7.741-2.074 14.21-7.038 18.217-13.978 1.422-2.463 2.445-5.048 3.106-7.679h16.987c1.089 3.099 2.685 6.024 4.752 8.644-10.067 8.621-19.491 18.019-28.099 28.084-3.58 4.19-3.09 10.52 1.1 14.1 1.81 1.55 4.121 2.4 6.491 2.4 2.93 0 5.711-1.27 7.611-3.5 9.45-11.04 19.845-21.105 31.049-30.17 1.755.321 3.534.494 5.324.494 2.606 0 5.229-.343 7.814-1.036 7.741-2.074 14.211-7.038 18.218-13.978 8.273-14.326 3.346-32.71-10.98-40.98zm-458.35 30.96c-1.335 2.313-3.492 3.968-6.071 4.659-2.579.692-5.273.336-7.586-.998-4.776-2.757-6.418-8.886-3.66-13.662 1.336-2.313 3.492-3.968 6.071-4.659.861-.231 1.735-.345 2.604-.345 1.732 0 3.442.455 4.983 1.344 4.775 2.758 6.417 8.886 3.659 13.661zm340.349 197.979c5.513 0 9.999 4.486 9.999 10s-4.486 10-9.999 10-9.999-4.486-9.999-10 4.486-10 9.999-10zm0-426c5.513 0 9.999 4.486 9.999 10s-4.486 10-9.999 10-9.999-4.486-9.999-10 4.486-10 9.999-10zm-128.476 252.48c1.777.329 3.601.52 5.472.52s3.7-.181 5.478-.51l10.492 18.173c-2.09 2.262-3.835 4.846-5.155 7.667-7.068-.308-14.14-.331-21.202-.056-1.29-3.027-3.078-5.787-5.238-8.208zm-4.527-29.48c0-5.514 4.486-10 9.999-10s9.999 4.486 9.999 10-4.486 10-9.999 10-9.999-4.486-9.999-10zm15.471-29.48c-1.777-.329-3.601-.52-5.472-.52s-3.7.181-5.477.51l-10.492-18.173c2.08-2.251 3.819-4.82 5.137-7.626 3.684.163 7.369.251 11.053.251 3.393 0 6.785-.083 10.175-.22 1.29 3.02 3.075 5.775 5.231 8.192zm-47.29-8.771c1.251.16 2.523.251 3.817.251 1.471 0 2.916-.111 4.331-.317l10.878 18.841c-2.371 2.77-4.247 5.973-5.489 9.476h-20.981c-.91-2.929-2.267-5.72-4.039-8.265 4.13-6.489 7.957-13.159 11.483-19.986zm-6.182-29.749c0-5.514 4.486-10 9.999-10s9.999 4.486 9.999 10-4.486 10-9.999 10c-5.514 0-9.999-4.486-9.999-10zm-3.909 81.909c.735-1.274 1.362-2.581 1.891-3.909h21.736c1.242 3.501 3.126 6.697 5.494 9.467l-10.356 17.936c-1.583-.259-3.203-.403-4.858-.403-1.471 0-2.916.111-4.331.317-3.591-6.92-7.501-13.663-11.706-20.219.769-1.011 1.484-2.072 2.13-3.189zm23.907 53.091c0 5.514-4.486 10-9.999 10-5.514 0-9.999-4.486-9.999-10s4.486-10 9.999-10 9.999 4.486 9.999 10zm-16.093 29.377c1.969.408 4.007.623 6.094.623 2.335 0 4.601-.287 6.784-.795l12.954 19.431c-11.024.79-22.013 2.295-32.914 4.537-1.154-1.697-2.486-3.26-3.953-4.684zm13.461-193.457c-2.358-.598-4.826-.92-7.367-.92-2.269 0-4.477.262-6.603.741l-10.522-18.224c1.484-1.44 2.826-3.027 3.989-4.746 10.904 2.249 21.882 3.772 32.882 4.582zm-15.488-42.547c-1.336-15.316-14.223-27.373-29.88-27.373-2.844 0-5.594.406-8.203 1.149l-13.674-23.683c27.867 11.506 57.666 18.058 87.877 19.271v35.044c-12.08-.532-24.147-1.992-36.12-4.408zm-27.276 246.753c-.859-.074-1.725-.126-2.604-.126-.571 0-1.138.02-1.702.051-3.678-11.506-8.154-22.659-13.357-33.421l24.201 1.561c1.139 4.004 3.086 7.672 5.659 10.809zm7.395 29.874c0 5.514-4.486 10-9.999 10-5.514 0-9.999-4.486-9.999-10s4.486-10 9.999-10 9.999 4.486 9.999 10zm.416-81.769-27.056-1.745 12.204-24.682c.83.07 1.662.118 2.497.118 2.388 0 4.789-.302 7.163-.883 3.867 6.034 7.45 12.247 10.754 18.616-2.313 2.502-4.2 5.4-5.562 8.576zm-20.964-61.322c1.336-2.313 3.492-3.968 6.072-4.659.861-.231 1.735-.345 2.604-.345 1.732 0 3.442.454 4.982 1.343 4.776 2.757 6.418 8.886 3.66 13.662-1.335 2.313-3.491 3.967-6.071 4.659s-5.274.336-7.586-.999c-4.777-2.757-6.419-8.886-3.661-13.661zm16.964-23.838c-3.846-1.115-7.871-1.438-11.877-.95l-11.179-22.608 27.489-1.773c1.393 2.951 3.251 5.641 5.482 7.974-3.06 5.92-6.361 11.713-9.915 17.357zm-8.048-77.117c.541.029 1.085.046 1.633.046.879 0 1.747-.046 2.608-.12l11.861 20.544c-2.619 3.31-4.553 7.183-5.595 11.403l-23.903 1.542c5.229-10.77 9.716-21.922 13.396-33.415zm-8.366-29.954c0-5.514 4.486-10 9.999-10s9.999 4.486 9.999 10-4.486 10-9.999 10c-5.514 0-9.999-4.486-9.999-10zm95.164 61.747c-6.013.233-12.033.232-18.052.007-.981-3.939-2.746-7.568-5.113-10.722l14.002-21.003 14.366 21.549c-2.336 2.992-4.13 6.427-5.203 10.169zm-132.167-147.747c5.513 0 9.999 4.486 9.999 10s-4.486 10-9.999 10-9.999-4.486-9.999-10 4.486-10 9.999-10zm7.814 43.487 14.621 25.324c-3.42 4.872-5.435 10.798-5.435 17.189 0 8.796 3.806 16.719 9.856 22.211-4.173 13.36-9.506 26.239-15.932 38.533l-30.354-17.525c14.08-26.72 23.297-55.772 27.244-85.732zm-10.477 191.83c.439-.761.833-1.535 1.199-2.317h18.722c1.557 3.921 3.95 7.524 7.082 10.535l-10.609 21.456c-5.951-8.79-12.459-17.222-19.515-25.247 1.157-1.366 2.206-2.842 3.121-4.427zm-1.017-31.619c6.245-7.278 12.033-14.878 17.381-22.75l9.904 20.029c-1.71 1.763-3.215 3.75-4.476 5.933-1.135 1.966-2.012 4.009-2.66 6.091h-16.041c-.83-3.294-2.212-6.445-4.108-9.303zm-25.771-57.168 30.347 17.52c-6.159 9.659-13.03 18.893-20.607 27.627-5.376-1.689-11.127-1.832-16.701-.337-7.741 2.074-14.21 7.038-18.217 13.978-1.423 2.464-2.446 5.05-3.107 7.682h-17.007c-1.095-3.094-2.696-6.015-4.766-8.629 19.423-16.642 36.337-36.145 50.058-57.841zm9.464 78.788c-1.336 2.313-3.492 3.968-6.072 4.659-2.579.692-5.273.336-7.586-.998-4.776-2.757-6.418-8.886-3.66-13.662 1.335-2.313 3.491-3.968 6.071-4.659.861-.231 1.735-.345 2.603-.345 1.732 0 3.442.455 4.983 1.344 4.776 2.758 6.418 8.886 3.661 13.661zm-59.468 16.303c.89-1.131 1.706-2.332 2.439-3.601.94-1.627 1.7-3.309 2.305-5.02h18.896c2.51 5.396 6.634 10.103 12.168 13.298 4.623 2.668 9.754 4.032 14.953 4.032 1.706 0 3.42-.162 5.126-.458 9.116 10.008 17.282 20.737 24.477 32.07l-30.339 17.516c-13.676-21.694-30.564-41.185-50.025-57.837zm79.455 204.379c-5.513 0-9.999-4.486-9.999-10s4.486-10 9.999-10 9.999 4.486 9.999 10-4.486 10-9.999 10zm7.799-43.466c-3.968-29.888-13.194-58.971-27.25-85.743l30.339-17.516c6.394 12.294 11.727 25.18 15.901 38.575-6.012 5.49-9.79 13.387-9.79 22.15 0 6.391 2.015 12.316 5.434 17.188zm105.203-9.284c-30.179 1.167-59.949 7.701-87.866 19.261l13.661-23.66c2.61.743 5.36 1.15 8.205 1.15 15.687 0 28.591-12.103 29.887-27.459 11.952-2.4 24.018-3.84 36.114-4.348v35.056zm-4.364-84.828c2.341-2.998 4.138-6.441 5.21-10.191 6.01-.228 12.028-.223 18.043.006.98 3.942 2.747 7.576 5.115 10.732l-14.002 21.002zm112.244 104.112c-27.867-11.506-57.666-18.057-87.877-19.271v-35.048c12.08.532 24.147 1.993 36.12 4.408 1.334 15.317 14.222 27.377 29.881 27.377 2.844 0 5.594-.406 8.203-1.149zm-56.015-151.277c-1.266-.163-2.553-.257-3.862-.257-1.471 0-2.916.111-4.331.317l-10.877-18.841c2.371-2.77 4.247-5.973 5.489-9.475h20.981c.911 2.93 2.268 5.722 4.042 8.268-4.12 6.488-7.929 13.161-11.442 19.988zm6.137 29.743c0 5.514-4.486 10-9.999 10s-9.999-4.486-9.999-10 4.486-10 9.999-10c5.514 0 9.999 4.486 9.999 10zm3.909-81.909c-.735 1.274-1.362 2.581-1.891 3.909h-21.736c-1.242-3.501-3.126-6.697-5.494-9.467l10.356-17.937c1.583.259 3.203.403 4.858.403 1.474 0 2.922-.112 4.34-.318 3.597 6.913 7.5 13.655 11.709 20.204-.774 1.017-1.493 2.083-2.142 3.206zm-23.907-53.091c0-5.514 4.486-10 9.999-10 5.514 0 9.999 4.486 9.999 10s-4.486 10-9.999 10-9.999-4.486-9.999-10zm16.093-29.377c-1.969-.408-4.007-.623-6.094-.623-2.335 0-4.602.287-6.784.795l-12.944-19.416c11.02-.796 22.006-2.308 32.904-4.552 1.154 1.697 2.486 3.26 3.954 4.685zm-13.461 193.457c2.358.598 4.826.92 7.367.92 2.269 0 4.477-.262 6.603-.741l10.522 18.225c-1.487 1.443-2.831 3.033-3.995 4.755-10.906-2.249-21.886-3.766-32.888-4.572zm42.765-204.206c.859.074 1.725.126 2.603.126.572 0 1.14-.02 1.704-.052 3.68 11.507 8.158 22.66 13.365 33.422l-24.211-1.561c-1.139-4.004-3.085-7.672-5.659-10.808zm-7.396-29.874c0-5.514 4.486-10 9.999-10 5.514 0 9.999 4.486 9.999 10s-4.486 10-9.999 10-9.999-4.486-9.999-10zm-.416 81.769 27.056 1.745-12.204 24.681c-3.207-.269-6.467-.022-9.675.764-3.866-6.031-7.443-12.243-10.743-18.61 2.315-2.503 4.203-5.403 5.566-8.58zm20.964 61.322c-1.336 2.313-3.492 3.968-6.072 4.659-2.578.692-5.273.337-7.586-.999-4.776-2.757-6.418-8.886-3.66-13.662 1.335-2.313 3.491-3.967 6.071-4.659.861-.231 1.735-.345 2.603-.345 1.732 0 3.442.454 4.983 1.343 4.777 2.76 6.419 8.888 3.661 13.663zm-16.949 23.831c2.683.777 5.451 1.182 8.241 1.182 1.205 0 2.413-.082 3.619-.229l11.18 22.611-27.489 1.773c-1.392-2.949-3.248-5.637-5.476-7.968 3.062-5.924 6.368-11.72 9.925-17.369zm8.067 77.127c-.552-.03-1.107-.049-1.667-.049-.881 0-1.75.046-2.612.121l-11.859-20.542c2.62-3.31 4.554-7.184 5.597-11.405l23.952-1.545c-5.233 10.772-9.73 21.923-13.411 33.42zm8.332 29.951c0 5.514-4.486 10-9.999 10s-9.999-4.486-9.999-10 4.486-10 9.999-10c5.514 0 9.999 4.486 9.999 10zm-1.794-302.85c-2.61-.743-5.36-1.15-8.205-1.15-15.685 0-28.589 12.1-29.886 27.454-11.953 2.4-24.018 3.84-36.114 4.348v-35.044c30.184-1.171 59.947-7.709 87.866-19.269zm21.798 28.85c0-6.391-2.015-12.316-5.434-17.188l14.634-25.346c3.968 29.888 13.194 58.971 27.25 85.743l-30.344 17.519c-6.394-12.293-11.728-25.178-15.901-38.573 6.014-5.491 9.795-13.389 9.795-22.155zm3.301 179.058-9.906-20.035c1.71-1.763 3.215-3.75 4.476-5.933 1.134-1.965 2.012-4.008 2.66-6.089h16.042c.83 3.294 2.212 6.445 4.109 9.303-6.246 7.28-12.04 14.877-17.381 22.754zm16.361-54.375c-.439.761-.833 1.536-1.199 2.317h-18.721c-1.557-3.921-3.95-7.524-7.082-10.536l10.619-21.475c5.954 8.79 12.464 17.222 19.521 25.247-1.165 1.373-2.219 2.855-3.138 4.447zm34.642 20c-1.335 2.313-3.491 3.968-6.071 4.659-2.576.691-5.272.337-7.586-.999-4.775-2.757-6.418-8.886-3.66-13.661 1.336-2.313 3.492-3.968 6.072-4.659.861-.231 1.735-.345 2.604-.345 1.732 0 3.442.455 4.982 1.343 4.775 2.757 6.417 8.886 3.659 13.662zm39.712-22.641c-.928 1.608-1.681 3.268-2.283 4.958h-18.918c-2.51-5.396-6.634-10.104-12.168-13.299-6.143-3.546-13.185-4.783-20.091-3.582-9.112-10.006-17.275-20.731-24.468-32.06l30.343-17.518c13.681 21.706 30.578 41.206 50.051 57.863-.901 1.142-1.726 2.355-2.466 3.638zm34.642 20c-1.336 2.313-3.492 3.968-6.072 4.659-2.578.692-5.273.338-7.586-.998-4.776-2.757-6.418-8.886-3.66-13.662 1.335-2.313 3.491-3.968 6.071-4.659 2.578-.691 5.274-.336 7.586.999 4.776 2.757 6.418 8.885 3.661 13.661z"/><circle cx="411.994" cy="345.9" r="10.001"/></g></g></svg>