<svg id="Layer_1" enable-background="new 0 0 512 512" height="512" viewBox="0 0 512 512" width="512" xmlns="http://www.w3.org/2000/svg"><g><path d="m235.769 388.536c-23.196 50.618-59.953 96.701-79.766 105.898 0 0 78.562 16.99 127.165 0 24.54-8.583 46.344-40.303 59.57-82.56-17.247-34.387-47.03-72.224-47.03-72.224s-27.196 31.268-59.939 48.886z" fill="#fff"/><path d="m351.376 269.024c-18.995-56.4-63.668-102.15-64.538-103.02.27 1.16 14.534 61.18-3.301 81.48 0 0-51.504-18.51-69.009-54.49 8.092 28.31 19.115 55.39 32.349 76.67 18.488 29.727 8.568 75.931-11.109 118.872 32.743-17.618 59.939-48.885 59.939-48.885s29.783 37.837 47.03 72.224c12.97-41.437 17.692-93.005 8.639-142.851z" fill="#ffda8f"/><path d="m266.853 50.033s-32.27 1.075-49.719-21.149c-3.298 3.987-6.407 8.744-9.197 14.419-14.224 28.91-9.953 91.84 6.582 149.68l.01.01c17.505 35.98 69.009 54.49 69.009 54.49 17.835-20.3 3.571-80.32 3.301-81.48.87.87 45.542 46.62 64.538 103.02-.001.001 14.343-165.439-84.524-218.99z" fill="#d0a09d"/><path d="m266.853 50.033c11.033 0 19.975-8.61 19.975-19.24 0-10.62-10.963-16.41-19.975-19.23-9.879-3.099-32.431-3.578-49.719 17.321 17.45 22.225 49.719 21.149 49.719 21.149z" fill="#ffda8f"/><g><path d="m361.441 268.525c.221-3.101.658-10.643.658-21.449-.01-24.56-2.271-61.65-12.963-98.87-1.231-4.26-5.182-7.23-9.603-7.23-.94 0-1.871.13-2.78.39-2.561.74-4.692 2.43-5.982 4.77s-1.6 5.04-.861 7.6c6.008 20.836 9.848 44.11 11.43 69.181-17.858-31.439-38.683-54.709-45.297-61.759l-10.533-50.226c-1.133-5.405-6.436-8.867-11.842-7.735-5.407 1.133-8.871 6.434-7.737 11.839 0 0 11.745 55.79 12.066 57.35 1.06 5.12 4.511 23.1 4.491 39.8.01 6.79-2.552 21.21-3.132 22.74-4.801-2.16-12.133-5.74-19.905-10.56-9.733-5.98-27.297-18.48-35.56-34.99-9.262-32.63-14.563-67.45-14.554-95.55-.06-19.6 2.701-36.4 7.572-46.11.55-1.11 1.12-2.21 1.71-3.26.005.004.01.007.015.01 16.787 13.368 37.867 15.303 45.584 15.543 9.26 5.279 17.851 11.918 25.521 19.746 1.9 1.93 4.431 2.99 7.142 2.99 2.64 0 5.122-1.01 7.002-2.86 3.941-3.86 4.001-10.2.14-14.14-5.058-5.156-10.468-9.864-16.17-14.113 3.636-3.486 6.362-7.866 7.809-12.772 2.484.043 5.454.776 7.976 3.358 1.959 2.007 4.558 3.015 7.158 3.015 2.519 0 5.041-.946 6.986-2.844 3.953-3.858 4.029-10.189.17-14.141-7.534-7.716-16.64-9.714-24.178-9.357-4.099-7.394-12.24-13.212-23.926-16.869-12.825-4.022-39.974-4.23-60.423 20.49-.025.03-.046.063-.071.094-3.921 4.75-7.418 10.228-10.391 16.29-6.411 13.2-9.563 31.17-9.632 54.93.02 29.84 5.289 64.99 14.839 99.257l-6.7 25.764-39.98 20.216c-4.93 2.492-6.905 8.508-4.411 13.437 1.761 3.481 5.281 5.489 8.934 5.489 1.518 0 3.059-.347 4.507-1.079l24.028-11.439c-1.39 5.345 1.817 10.805 7.164 12.194.844.219 1.69.324 2.524.324 4.446 0 8.503-2.985 9.674-7.486l5.796-22.286c6.736 17.588 14.399 33.416 22.678 46.729 19.255 30.961.929 81.849-11.708 109.427-23.885 52.122-59.713 93.95-74.885 100.993-3.898 1.81-6.204 5.906-5.729 10.176.475 4.271 3.626 7.76 7.826 8.668 2.176.471 36.682 7.792 74.48 7.792 19.864 0 40.643-2.024 58.103-8.127 27.084-9.474 51.071-41.917 65.813-89.012 14.247-45.52 17.565-98.773 9.157-146.338zm-97.576-247.418c6.265 1.96 12.961 5.535 12.961 9.687 0 5.085-4.639 9.226-10.124 9.242-.241.011-20.952.312-35.491-11.138 12.431-10.144 26.27-9.795 32.654-7.791zm-23.437 214.653c.152.108.31.201.463.305 2.994 2.095 6.154 4.164 9.517 6.219 11.093 6.709 20.96 11.086 26.172 13.212 17.786 32.754 11.849 70.025 9.94 79.409-4.02 4.377-15.122 16.014-29.657 27.526 4.303-13.015 7.213-25.396 8.695-37.024 3.132-24.589-.295-45.121-10.185-61.024-5.268-8.468-10.281-18.086-14.945-28.623zm39.438 249.234c-9.301 3.251-19.879 5.159-30.824 6.14 12.535-13.399 28.172-34.986 42.518-68.738 2.161-5.083-.209-10.954-5.293-13.114-5.086-2.161-10.957.211-13.118 5.292-22.714 53.438-48.18 72.696-55.185 77.205-13.977-.519-27.146-1.936-37.552-3.374 21.141-20.445 45.922-56.268 63.055-92.697.177-.1 31.319-19.098 51.413-40.576 9.21 12.467 25.534 35.588 37.067 57.622-12.686 38.345-32.003 65.217-52.081 72.24zm59.515-99.689c-12.81-21.173-26.926-40.221-32.911-48.078 2.619-13.621 7.651-52.695-11.193-89.169 2.172-3.864 3.824-8.353 5.055-13.722 1.451-6.42 2.15-13.66 2.161-22.15 0-3.437-.42-11.971-.462-12.577.01.012.031.019.042.03 13.497 17.96 29.91 43.513 39.591 71.89 6.546 36.633 5.645 76.902-2.283 113.776z"/><circle cx="323.01" cy="109.176" r="10"/></g></g></svg>