<svg id="Layer_1" enable-background="new 0 0 512 512" height="512" viewBox="0 0 512 512" width="512" xmlns="http://www.w3.org/2000/svg"><g><g clip-rule="evenodd" fill-rule="evenodd"><path d="m265.497 367h-255.497v109h492v-179.999h-185.494l15-20.001h-214.502l23.493 28.501 44.5 5.999 53.5 20.499z" fill="#60a4ff"/><path d="m10 367h255.497l-27-36.001-53.5-20.499-44.5-5.999-23.493-28.501-7.007-8.5-53.999-14-45.998 9z" fill="#b8ecbb"/><path d="m316.506 296.001h185.494v-107.276l-29.995 7.776-75 43-53.5 20.499-11.999 16z" fill="#a0e5a5"/><path d="m117.004 276h214.502l11.999-16 53.5-20.499-77.508-48.502-68.5 4-53-18.5-43 19-32-37-69-20.5-43.997 13.5v111.001l45.998-9 53.999 14z" fill="#a0e5a5"/><path d="m197.997 176.499 53 18.5 68.5-4 77.508 48.502 75-43 29.995-7.776v-42.561l-89.002-8.16-85-61.202-63-7.141-43-33.661-69 10-21 41-57 15-21.001 35.999 69 20.5 32 37z" fill="#88df8e"/></g><g><path d="m502.913 136.205-86.286-7.911-82.787-59.608c-1.391-1.001-3.015-1.628-4.717-1.821l-60.189-6.822-40.772-31.917c-2.151-1.684-4.897-2.416-7.598-2.022l-69 10c-3.207.464-5.989 2.454-7.466 5.338l-18.964 37.024-52.681 13.863c-2.565.675-4.756 2.341-6.093 4.632l-19.032 32.625-40.262 12.353c-4.2 1.289-7.066 5.167-7.066 9.56v324.501c0 5.523 4.477 10 10 10h492c5.523 0 10-4.477 10-10v-329.836c0-5.169-3.939-9.486-9.087-9.959zm-102.33 112.634c.007-.003.014-.007.022-.01.446-.172.878-.381 1.297-.616.025-.014.052-.022.077-.036l73.835-42.332 16.186-4.197v84.353h-155.495l13.271-17.694zm-319.035-138.222 52.994-13.946c2.749-.724 5.06-2.583 6.355-5.112l18.646-36.403 59.657-8.646 38.203 29.906 14.96 24.551c1.883 3.092 5.176 4.798 8.549 4.798 1.773 0 3.569-.472 5.194-1.462 4.716-2.874 6.21-9.026 3.336-13.743l-5.278-8.663 40.111 4.546 82.88 59.675c1.449 1.043 3.152 1.68 4.93 1.843l79.915 7.328v25.698l-22.505 5.834c-.862.224-1.691.562-2.464 1.005l-69.801 40.019-72.428-45.323c-1.759-1.101-3.816-1.631-5.888-1.506l-66.507 3.883-51.115-17.842c-2.394-.834-5.017-.73-7.337.294l-34.575 15.279-29.094-30.977c-1.211-1.29-2.744-2.236-4.441-2.74l-56.794-16.873zm-61.548 48.274 34.043-10.446 63.515 18.87 67.65 72.03c3.781 4.025 10.109 4.224 14.135.443 4.025-3.781 4.224-10.109.443-14.135l-25.893-27.57 24.536-10.842 49.274 17.199c1.244.434 2.562.622 3.878.542l65.316-3.814 57.803 36.171-34.772 13.323c-1.759.674-3.292 1.831-4.422 3.338l-9 12h-204.786l-4.007-4.861c-1.342-1.628-3.165-2.79-5.207-3.319l-53.999-14c-1.448-.374-2.961-.42-4.43-.134l-34.077 6.668zm0 111.843 35.688-6.983 48.657 12.615 28.435 34.496c1.603 1.945 3.882 3.213 6.38 3.549l43.346 5.844 49.72 19.051 13.271 17.694h-225.497zm0 195.266v-20.002h31.498c5.523 0 10-4.477 10-10s-4.477-10-10-10h-31.498v-48.998h245.496c3.788 0 7.25-2.14 8.944-5.528s1.328-7.442-.944-10.472l-27-36c-1.13-1.507-2.663-2.664-4.422-3.338l-53.5-20.5c-.723-.277-1.475-.469-2.242-.572l-40.614-5.476-7.512-9.114h173.3l-3 4c-2.273 3.03-2.638 7.084-.944 10.472s5.157 5.528 8.944 5.528h175.494v80h-36.001c-5.523 0-10 4.477-10 10s4.477 10 10 10h36.001v60z"/><path d="m194.499 397.001h-35c-5.523 0-10 4.477-10 10s4.477 10 10 10h35c5.523 0 10-4.477 10-10s-4.478-10-10-10z"/><path d="m328.999 416.5h-42c-5.523 0-10 4.477-10 10s4.477 10 10 10h42c5.523 0 10-4.477 10-10s-4.478-10-10-10z"/><path d="m383.998 341.5h-28c-5.523 0-10 4.477-10 10s4.477 10 10 10h28c5.523 0 10-4.477 10-10s-4.477-10-10-10z"/><path d="m295.636 139.157c1.846 3.229 5.217 5.038 8.688 5.038 1.683 0 3.389-.425 4.955-1.32 4.795-2.74 6.459-8.852 3.719-13.647-2.74-4.794-8.849-6.46-13.644-3.721-4.795 2.74-6.461 8.849-3.721 13.644z"/></g></g></svg>