<svg id="Layer_1" enable-background="new 0 0 512 512" height="512" viewBox="0 0 512 512" width="512" xmlns="http://www.w3.org/2000/svg"><g><path d="m256.771 434.577-33.999 2.595 10.31-69.962-42.781 11.189 1.333 81.69 58.066 20.911 28.666-20.302z" fill="#ffda8f"/><path d="m406.39 123.86c-13.54 19.56-8.53 46.84 3.57 72.85 10.67 22.95 10.58 102.42-81.83 136.32-92.4 33.91-114.97 52.27-114.97 52.27-112.86-11.3-198.16 14.83-198.16 14.83 76.18-236.62 297.9-200.94 297.9-200.94 39.1-31.67 20.13-68.92 17.35-78.19-4.45-14.85-9.01-25.97-9.01-37.32 0-26.33 21.32-52.68 47.61-52.68 23.92 0 42.38 7.28 56.98 20.06 0 28.65-16.5 43.94-9.46 68.14-4.77.77-8.31 2.25-9.98 4.66z" fill="#fff"/><path d="m502 105.21-4 24.54s-57.06-14.56-81.63-10.55c-7.04-24.2 9.46-39.49 9.46-68.14 9.3 8.13 17.03 18.49 23.63 30.62l19.57 3.91s6.14-2.92 15-2c.69.07 1.45.23 2.24.45 9.39 2.62 15.73 11.42 15.73 21.17z" fill="#ff7b79"/><path d="m312.9 199.19s-85.69 176.42-257.21 125.51c-15.53-4.6-28.76-11.07-45.69-19.7l136.4-71.78.1-.06.14-.07v-.01c81.78-47.93 166.26-33.89 166.26-33.89z" fill="#89a7bc"/><g><circle cx="307.367" cy="340.83" r="10"/><path d="m488.952 74.407c-1.398-.39-2.676-.64-3.89-.764-7.292-.756-13.251.494-16.808 1.594l-12.335-2.464c-6.902-11.845-14.578-21.399-23.366-29.112-.046-.042-.087-.089-.134-.131-8.24-7.26-17.66-12.85-28.021-16.63-10.738-3.91-22.578-5.9-35.158-5.9h-.391c-7.95.01-15.7 1.89-23.03 5.6-6.699 3.38-12.979 8.32-18.17 14.29-5.13 5.91-9.159 12.57-11.989 19.82-2.91 7.46-4.4 15.19-4.42 22.97.01 7.56 1.619 14.38 3.21 20.05 1.029 3.69 7.89 24.95 8.08 25.49 2.22 6.12 4.76 14.31 4.75 23.3-.011 6.67-1.341 12.77-4.061 18.64-2.95 6.31-7.35 12.05-13.439 17.55-5.841-.66-15.431-1.44-28.021-1.44-20.99.01-41.979 2.15-62.38 6.34-27.771 5.71-53.93 15.17-77.76 28.14-9.315 5.056-18.283 10.679-26.89 16.836l-109.386 57.565c-3.307 1.74-5.367 5.178-5.343 8.915s2.13 7.147 5.459 8.844c10.929 5.571 20.353 10.267 29.924 14.195-1.198 2.106-2.387 4.221-3.543 6.365-10.29 19.1-19.16 40.16-26.36 62.6-1.149 3.55-.229 7.42 2.4 10.08 1.89 1.92 4.42 2.98 7.11 2.98 1 0 1.979-.15 2.939-.44 0 0 .14-.04.54-.16 5.95-1.75 60.311-17.07 137.37-17.07h.06c8.218 0 16.443.189 24.638.543l1.097 67.249c.068 4.156 2.7 7.837 6.61 9.246l58.065 20.911c1.102.396 2.248.591 3.388.591 2.044 0 4.067-.626 5.78-1.839l28.667-20.302c2.271-1.607 3.769-4.088 4.134-6.846.366-2.758-.434-5.543-2.206-7.687l-21.596-26.121c-2.069-2.503-5.231-3.839-8.468-3.599l-21.521 1.643 6.751-45.816c7.232-3.697 16.588-8.18 28.519-13.413 2.45-1.07 4.33-3.03 5.3-5.52.971-2.49.92-5.21-.16-7.65-1.59-3.64-5.189-5.99-9.159-5.99-1.381 0-2.73.29-4.011.85-30.37 13.32-45.18 22.18-51.31 26.28-17.92-1.68-36.26-2.52-54.521-2.52-25.09 0-50.359 1.58-75.1 4.69-21.94 2.77-39.42 6.25-50.24 8.7 6.89-18.373 14.94-35.387 24.097-51.052 20.869 6.024 41.432 9.024 61.535 9.024 50.156 0 97.403-18.635 139.032-55.291 39.196-34.513 60.848-73.698 65.664-82.989 9.185-7.772 16.069-16.497 20.462-25.953 3.95-8.47 5.94-17.58 5.931-27.08 0-7.2-1.11-14.5-3.381-22.34-.89-3.05-9.319-28.73-10.199-31.85-1.7-6.09-2.46-10.61-2.46-14.65-.04-10.32 4.25-21.4 11.479-29.64 7.364-8.409 16.624-13.039 26.084-13.039h.05c18.99.07 33.87 4.73 46.811 14.66-.58 8.22-5.54 24.37-5.83 25.29-2.55 7.98-5.181 16.24-5.21 26.19 0 1.74.09 3.51.27 5.25-2.85 1.49-5.05 3.38-6.72 5.77-3.38 4.87-5.93 10.33-7.58 16.24-1.53 5.47-2.31 11.35-2.29 17.47.01 7.75 1.2 16.06 3.53 24.69 2.069 7.67 5.12 15.87 9.06 24.37 1.92 3.98 3.82 12.45 3.78 22.41.01 15.79-4.32 32.3-12.17 46.5-10.33 18.65-26.53 33.84-48.141 45.15-4.88 2.55-6.779 8.61-4.229 13.49 1.729 3.32 5.13 5.37 8.87 5.37 1.6 0 3.2-.39 4.63-1.13 13.09-6.83 24.68-15.11 34.439-24.61 8.841-8.59 16.211-18.21 21.931-28.59 12.12-21.96 14.67-42.67 14.67-56.18-.04-12.21-1.99-22.87-5.64-30.85-7.061-15.09-10.771-29.14-10.74-40.62.029-8.65 1.979-15.79 5.979-21.82.635-.288 1.959-.712 3.648-.973.021-.003.042-.004.063-.007 18.44-3.012 79.191 10.68 80.018 10.68 1.929 0 3.836-.558 5.479-1.634 2.347-1.537 3.941-3.988 4.393-6.757l4-24.54c.086-.532.13-1.07.13-1.609-.001-14.35-9.476-27.017-23.049-30.803zm-276.792 320.843c2.467.246 4.981-.462 6.967-1.944l-6.249 42.408c-.442 3.008.506 6.053 2.579 8.277 2.072 2.223 5.05 3.377 8.075 3.152l28.833-2.201 11.428 13.822-15.615 11.059-46.658-16.803-.959-58.798c3.882.306 7.752.643 11.599 1.028zm29.847-121.719c-54.129 47.661-115.858 61.65-183.478 41.581-9.173-2.717-17.569-6.16-26.545-10.381 0 0 119.813-63.068 120.055-63.224 57.857-33.778 117.751-35.26 144.638-33.803-9.312 15.369-27.587 41.98-54.67 65.827zm247.855-156.01c-15.679-3.561-44.591-9.359-65.19-8.988-.02-.463-.05-.922-.051-1.393-.04-6.81 2.239-13.89 5.13-22.86l.01-.02c1.066-3.368 2.122-6.842 3.049-10.48 2.735 3.844 5.351 8.056 7.867 12.68 1.418 2.604 3.918 4.446 6.825 5.026l19.57 3.91c2.196.439 4.189.27 6.18-.738.563-.226 4.435-1.674 9.746-1.122.002 0 .189.026.585.136 4.743 1.323 8.118 5.726 8.399 10.844z"/><circle cx="381.978" cy="72.747" r="10"/></g></g></svg>