<svg id="Layer_1" enable-background="new 0 0 512 512" height="512" viewBox="0 0 512 512" width="512" xmlns="http://www.w3.org/2000/svg"><g><path d="m368.568 49.976c5.327-21.32 21.489-39.976 51.68-39.976s50.615 17.898 50.615 39.976c0 16.2-12.089 26.355-23.48 36.429-8.757 7.745 3.128 35.676 6.967 46.72 24.536 70.585 28.322 201.502-88.494 250.535-38.981 16.362-80.47 23.028-181.362 11.352 0 0-62.055 56.582-72.199 64.321-24.323 18.557-53.278 30.605-102.295 42.667l83.115-103.405s80.684-191.759 222.675-278.442c24.631-15.037 41.732-19.617 47.76-47.848 1.922-9.002 3.745-17.235 5.018-22.329z" fill="#c5d3de"/><path d="m444.075 151.858c-27.354-27.433-70.735-25.339-105.198-.001-28.783 21.162-55.308 46.906-71.006 58.16-104.671 75.033-235.267 189.145-235.267 189.145 271.004 20.546 381.862-101.632 411.471-147.96 20.875-32.663 27.354-71.911 0-99.344z" fill="#c5d3de"/><g><path d="m510.93 98.952c-9.84-19.547-22.924-29.694-32.594-34.855 1.589-4.267 2.532-8.942 2.532-14.116 0-28.493-26.061-49.98-60.62-49.98-30.991 0-53.937 17.777-61.383 47.559-1.503 6.025-3.602 15.645-5.097 22.653-4.06 19.017-13.613 24.436-30.954 34.274-3.877 2.199-7.886 4.474-12.236 7.128-79.738 48.683-140.188 129.713-177.122 189.694-8.464 6.9-101.236 84.931-107.246 90.161-.12.1-.18.16-.19.16-3.04 2.66-4.18 6.85-2.9 10.69 1.27 3.83 4.7 6.51 8.73 6.81 12.918.979 25.747 1.653 38.351 2.018l-67.995 84.587c-2.687 3.342-2.943 8.024-.639 11.64 1.865 2.926 5.07 4.626 8.432 4.625.793 0 1.595-.095 2.39-.29 50.703-12.474 80.416-24.931 105.979-44.432 8.52-6.505 49.473-43.597 69.508-61.82 45.249 5.077 78.74 6.355 105.481 4.711l18.709 58.749h-20.931c-5.523 0-10 4.477-10 10s4.477 10 10 10h87.324c5.523 0 10-4.477 10-10s-4.477-10-10-10h-45.404l-19.335-60.715c22.053-2.976 39.336-8.326 56.008-15.324 54.509-22.879 90.174-65.84 103.143-124.237 9.562-43.06 6.168-94.947-9.078-138.797-.484-1.394-6.462-17.652-8.107-24.371-1.932-7.895-.621-12.515-.621-12.515 4.079-3.601 8.51-7.517 12.532-11.97 6.609 3.216 17.243 10.615 25.467 26.954 1.757 3.491 5.281 5.506 8.94 5.505 1.512 0 3.046-.344 4.489-1.07 4.935-2.481 6.92-8.493 4.437-13.426zm-404.696 352.427c-17.951 13.694-38.582 23.662-69.178 32.923l58.564-72.855c20.12-.099 39.904-1.031 58.968-2.802-22.61 20.436-43.253 38.84-48.354 42.734zm255.754-76.94c-27.645 11.603-56.173 18.119-108.859 16.182 25.068-7.131 48.792-16.072 70.8-26.712 2.4-1.17 4.21-3.2 5.09-5.72s.72-5.24-.44-7.64c-1.66-3.43-5.2-5.65-9.01-5.65-1.51 0-2.98.34-4.35 1-62.54 30.23-137.649 45.56-223.229 45.57-11.2 0-22.72-.27-34.25-.8 38.08-32.64 135.149-114.6 215.959-172.53 7.37-5.29 56.84-47.74 71.1-58.23 15.64-11.51 33.53-17.85 50.38-17.85h.06c16.55.05 30.6 5.72 41.75 16.86 10.18 10.3 15.17 22.47 15.25 37.21.04 15.29-5.85 32.93-16.59 49.69-6.48 10.15-21.25 30.5-47.23 52.73-2.03 1.74-3.27 4.16-3.47 6.82-.21 2.67.63 5.25 2.37 7.28 1.9 2.22 4.67 3.5 7.6 3.5 2.38 0 4.69-.85 6.5-2.4 11.62-9.95 22.27-20.5 31.66-31.37 7.49-8.67 14.019-17.35 19.42-25.79 1.219-1.914 2.369-3.836 3.481-5.762-7.28 49.186-32.828 97.939-93.992 123.612zm78.765-295.519c-12.803 11.325-3.958 35.376 2.5 52.938.631 1.717 1.198 3.256 1.65 4.556.432 1.243.858 2.524 1.28 3.822-6.27-5.298-13.291-9.528-20.965-12.576-9.35-3.71-19.37-5.6-29.78-5.6h-.2c-10.59.01-21.35 1.9-31.98 5.61-10.58 3.7-20.78 9.13-30.31 16.13-14.79 10.88-64.409 53.45-70.9 58.09-22.956 16.458-48.504 35.731-76.421 57.643 34.629-47.127 80.326-97.24 135.37-130.847 4.077-2.488 7.945-4.682 11.685-6.804 18.624-10.566 34.709-19.691 40.645-47.495 2.098-9.832 3.807-17.435 4.941-21.981 3.027-12.103 12.504-32.406 41.98-32.406 23.537 0 40.62 12.608 40.62 29.98 0 11.183-20.115 28.94-20.115 28.94z"/><circle cx="427.685" cy="50.833" r="10"/><circle cx="358.811" cy="332.95" r="10"/></g></g></svg>