<svg id="Layer_1" enable-background="new 0 0 512 512" height="512" viewBox="0 0 512 512" width="512" xmlns="http://www.w3.org/2000/svg"><g><path d="m386.554 114.59c-16.468-20.969-24.338-39.439-26.439-53.305-.672-4.433 2.836-8.369 7.319-8.289.147.003.298.004.454.003 9.629-.038 18.281-6.477 20.677-15.805 3.68-14.33-7.041-27.194-20.765-27.194-6.702 0-15.008 3.714-19.627 7.877-4.303 3.879-42.589 30.917 6.212 106.674 37.222 57.782-13.185 68.199-16.667 36.642-5.682-51.497-93.71-62.612-147.157-19.922s-93.067 75.486-93.067 75.486 34.81-5.384 61.533 6 73.222 6.028 73.222 6.028c5.345 22.946 23.517 25.08 23.517 25.08 18.172-44.291 50.24-44.291 50.24-44.291s74.829 28.128 95.404-19.922c7.007-16.363 9.027-44.652-14.856-75.062z" fill="#ff7b79"/><g><path d="m421.058 43.76c-5.446-11.351-15.784-17.209-22.715-19.997-1.372-5.457-4.196-10.459-8.277-14.534-5.94-5.949-13.849-9.229-22.269-9.229-4.61.02-9.329 1.05-14.429 3.14-4.639 1.95-12.899 8.16-13.269 8.49-5.09 4.38-9.129 9.22-12.329 14.8-3.64 6.28-7.959 16.8-7.94 31.311.01 9.899 1.97 20.63 5.84 31.869 4.33 12.591 11.169 26.16 20.309 40.36 10.969 16.95 12.079 27.22 12.039 30.86-.02 3.09-.65 5.439-1.84 6.81-.8.851-1.43 1.03-2.3 1.07-.8-.01-2.02-.28-3.31-1.53-1.57-1.58-2.55-3.96-2.91-7.08-.96-8.8-4.09-17.25-9.039-24.43-3.53-5.12-7.999-9.73-13.289-13.71-4.98-3.75-10.719-6.95-17.049-9.53-6.089-2.47-12.699-4.36-19.649-5.61-6.819-1.229-14.009-1.859-21.358-1.859-14.499.01-28.908 2.35-42.827 6.95-14.849 4.909-28.348 12.159-40.127 21.55-50.907 40.66-93.205 75.59-93.205 75.59-3.449 2.86-4.579 7.72-2.74 11.81 1.61 3.58 5.19 5.9 9.12 5.9.51 0 20.138-1.28 20.138-1.28 8.37 0 24.379.84 37.478 6.48 16.969 7.109 37.748 8.02 51.907 8.08 6.01 0 12.119-.21 18.159-.62 4.529 10.79 11.569 16.46 15.369 18.88 1.493.969 2.944 1.766 4.32 2.429l-13.457 111.469c-.093.768-.096 1.544-.01 2.313l13.183 117.488h-19.013c-5.523 0-9.999 4.478-9.999 10s4.477 10 9.999 10h80.17c5.523 0 9.999-4.478 9.999-10s-4.477-10-9.999-10h-41.033l-13.304-118.562 14.12-116.958c6.609-15.46 15.658-26.418 26.92-32.561 4.27-2.3 11.649-4.12 12.259-4.21 3.02 1.02 7.939 2.55 14.239 4.03 2.93.689 6.089-.011 8.449-1.86 1.81-1.41 3.04-3.35 3.57-5.58.61-2.61.17-5.29-1.23-7.56-1.41-2.271-3.62-3.86-6.22-4.471-4.43-1.04-16.309-4.7-17.499-4.7-1.78.011-11.229.391-23.048 6.73-9.079 4.84-22.049 14.79-32.288 34.7-2.334-1.766-5.1-4.431-7.18-9.68-.47-1.185-3.507-13.598-3.507-13.598-1.248-5.38-6.623-8.731-12.001-7.481-4.415 1.024-7.457 4.827-7.719 9.131-6.668.32-13.974.669-14.131.669-8.51 0-29.748-.63-43.187-6.48-10.34-4.38-22.549-7-36.308-7.8 4.648-3.796 10.093-8.234 16.171-13.172 9.804.257 19.132.38 28.002.38 96.021 0 138.69-14.353 157.637-26.734 1.327 5.985 4.111 11.284 8.076 15.176 2.35 2.33 5.06 4.149 8.049 5.409 2.99 1.25 6.11 1.891 9.269 1.891h.16c3.13 0 6.33-.69 9.249-2 3-1.34 5.73-3.351 7.89-5.811 4.449-5.01 6.899-12.14 6.87-20.069-.03-5.91-1.26-12.311-3.67-19.021-2.51-7.01-6.399-14.64-11.559-22.68-15.249-23.67-22.969-44.32-22.959-61.39.03-9.08 2.15-16.7 6.5-23.32 1.41-2.12 3-4.03 4.85-5.84.81-.79 7.19-5.88 9.86-6.971 2.632-1.107 5.024-1.607 6.761-1.607 5.68 0 11.49 5.17 11.499 11.5 0 1.069-.14 2.12-.42 3.21-1.15 4.72-5.913 7.807-11.019 8.29-3.419.323-9.53 1.8-12.779 5.04-3.24 3.24-5.039 7.56-5.049 12.149 0 .86.07 1.74.2 2.601 2.71 17.63 12.559 37.68 28.458 57.979 11.509 14.7 17.359 29.86 17.409 45.05 0 8.961-4.21 20.65-4.4 21.061-1.13 2.42-1.25 5.14-.33 7.65.91 2.51 2.75 4.51 5.17 5.64 1.34.62 2.75.939 4.219.939 3.87 0 7.419-2.26 9.06-5.77 0 0 .01 0 .01-.01.26-.561 6.26-19.73 6.27-29.511.02-13.6-3.71-34.6-21.678-57.409-16.899-21.46-22.199-37.721-23.858-45.53 6.429-.57 12.449-3.021 17.409-7.11 3.56-2.928 6.355-6.556 8.288-10.65 2.678 1.753 5.296 4.16 6.813 7.376 2.583 5.474 1.61 12.871-2.891 21.985-2.446 4.952-.415 10.948 4.537 13.395 1.424.703 2.933 1.036 4.421 1.036 3.685 0 7.23-2.045 8.973-5.573 7.382-14.952 8.375-28.269 2.949-39.578zm-253.998 129.2c9.225-7.44 19.209-15.46 29.738-23.87 19.129-15.34 44.769-23.851 70.345-24.13 13.089-.143 31.538 3.689 42.367 10.399 5.04 3.108 9.106 6.788 12.123 10.95-8.686 7.707-41.812 27.112-154.573 26.651z"/><circle cx="365.865" cy="216.5" r="10"/></g></g></svg>