<svg id="Layer_1" enable-background="new 0 0 512 512" height="512" viewBox="0 0 512 512" width="512" xmlns="http://www.w3.org/2000/svg"><g><path d="m244.775 450.577-33.999 2.595 10.31-69.962-42.781 11.188 1.333 81.691 58.066 20.911 28.666-20.302z" fill="#ffda8f"/><path d="m397.96 211.711c-9.875-23.309-51.492-149.034-51.492-149.034 0-26.331-21.317-47.677-47.613-47.677s-47.613 21.346-47.613 47.677c0 11.354 3.97 21.775 10.587 29.963 2.487 3.078 89.176 95.878 50.075 127.547 0 0-225.719-41.673-301.899 194.946 0 0 78.296-26.134 191.156-14.833 0 0 22.572-18.364 114.975-52.268 92.404-33.904 91.699-113.012 81.824-136.321z" fill="#fff"/><path d="m354.468 61.677c44.996 22.528 147.534 127.849 147.534 127.849s-39.831 25.261-113.133-21.832c-42.395-27.237-50.094-44.214-56.442-56.221-5.317-10.057-8.996-65.335 22.041-49.796z" fill="#ffda8f"/><g><circle cx="157.9" cy="240.31" r="10"/><path d="m509.172 182.55c-2.12-2.17-28.18-28.87-59.459-57.91-31.28-29.03-67.78-60.4-90.769-71.9-1.25-.62-2.46-1.16-3.63-1.62-2.28-11.27-7.88-21.6-16.27-29.77-10.811-10.54-25.091-16.35-40.19-16.35-7.78 0-15.33 1.53-22.43 4.54-6.86 2.9-13.02 7.06-18.31 12.36-5.29 5.29-9.44 11.46-12.34 18.33-3.01 7.11-4.53 14.66-4.53 22.45 0 6.7 1.14 13.28 3.4 19.55 2.19 6.07 5.35 11.68 9.41 16.69v.01c.23.28 7.2 8.13 12.01 13.9 8.33 10.01 20.26 25.3 29.83 41.29 5.07 8.46 9.01 16.34 11.71 23.42 2.91 7.57 4.44 14.47 4.42 19.96-.01 3.34-2.78 11.02-3.58 12.05-6.17-.82-18.99-2.19-35.86-2.19-25.44 0-50.5 3-74.469 8.91-2.59.64-4.78 2.25-6.16 4.54-1.38 2.28-1.79 4.97-1.15 7.56 1.1 4.48 5.09 7.61 9.7 7.61.81 0 1.61-.1 2.4-.29 22.4-5.53 45.83-8.33 69.639-8.33h.04c12 0 21.65.74 27.63 1.36 3.36.35 9.87 1.3 9.88 1.3 2.85.53 5.86-.24 8.11-2.06 4.69-3.79 8.37-8.62 10.64-13.99 2.11-4.93 3.18-10.47 3.18-16.47-.05-10.94-3.26-22.76-10.09-37.22-7.15-14.97-18.02-31.82-32.29-50.08-4.43-5.65-20.05-23.87-20.06-23.87-5.45-6.78-8.34-14.96-8.34-23.65 0-10.06 3.92-19.52 11.02-26.65 7.11-7.11 16.56-11.02 26.59-11.03 10.03 0 19.48 3.92 26.59 11.03 4.32 4.34 7.46 9.54 9.26 15.21-2.51 1.28-4.45 2.89-5.85 4.32-14.7 15.03-10.14 51.38-5.27 60.59 0 0 13.253 31.35 47.9 51.91 1.73 4.98 14.87 41.87 17.27 47.55 1.67 3.86 3.62 12.08 3.58 22.56 0 10.62-2.01 31.58-15.55 52.63-13.6 21.09-35.16 37.19-64.09 47.84-75.049 27.56-104.909 45.08-114.269 51.35-12.136-1.141-24.4-1.889-36.632-2.259 37.519-16.877 91.245-45.04 134.832-83.627 4.135-3.66 4.52-9.98.859-14.116-3.66-4.135-9.98-4.52-14.116-.858-66.666 59.018-166.384 95.545-178.082 99.703-10.829.75-21.563 1.792-32.13 3.157-16.75 2.16-32.71 5.03-47.46 8.53 21.56-57.1 54.64-100.96 98.349-130.38 4.58-3.07 5.8-9.3 2.73-13.88-1.87-2.77-4.97-4.42-8.31-4.42-1.98 0-3.9.58-5.56 1.69 0 0-.01 0-.01.01-24.19 16.21-45.61 36.78-63.68 61.14-9.9 13.36-18.94 28.06-26.86 43.71-8.39 16.57-15.75 34.63-21.87 53.68-1.16 3.61-.21 7.5 2.49 10.17 1.85 1.84 4.42 2.89 7.04 2.89 1.07 0 2.14-.17 3.16-.51 0 0 14.16-4.62 37.5-8.9 29.89-5.48 109.823-8.074 117.85-7.726l1.114 68.258c.068 4.156 2.7 7.837 6.61 9.245l58.065 20.911c1.102.397 2.248.592 3.387.592 2.043 0 4.068-.626 5.781-1.84l28.666-20.303c2.27-1.607 3.768-4.088 4.133-6.846.366-2.757-.434-5.543-2.206-7.687l-21.595-26.12c-2.07-2.504-5.226-3.846-8.468-3.599l-21.52 1.642 6.91-46.894c.728-.371 54.11-24.714 90.179-37.934 17.27-6.32 32.55-14.62 45.39-24.66 11.56-9.05 21.2-19.53 28.64-31.15 6.56-10.22 11.48-21.33 14.64-33.03 2.71-10.01 4.08-20.24 4.08-30.41-.03-11.86-1.82-22.36-5.17-30.36-1.64-3.86-4.59-11.74-8.48-22.63 29.97 16.4 54.22 21.08 72.15 21.08 22.96 0 35.56-7.68 36.53-8.29 2.54-1.61 4.22-4.29 4.57-7.28.351-2.989-.659-5.979-2.759-8.139zm-268.802 278.392 11.427 13.822-15.615 11.059-46.658-16.803-.976-59.803c3.88.307 7.755.645 11.616 1.032 2.532.245 5.128-.507 7.133-2.066l-6.414 43.53c-.443 3.008.505 6.054 2.579 8.276 2.073 2.224 5.049 3.381 8.075 3.152zm230.702-274.652h-.19c-15.82 0-41.89-4.71-76.609-27.01-2.1-1.35-28.52-20.55-35.08-27.17-9.84-9.9-14.398-18.387-17.92-25.29-2.252-4.414-3.62-21.27-1.05-31.21.69-2.64 3.92-6.64 4.58-6.64 1.5 0 12.85 5.86 17.21 8.74 37 24.38 96.919 82.82 121.629 107.5-3.51.62-7.71 1.07-12.57 1.08z"/><circle cx="294.5" cy="56.955" r="10"/></g></g></svg>