<svg id="Layer_1" enable-background="new 0 0 512 512" height="512" viewBox="0 0 512 512" width="512" xmlns="http://www.w3.org/2000/svg"><g><path d="m466.051 374.674c2.234 25.706-9.533 61.313-46.705 61.325-85.846.028-233.86-1.282-339.312-30.049-90.827-24.777-67.293-109.6-67.293-109.6 24.198 24.234 67.949 24.237 67.949 24.237l-17.955-24.237c9.944-30.202 55.744-44.443 55.744-44.443l-34.467-26.466c35.799-16.969 95.465-25.112 150.487-1.364 55.022 23.758 175.685 139.802 175.685 139.802 2.645-31.22-44.421-138.438-45.744-217.836-1.333-79.398 47.766-70.628 55.022-68.883 13.477 3.242 29.299 16.409 32.133 18.465 2.317 24.908-15.782 35.312-15.782 35.312-18.064-1.188-27.228 11.817-25.069 27.999 3.711 27.805 13.424 78.699 38.55 139.796 10.153 24.686 14.749 52.829 16.757 75.942z" fill="#fff"/><path d="m502 143.326-66.186-12.388s18.099-10.403 15.782-35.312c16.935 12.287 38.471 33.958 50.404 47.7z" fill="#ffda8f"/><g><circle cx="290.147" cy="259.71" r="10"/><path d="m509.551 136.77c-12.932-14.892-41.551-42.27-53.261-50.43-4.916-3.426-12.17-8.57-16.4-11.06-4.28-2.521-10.82-6.061-18.09-7.841-2.73-.659-7.15-1.439-12.73-1.439-6.02 0-11.78.93-17.13 2.77-10.85 3.66-20.21 11.561-26.35 22.25-3.61 6.221-6.37 13.561-8.22 21.82-1.96 8.77-2.93 23.285-2.93 33.37 0 39.506 11.85 84 23.79 126.2 2.11 7.439 17.37 61.56 18.15 64.81-15.58-14.38-39.39-35.9-64.64-57-1.79-1.5-4.07-2.33-6.41-2.33-2.97 0-5.77 1.311-7.67 3.59-1.72 2.05-2.53 4.641-2.29 7.3.24 2.66 1.49 5.07 3.54 6.78 22.92 19.15 83.88 75.08 84.32 75.51l.02.021c1.88 1.8 4.34 2.79 6.94 2.79 1.2 0 2.39-.22 3.52-.64 3.59-1.36 6.12-4.7 6.44-8.521.09-1.13.14-2.3.14-3.57-.01-4.87-.66-10.38-2.1-17.84-2.92-14.88-21.48-78.8-24.92-91.42-7.82-28.62-18.83-70.736-18.83-106.01 0-6.005 1.38-26.4 4.17-35.021 3.25-9.899 7.83-16.439 14.42-20.609 5.65-3.51 11.83-4.25 16.01-4.25h.07c4.22 0 7.41.729 8 .88 5.02 1.14 12.02 5.04 16.9 8.31 2.32 1.521 7.61 5.4 7.78 5.53-.16 6.51-2.01 11.811-5.81 16.67-1.26 1.59-2.5 2.76-3.33 3.48-4.65.069-9.07.979-13.13 2.689-4.09 1.721-7.59 4.15-10.43 7.24-5.6 6.02-8.67 14.38-8.66 23.56 0 1.94.14 3.931.4 5.91 2.49 18.61 6.35 38.311 11.47 58.53 7.09 28.04 16.43 56.21 27.75 83.74 10.19 24.72 16.26 76.47 16.26 78.25.05 11.66-3.25 23.319-8.82 31.21-3.09 4.42-6.72 7.71-11.07 10.06-4.93 2.641-10.52 3.931-17.08 3.94-.78 0-105.22-.521-163.36-4.32-70.07-4.57-128.38-13.11-173.31-25.38-24.28-6.69-41.16-17.98-51.61-34.5-9.15-14.57-11.07-30.64-11.06-41.57 0-1.85.05-3.739.16-5.609 9.41 5.659 20.37 9.81 33.51 12.71 9.289 2.009 17.226 2.776 22.118 3.072 10.085 11.901 44.011 47.971 90.735 55.942.569.098 1.135.145 1.693.145 4.784 0 9.014-3.445 9.846-8.32.929-5.444-2.731-10.61-8.176-11.539-45.79-7.812-79.057-49.319-81.136-51.969-.007-.01-.012-.021-.019-.03l-14.59-19.68c1.97-3.801 4.83-7.551 8.5-11.15 8.25-8.12 19.29-13.99 25.13-16.771 4.09-1.949 13.68-5.569 13.68-5.569 3.58-1.12 6.21-4.101 6.87-7.8.66-3.69-.78-7.4-3.75-9.681l-20.53-15.77c17.65-5.84 37.31-8.92 56.86-8.92h.15c24.64 0 48.02 4.7 69.48 13.97 4.96 2.13 10.82 5.25 17.42 9.27 1.57.95 3.36 1.45 5.19 1.45 3.52 0 6.72-1.79 8.55-4.8 2.86-4.72 1.36-10.88-3.35-13.74-7.49-4.55-13.99-8-19.88-10.54-12.38-5.35-25.51-9.38-39.04-11.989-12.47-2.4-25.38-3.62-38.37-3.62-29.14.02-58.02 6.1-81.32 17.12-3.13 1.479-5.29 4.529-5.66 7.97-.37 3.439 1.11 6.89 3.85 8.99l20.68 15.88c-3.19 1.54-6.31 3.189-9.27 4.899-8.21 4.75-14.98 9.78-20.69 15.37-7.44 7.311-12.62 15.28-15.4 23.7-1.02 3.08-.47 6.48 1.46 9.09l4.22 5.69c-.75-.16-1.5-.32-2.23-.49-9.05-2.03-25.87-7.09-36.87-18.23-1.89-1.89-4.4-2.93-7.07-2.93-.85 0-1.71.11-2.55.33-3.48.91-6.13 3.53-7.1 7l-.01.061c-.521 1.939-3.081 12.309-3.091 26.489 0 8.61.94 16.95 2.8 24.8 2.33 9.9 6.14 19.11 11.31 27.391 6.01 9.649 14.06 18.13 23.93 25.18 11.01 7.86 24.25 13.91 39.36 18 24.92 6.79 53.8 12.5 85.84 16.97 27.52 3.841 58.29 6.891 91.44 9.07 58.73 3.84 163.85 4.36 164.67 4.36h.06c9.79 0 18.7-2.13 26.48-6.33 10.26-5.51 18.46-14.63 23.73-26.38 4.36-9.75 6.68-20.99 6.69-32.5 0-2.34-5.643-55.79-17.77-85.86-24.773-61.43-34.55-112.33-37.88-137.32-.15-1.109-.23-2.199-.23-3.25.02-4.199 1.16-7.64 3.3-9.93 2.36-2.439 5.3-3.51 9.83-3.57.361 0 65.815 12.468 68.442 12.468 3.536 0 6.87-1.881 8.674-5.029 2.116-3.693 1.664-8.319-1.125-11.53zm-54.208-12.35c1.516-2.601 3.027-5.773 4.208-9.512 4.609 4.038 9.334 8.435 13.919 12.905z"/></g></g></svg>