<svg id="Layer_1" enable-background="new 0 0 512 512" height="512" viewBox="0 0 512 512" width="512" xmlns="http://www.w3.org/2000/svg"><g><path d="m377.724 124.078c10.686-22.365 29.5-44.078 53.82-44.078s44.627 20.19 44.035 45.08c-.33 13.875-.979 20.536-25.932 49.087 0 0 .489 140.583-140.422 172.306 0 0-18.103 27.799-50.885 27.799v-26.046s-22.017-.25-54.799-16.78c0 0-59.266-27.048-193.54-16.028 0 0 176.274-60.342 232.789-86.153 38.722-17.685 114.796-63.04 134.934-105.187z" fill="#d0a09d"/><path d="m393.51 212.28c0 27.759-29.9 54.827-60.17 59.275-67.12 9.858-270.159 25.375-270.159 25.375l.01-.01c56.66-19.915 143.099-50.99 179.599-67.66 27.07-12.362 72.4-38.248 104.11-67.109 26.04 1.823 46.61 23.572 46.61 50.129z" fill="#89a7bc"/><g><path d="m508.372 126.372c-8.63-7.136-16.949-10.542-23.69-12.106-.717-3.89-1.847-7.688-3.412-11.356-2.75-6.42-6.67-12.19-11.66-17.15-4.97-4.94-10.76-8.81-17.18-11.53-6.64-2.8-13.66-4.22-20.89-4.23h-.01c-17.25 0-30.58 8.83-38.72 16.24-9.45 8.58-17.56 19.86-24.11 33.53-4.14 8.72-11.8 18.72-22.14 28.93-1.976 1.963-6.262 5.947-6.306 5.987-30.85 28.12-76.741 54.182-101.614 65.484-12.69 5.8-32.75 13.9-59.61 24.1-37.87 14.37-82.68 30.37-113.6 41.26-17.86 6.3-58.65 20.42-58.67 20.43-4.76 1.63-7.58 6.57-6.55 11.5.96 4.61 5.08 7.96 9.79 7.96.27 0 42.4-2.64 61.8-2.64 46.03 0 78.6 4.95 97.82 9.11 10.69 2.31 22.521 5.644 29.65 8.6 22.011 9.126 38.43 14.99 49.07 16.7v17.08c0 1.067.183 2.12.514 3.123.017.06 15.561 44.607 15.561 44.607h-9.915c-5.523 0-10 4.477-10 10s4.477 10 10 10h65c5.523 0 10-4.477 10-10s-4.477-10-10-10h-33.9l-13.668-39.138c13.236-2.765 23.532-9.134 30.418-14.702 5.99-4.84 10.23-9.62 12.73-12.78 16.7-4.05 32.32-9.81 46.409-17.15 4.89-2.54 6.8-8.59 4.26-13.48-1.73-3.33-5.13-5.39-8.88-5.39-1.59 0-3.18.39-4.61 1.13-13.59 7.07-28.81 12.53-45.23 16.23-2.52.56-4.78 2.13-6.19 4.3-.18.27-4.35 6.36-11.75 12.13-6.51 5.07-13.5 8.45-20.75 10.04l-.007-30.928c0-5.523-4.477-10-10-10s-10 4.477-10 10v4.459c-8.782-1.82-22.758-5.761-40.293-14.2-7.785-3.747-11.13-5.11-33.1-9.94-12.46-2.74-26.14-4.95-40.69-6.56-9.37-1.036-19.124-1.822-29.172-2.363 63.047-5.082 180.928-15.043 229.714-22.208 16.748-2.461 33.844-11.052 46.903-23.571 14.066-13.484 21.813-29.678 21.813-45.598 0-24.769-15.181-46.374-36.904-55.553 9.109-9.839 15.738-19.161 20.144-28.337 5.24-11.01 12.16-20.72 19.48-27.33 8.27-7.44 16.54-11.05 25.32-11.06 8.97 0 17.48 3.54 23.96 9.96 6.5 6.46 10.075 15.42 10.075 24.48-.08 3.52-.195 6.39-.555 8.52-.58 3.29-1.54 6.23-4.79 11.5-3.45 5.57-9.38 13.14-18.12 23.13-1.41 1.61-2.295 4.07-2.455 6.21.01.07-.035 12.06-3.425 29.09-3.06 15.37-9.55 38.35-23.1 60.57-2.86 4.72-1.36 10.88 3.35 13.74 1.57.95 3.36 1.46 5.18 1.46 3.53 0 6.73-1.8 8.56-4.81 10.7-17.69 18.71-37.42 23.8-58.64 4.06-16.94 5.19-30.56 5.5-37.17 11.42-13.27 17.6-21.85 21.34-29.62 1.92-4 3.23-8.1 3.89-12.21.054-.328.084-.641.13-.964 3.253 1.314 6.897 3.363 10.738 6.539 1.865 1.542 4.122 2.294 6.367 2.294 2.878 0 5.735-1.237 7.712-3.628 3.522-4.259 2.924-10.562-1.332-14.081zm-124.862 85.908c0 21.484-25.088 45.482-51.623 49.381-39.881 5.857-129.194 13.815-194.099 19.231 17.884-6.511 34.071-12.516 48.332-17.932 27.65-10.49 47.54-18.54 60.82-24.6 10.82-4.95 23.07-11.31 35.42-18.39 14.39-8.26 28.07-17 40.67-25.98 10.066-7.18 19.131-14.338 27.146-21.381 18.985 3.266 33.334 19.973 33.334 39.671z"/><path d="m393.49 293.53c-2.54 0-4.97.96-6.82 2.7-.01 0-.01 0-.01 0-1.95 1.83-3.07 4.31-3.16 6.98s.87 5.21 2.7 7.16c1.88 2.01 4.54 3.16 7.3 3.16 2.54 0 4.97-.96 6.83-2.7l.01-.01c1.94-1.82 3.06-4.3 3.15-6.96.09-2.67-.87-5.22-2.7-7.17-1.88-2.01-4.54-3.16-7.3-3.16z"/><circle cx="435.333" cy="122.167" r="10"/></g></g></svg>